$MeshFormat
2.2 0 8
$EndMeshFormat
$PhysicalNames
8
1 3 "bottom"
1 4 "left"
1 5 "right"
1 6 "top"
1 7 "arc_inner"
1 8 "arc_outer"
2 1 "bentonite"
2 2 "clay"
$EndPhysicalNames
$Nodes
1254
1 0.525 0 0
2 25 0 0
3 25 25 0
4 0 25 0
5 0 0.525 0
6 12.5 0 0
7 12.5 12.5 0
8 0 12.5 0
9 25 12.5 0
10 12.5 25 0
11 0.3712310601229375 0.3712310601229375 0
12 1.24 0 0
13 0 1.24 0
14 0.8768124086713189 0.8768124086713189 0
15 0.6271428571426372 0 0
16 0.729285714285197 0 0
17 0.8314285714276546 0 0
18 0.9335714285705552 0 0
19 1.035714285713747 0 0
20 1.137857142856852 0 0
21 2.044285714284083 0 0
22 2.848571428568314 0 0
23 3.652857142852347 0 0
24 4.45714285713555 0 0
25 5.261428571419025 0 0
26 6.065714285702155 0 0
27 6.869999999985977 0 0
28 7.67428571427384 0 0
29 8.478571428561187 0 0
30 9.282857142848533 0 0
31 10.08714285713588 0 0
32 10.89142857142323 0 0
33 11.69571428571265 0 0
34 13.39285714284793 0 0
35 14.28571428569585 0 0
36 15.17857142854378 0 0
37 16.07142857139171 0 0
38 16.96428571423964 0 0
39 17.85714285708756 0 0
40 18.74999999993549 0 0
41 19.64285714278341 0 0
42 20.53571428563351 0 0
43 21.42857142850681 0 0
44 22.3214285713801 0 0
45 23.2142857142534 0 0
46 24.1071428571267 0 0
47 25 0.8928571428535577 0
48 25 1.785714285707255 0
49 25 2.678571428559762 0
50 25 3.571428571412271 0
51 25 4.464285714266591 0
52 25 5.357142857122273 0
53 25 6.249999999977955 0
54 25 7.142857142833639 0
55 25 8.035714285689867 0
56 25 8.928571428551892 0
57 25 9.82142857141392 0
58 25 10.71428571427595 0
59 25 11.60714285713797 0
60 25 13.39285714284793 0
61 25 14.28571428569585 0
62 25 15.17857142854378 0
63 25 16.07142857139171 0
64 25 16.96428571423964 0
65 25 17.85714285708756 0
66 25 18.74999999993549 0
67 25 19.64285714278341 0
68 25 20.53571428563351 0
69 25 21.42857142850681 0
70 25 22.3214285713801 0
71 25 23.2142857142534 0
72 25 24.1071428571267 0
73 24.10714285714856 25 0
74 23.21428571429712 25 0
75 22.32142857144567 25 0
76 21.42857142859423 25 0
77 20.5357142857428 25 0
78 19.64285714289135 25 0
79 18.75000000003991 25 0
80 17.85714285718847 25 0
81 16.96428571433484 25 0
82 16.07142857145802 25 0
83 15.1785714285924 25 0
84 14.28571428572827 25 0
85 13.39285714286413 25 0
86 11.6071428571492 25 0
87 10.7142857142984 25 0
88 9.821428571447605 25 0
89 8.928571428596804 25 0
90 8.035714285746007 25 0
91 7.142857142889409 25 0
92 6.250000000032266 25 0
93 5.357142857175123 25 0
94 4.464285714317436 25 0
95 3.571428571453948 25 0
96 2.678571428590461 25 0
97 1.785714285726975 25 0
98 0.8928571428634857 25 0
99 0 24.10714285714856 0
100 0 23.21428571429712 0
101 0 22.32142857144567 0
102 0 21.42857142859423 0
103 0 20.5357142857428 0
104 0 19.64285714289135 0
105 0 18.75000000003991 0
106 0 17.85714285718847 0
107 0 16.96428571433484 0
108 0 16.07142857145802 0
109 0 15.1785714285924 0
110 0 14.28571428572827 0
111 0 13.39285714286413 0
112 0 11.69571428571508 0
113 0 10.89142857143398 0
114 0 10.08714285714876 0
115 0 9.282857142865522 0
116 0 8.47857142858313 0
117 0 7.674285714299725 0
118 0 6.870000000015798 0
119 0 6.065714285727826 0
120 0 5.261428571440102 0
121 0 4.457142857151885 0
122 0 3.652857142864434 0
123 0 2.848571428576982 0
124 0 2.044285714287453 0
125 0 1.137857142857409 0
126 0 1.035714285714837 0
127 0 0.9335714285722526 0
128 0 0.8314285714294389 0
129 0 0.7292857142862472 0
130 0 0.6271428571431608 0
131 12.5 0.8928571428535577 0
132 12.5 1.785714285707255 0
133 12.5 2.678571428559762 0
134 12.5 3.571428571412271 0
135 12.5 4.464285714266591 0
136 12.5 5.357142857122273 0
137 12.5 6.249999999977955 0
138 12.5 7.142857142833639 0
139 12.5 8.035714285689867 0
140 12.5 8.928571428551892 0
141 12.5 9.82142857141392 0
142 12.5 10.71428571427595 0
143 12.5 11.60714285713797 0
144 13.39285714284793 12.5 0
145 14.28571428569585 12.5 0
146 15.17857142854378 12.5 0
147 16.07142857139171 12.5 0
148 16.96428571423964 12.5 0
149 17.85714285708756 12.5 0
150 18.74999999993549 12.5 0
151 19.64285714278341 12.5 0
152 20.53571428563351 12.5 0
153 21.42857142850681 12.5 0
154 22.3214285713801 12.5 0
155 23.2142857142534 12.5 0
156 24.1071428571267 12.5 0
157 12.5 24.10714285714856 0
158 12.5 23.21428571429712 0
159 12.5 22.32142857144567 0
160 12.5 21.42857142859423 0
161 12.5 20.5357142857428 0
162 12.5 19.64285714289135 0
163 12.5 18.75000000003991 0
164 12.5 17.85714285718847 0
165 12.5 16.96428571433484 0
166 12.5 16.07142857145802 0
167 12.5 15.1785714285924 0
168 12.5 14.28571428572827 0
169 12.5 13.39285714286413 0
170 0.8928571428535577 12.5 0
171 1.785714285707255 12.5 0
172 2.678571428559762 12.5 0
173 3.571428571412271 12.5 0
174 4.464285714266591 12.5 0
175 5.357142857122273 12.5 0
176 6.249999999977955 12.5 0
177 7.142857142833639 12.5 0
178 8.035714285689867 12.5 0
179 8.928571428551892 12.5 0
180 9.82142857141392 12.5 0
181 10.71428571427595 12.5 0
182 11.60714285713797 12.5 0
183 0.4434569670582826 0.4434569670582826 0
184 0.5156828739935317 0.5156828739935317 0
185 0.5879087809288071 0.5879087809288071 0
186 0.6601346878642127 0.6601346878642127 0
187 0.7323605947998477 0.7323605947998477 0
188 0.80458650173556 0.80458650173556 0
189 1.707040093764533 1.707040093764533 0
190 2.537267778857697 2.537267778857697 0
191 3.367495463950318 3.367495463950318 0
192 4.197723149042999 4.197723149042999 0
193 5.027950834135331 5.027950834135331 0
194 5.85817851922801 5.85817851922801 0
195 6.688406204320517 6.688406204320517 0
196 7.518633889417414 7.518633889417414 0
197 8.348861574514482 8.348861574514482 0
198 9.179089259612217 9.179089259612217 0
199 10.00931694470931 10.00931694470931 0
200 10.83954462980655 10.83954462980655 0
201 11.66977231490305 11.66977231490305 0
202 0.5241740778806918 0.02943698486473133 0
203 0.5216989101773479 0.05878135010160553 0
204 0.5175822846799281 0.087940767483039 0
205 0.5118371538224946 0.1168234906467359 0
206 0.5044815938996138 0.1453386439200023 0
207 0.4955387482403844 0.173396508016606 0
208 0.4850367543544419 0.2009088025082744 0
209 0.4730086554289536 0.2277889634931717 0
210 0.4594922963136731 0.253952416071176 0
211 0.4445302044353124 0.279316840424453 0
212 0.4281694560834884 0.3038024306636957 0
213 0.4104615282321213 0.3273321460555798 0
214 0.3914621365552952 0.3498319534341645 0
215 0.349831953421029 0.391462136567034 0
216 0.3273321459140435 0.4104615283449931 0
217 0.3038024303191467 0.4281694563279593 0
218 0.2793168399306647 0.4445302047455804 0
219 0.2539524153411019 0.4594922967171708 0
220 0.2277889625448387 0.4730086558856468 0
221 0.2009088014555671 0.4850367547904877 0
222 0.17339650706213 0.4955387485743702 0
223 0.1453386430831499 0.5044815941407069 0
224 0.1168234899722288 0.5118371539764467 0
225 0.08794076701156608 0.5175822847600348 0
226 0.05878134982713687 0.5216989102082732 0
227 0.02943698477615381 0.5241740778856665 0
228 1.238049250614701 0.06952735470574248 0
229 1.232203140231858 0.1388359506855066 0
230 1.222480062876422 0.2077077174051522 0
231 1.20891061093976 0.2759259588318159 0
232 1.191537478930902 0.3432760351422609 0
233 1.170415329186121 0.4095460379568382 0
234 1.145610619832704 0.4745274572946516 0
235 1.117201395674203 0.5380158375955244 0
236 1.085277042705531 0.5998114208451989 0
237 1.049938006660315 0.6597197754881724 0
238 1.011295477224855 0.7175524076641036 0
239 0.9694710381003036 0.7731273545055301 0
240 0.9245962844266025 0.826269756692402 0
241 0.8262697564998881 0.9245962845986434 0
242 0.7731273539436331 0.9694710385484017 0
243 0.7175524067707512 1.011295477858723 0
244 0.6597197741873676 1.049938007477665 0
245 0.5998114190467747 1.085277043699485 0
246 0.5380158352133222 1.117201396821411 0
247 0.4745274547622111 1.145610620881675 0
248 0.4095460355826538 1.170415330016884 0
249 0.3432760330727194 1.191537479527127 0
250 0.2759259572387141 1.208910611303375 0
251 0.2077077163154192 1.222480063061576 0
252 0.1388359500490682 1.232203140303567 0
253 0.06952735447869773 1.238049250627451 0
254 0.6261562454139035 0.03516418055629334 0
255 0.7281384129470344 0.04089137624784791 0
256 0.8301205804800718 0.04661857193940416 0
257 0.9321027480135358 0.05234576763097147 0
258 1.034084915547292 0.05807296332255686 0
259 1.136067083080974 0.06380015901414784 0
260 0.6231995144706338 0.07021772161356941 0
261 0.7247001187638356 0.08165409312551841 0
262 0.8262007230569527 0.0930904646374708 0
263 0.9277013273504791 0.1045268361494452 0
264 1.029201931644298 0.1159632076614558 0
265 1.130702535938056 0.1273995791734776 0
266 0.6182819672792148 0.1050503317575937 0
267 0.7189816498784148 0.1221598960321262 0
268 0.8196813324775388 0.1392694603066637 0
269 0.9203810150770537 0.1563790245812342 0
270 1.021080697676862 0.1734885888558588 0
271 1.121780380276619 0.1905981531305001 0
272 0.6114190762676094 0.1395524146731322 0
273 0.7110009987126353 0.162281338699499 0
274 0.8105829211575937 0.1850102627258725 0
275 0.9101648436029246 0.2077391867522897 0
276 1.009746766048546 0.2304681107787788 0
277 1.109328688494129 0.2531970348052902 0
278 0.6026324346181651 0.1736154140945563 0
279 0.7007832753366253 0.2018921842690735 0
280 0.798934116055027 0.2301689544435993 0
281 0.8970849567737804 0.2584457246181792 0
282 0.995235797492823 0.2867224947928485 0
283 1.093386638211838 0.3149992649675457 0
284 0.5919496883752903 0.2071321551508601 0
285 0.6883606285101036 0.2408678022850702 0
286 0.7847715686448675 0.2746034494192906 0
287 0.8811825087799621 0.3083390965535754 0
288 0.9775934489153426 0.3420747436879669 0
289 1.074004389050707 0.3758103908223918 0
290 0.5794044494225714 0.2399971817633962 0
291 0.673772144490607 0.2790855610184668 0
292 0.7681398395586023 0.3181739402735496 0
293 0.8625075346269062 0.3572623195287066 0
294 0.9568752296954915 0.3963506987839872 0
295 1.051242924764074 0.4354390780393071 0
296 0.5650361897495161 0.2721070883648513 0
297 0.6570637240699835 0.316425213236473 0
298 0.7490912583904197 0.3607433381081085 0
299 0.8411187927111416 0.405061462979828 0
300 0.9331463270321405 0.4493795878516877 0
301 1.025173861353147 0.493697712723592 0
302 0.5488901172266154 0.3033608453245131 0
303 0.6382879381394614 0.3527692745777855 0
304 0.7276857590522856 0.4021777038310736 0
305 0.8170835799653722 0.4515861330844548 0
306 0.9064814008787292 0.5009945623379921 0
307 0.9958792217921056 0.5504029915915797 0
308 0.5310170333244256 0.333660116862023 0
309 0.6175038622134421 0.3880033932995217 0
310 0.7039906911024463 0.4423466697370382 0
311 0.7904775199916874 0.4966899461746561 0
312 0.8769643488811931 0.5510332226124464 0
313 0.9634511777707295 0.6053764990502919 0
314 0.511473173389233 0.3629095702350694 0
315 0.5947768906948807 0.4220167098063652 0
316 0.6780806080005255 0.4811238493776807 0
317 0.7613843253063823 0.540230988949106 0
318 0.8446880426124952 0.5993381285207185 0
319 0.9279917599186511 0.6584452680923921 0
320 0.4903200296417053 0.3910171758340225 0
321 0.5701785310511922 0.4547022056123806 0
322 0.6500370324606859 0.5183872353907608 0
323 0.7298955338703648 0.5820722651692581 0
324 0.8097540352802926 0.6457572949479576 0
325 0.8896125366902737 0.7094423247267231 0
326 0.4676241576796201 0.4178944967566396 0
327 0.5437861788038486 0.485957040079025 0
328 0.6199481999280935 0.5540195834014339 0
329 0.6961102210524966 0.6220821267239671 0
330 0.7722722421771392 0.6901446700467163 0
331 0.8484342633018471 0.7582072133695372 0
332 2.04247430414059 0.1283366252876094 0
333 2.846899357666613 0.1871458958694728 0
334 3.651324411192414 0.2459551664512976 0
335 4.455749464717449 0.304764437033127 0
336 5.260174518242716 0.3635737076149314 0
337 6.064599571767681 0.4223829781967606 0
338 6.869024625293279 0.4811922487785772 0
339 7.673449678822932 0.5400015193607051 0
340 8.477874732352122 0.5988107899428451 0
341 9.282299785881353 0.6576200605250325 0
342 10.08672483941055 0.7164293311071747 0
343 10.89114989293974 0.775238601689327 0
344 11.69557494647082 0.8340478722714263 0
345 2.037045773070806 0.2564701174725346 0
346 2.841888405909873 0.3741042842595554 0
347 3.646731038748696 0.491738451046499 0
348 4.451573671586816 0.609372617833452 0
349 5.256416304425119 0.7270067846203547 0
350 6.061258937263178 0.8446409514073072 0
351 6.866101570101804 0.9622751181942346 0
352 7.670944202944504 1.079909284981785 0
353 8.475786835786787 1.197543451769359 0
354 9.28062946862916 1.315177618557028 0
355 10.08547210147145 1.432811785344606 0
356 10.89031473431375 1.550445952132205 0
357 11.69515736715774 1.668080118919698 0
358 2.028017201240757 0.3841979824872648 0
359 2.833554339605197 0.5606882475693666 0
360 3.639091477969366 0.7371785126513526 0
361 4.444628616332899 0.9136687777333521 0
362 5.25016575469657 1.090159042815277 0
363 6.055702893060046 1.266649307897276 0
364 6.861240031424025 1.443139572979238 0
365 7.6667771697921 1.619629838062133 0
366 8.472314308159804 1.796120103145065 0
367 9.27785144652765 1.97261036822814 0
368 10.08338858489536 2.149100633311077 0
369 10.8889257232631 2.325590898394047 0
370 11.69446286163232 2.502081163476856 0
371 2.015416995870996 0.5113190025870831 0
372 2.821923380802325 0.7467120463423359 0
373 3.628429765733356 0.9821050900974342 0
374 4.434936150663816 1.217498133852551 0
375 5.241442535594372 1.452891177607568 0
376 6.047948920524778 1.688284221362684 0
377 6.854455305455629 1.923677265117749 0
378 7.660961690390595 2.159070308874061 0
379 8.46746807532524 2.39446335263042 0
380 9.273974460260073 2.629856396386971 0
381 10.08048084519473 2.865249440143339 0
382 10.88698723012942 3.100642483899748 0
383 11.69349361506539 3.336035527655946 0
384 1.999284801862768 0.6376338693648276 0
385 2.807032124794711 0.9319917035873764 0
386 3.614779447726335 1.226349537809732 0
387 4.42252677065745 1.52070737203211 0
388 5.230274093588616 1.815065206254364 0
389 6.038021416519683 2.109423040476741 0
390 6.845768739451133 2.403780874699056 0
391 7.653516062386716 2.698138708922928 0
392 8.461263385322031 2.992496543146862 0
393 9.26901070825758 3.286854377371033 0
394 10.07675803119291 3.581212211594975 0
395 10.88450535412828 3.875570045818972 0
396 11.69225267706473 4.169927880042701 0
397 1.979671377099754 0.7629458107536491 0
398 2.788927425013448 1.116345583550439 0
399 3.598183472926802 1.469745356346996 0
400 4.407439520839707 1.823145129143581 0
401 5.21669556875262 2.176544901940016 0
402 6.025951616665484 2.5299446747366 0
403 6.835207664578666 2.883344447533109 0
404 7.644463712496012 3.236744220331488 0
405 8.453719760413131 3.590143993129939 0
406 9.262975808330538 3.943543765928677 0
407 10.07223185624767 4.29694353872714 0
408 10.88148790416487 4.650343311525666 0
409 11.69074395208293 5.003743084323874 0
410 1.956638432700148 0.8870612103426183 0
411 2.767666245567641 1.29959496339056 0
412 3.578694058434766 1.712128716438232 0
413 4.389721871301508 2.124662469485934 0
414 5.200749684168212 2.537196222533462 0
415 6.011777497034918 2.949729975581164 0
416 6.822805309901881 3.362263728628779 0
417 7.63383312277303 3.774797481678576 0
418 8.444860935644003 4.187331234728455 0
419 9.255888748515307 4.599864987778671 0
420 10.0669165613863 5.012398740828569 0
421 10.87794437425736 5.424932493878536 0
422 11.68897218712908 5.837466246928134 0
423 1.930258438838678 1.009790216540143 0
424 2.743315482003188 1.481564595484733 0
425 3.556372525167305 1.953338974429013 0
426 4.369429568331102 2.425113353373328 0
427 5.182486611494816 2.896887732317445 0
428 5.995543654658585 3.368662111261761 0
429 6.808600697822548 3.840436490205977 0
430 7.621657740990718 4.312210869152688 0
431 8.43471478415877 4.783985248099496 0
432 9.247771827327195 5.255759627046686 0
433 10.06082887049526 5.72753400599351 0
434 10.87388591366341 6.199308384940416 0
435 11.68694295683202 6.671082763886901 0
436 1.900614396796335 1.130947339761593 0
437 2.715951750887159 1.662083258677955 0
438 3.531289104977566 2.193219177593968 0
439 4.346626459067716 2.724355096510022 0
440 5.161963813157741 3.255491015425852 0
441 5.977301167247866 3.786626934341905 0
442 6.792638521338123 4.317762853257846 0
443 7.607975875432619 4.848898772176595 0
444 8.423313229527039 5.380034691095455 0
445 9.23865058362189 5.911170610014741 0
446 10.05398793771633 6.442306528933619 0
447 10.86932529181086 6.97344244785259 0
448 11.68466264590566 7.504578366771086 0
449 1.867799577611486 1.250352036420092 0
450 2.685661148562662 1.840984297351975 0
451 3.503522719513397 2.431616558283472 0
452 4.321384290463939 3.022248819215012 0
453 5.13924586141431 3.612881080146304 0
454 5.95710743236483 4.203513341077843 0
455 6.774969003315424 4.794145602009258 0
456 7.592830574270282 5.384777862943799 0
457 8.410692145225116 5.975410123878462 0
458 9.228553716180425 6.566042384813596 0
459 10.04641528713528 7.156674645748278 0
460 10.86427685809023 7.747306906683063 0
461 11.68213842904525 8.337939167617316 0
462 1.831917228849981 1.367829276502051 0
463 2.652538980475099 2.01810614533996 0
464 3.47316073209975 2.668383014177442 0
465 4.293782483724271 3.318659883014972 0
466 5.114404235348576 3.968936751852228 0
467 5.935025986973081 4.619213620689758 0
468 6.755647738597597 5.26949048952715 0
469 7.576269490226409 5.919767358367983 0
470 8.396891241855242 6.570044227208948 0
471 9.217512993484601 7.22032109605044 0
472 10.03813474511346 7.870597964891425 0
473 10.85875649674243 8.520874833732531 0
474 11.67937824837126 9.171151702573049 0
475 1.79308024966289 1.483210094487684 0
476 2.616689461225457 2.193292834469797 0
477 3.440298672787527 2.903375574451442 0
478 4.263907884349536 3.613458314433142 0
479 5.087517095911282 4.32354105441454 0
480 5.911126307473276 5.033623794396239 0
481 6.734735519035222 5.743706534377787 0
482 7.558344730601493 6.45378927436309 0
483 8.381953942167835 7.163872014348541 0
484 9.205563153734747 7.873954754334563 0
485 10.02917236530112 8.584037494320038 0
486 10.85278157686761 9.294120234305637 0
487 11.67639078843376 10.0042029742906 0
488 1.751410835537304 1.596332121008374 0
489 2.578225386647969 2.3663944853243 0
490 3.405039937758116 3.13645684963972 0
491 4.231854488868262 3.906519213955198 0
492 5.058669039978101 4.676581578270351 0
493 5.885483591088239 5.446643942585827 0
494 6.712298142198266 6.216706306901142 0
495 7.539112693312652 6.98676867122053 0
496 8.365927244427157 7.756831035540077 0
497 9.192741795542283 8.526893399860244 0
498 10.01955634665681 9.296955764179815 0
499 10.84637089777148 10.06701812849952 0
500 11.67318544888561 10.83708049281854 0
501 13.39285714284792 0.8928571428535577 0
502 14.28571428569585 0.8928571428535576 0
503 15.17857142854378 0.8928571428535577 0
504 16.07142857139171 0.8928571428535577 0
505 16.96428571423964 0.8928571428535577 0
506 17.85714285708756 0.892857142853558 0
507 18.74999999993549 0.8928571428535577 0
508 19.64285714278341 0.8928571428535577 0
509 20.53571428563351 0.8928571428535577 0
510 21.42857142850681 0.8928571428535577 0
511 22.32142857138011 0.8928571428535578 0
512 23.2142857142534 0.8928571428535577 0
513 24.10714285712671 0.8928571428535577 0
514 13.39285714284793 1.785714285707255 0
515 14.28571428569585 1.785714285707255 0
516 15.17857142854378 1.785714285707255 0
517 16.07142857139171 1.785714285707255 0
518 16.96428571423964 1.785714285707255 0
519 17.85714285708756 1.785714285707255 0
520 18.74999999993549 1.785714285707255 0
521 19.64285714278341 1.785714285707255 0
522 20.53571428563351 1.785714285707255 0
523 21.42857142850681 1.785714285707255 0
524 22.3214285713801 1.785714285707255 0
525 23.21428571425341 1.785714285707255 0
526 24.1071428571267 1.785714285707255 0
527 13.39285714284792 2.678571428559762 0
528 14.28571428569585 2.678571428559762 0
529 15.17857142854378 2.678571428559762 0
530 16.07142857139171 2.678571428559763 0
531 16.96428571423964 2.678571428559762 0
532 17.85714285708756 2.678571428559763 0
533 18.74999999993549 2.678571428559763 0
534 19.64285714278341 2.678571428559762 0
535 20.53571428563351 2.678571428559763 0
536 21.42857142850681 2.678571428559762 0
537 22.3214285713801 2.678571428559762 0
538 23.2142857142534 2.678571428559762 0
539 24.1071428571267 2.678571428559762 0
540 13.39285714284793 3.571428571412272 0
541 14.28571428569585 3.57142857141227 0
542 15.17857142854378 3.571428571412272 0
543 16.07142857139171 3.57142857141227 0
544 16.96428571423964 3.571428571412272 0
545 17.85714285708756 3.571428571412271 0
546 18.74999999993549 3.57142857141227 0
547 19.64285714278341 3.571428571412271 0
548 20.53571428563351 3.571428571412271 0
549 21.42857142850681 3.57142857141227 0
550 22.3214285713801 3.57142857141227 0
551 23.2142857142534 3.57142857141227 0
552 24.1071428571267 3.57142857141227 0
553 13.39285714284793 4.464285714266591 0
554 14.28571428569585 4.464285714266591 0
555 15.17857142854378 4.464285714266591 0
556 16.07142857139171 4.464285714266591 0
557 16.96428571423964 4.464285714266591 0
558 17.85714285708756 4.464285714266591 0
559 18.74999999993549 4.464285714266591 0
560 19.6428571427834 4.464285714266591 0
561 20.53571428563351 4.464285714266591 0
562 21.42857142850681 4.464285714266591 0
563 22.3214285713801 4.464285714266591 0
564 23.2142857142534 4.464285714266591 0
565 24.1071428571267 4.464285714266591 0
566 13.39285714284793 5.357142857122273 0
567 14.28571428569585 5.357142857122271 0
568 15.17857142854378 5.357142857122273 0
569 16.07142857139171 5.357142857122273 0
570 16.96428571423964 5.357142857122273 0
571 17.85714285708757 5.357142857122273 0
572 18.74999999993549 5.357142857122273 0
573 19.6428571427834 5.357142857122273 0
574 20.53571428563351 5.357142857122273 0
575 21.42857142850681 5.357142857122273 0
576 22.3214285713801 5.357142857122273 0
577 23.2142857142534 5.357142857122273 0
578 24.1071428571267 5.357142857122273 0
579 13.39285714284793 6.249999999977957 0
580 14.28571428569585 6.249999999977955 0
581 15.17857142854378 6.249999999977955 0
582 16.07142857139171 6.249999999977955 0
583 16.96428571423964 6.249999999977955 0
584 17.85714285708757 6.249999999977955 0
585 18.74999999993549 6.249999999977955 0
586 19.64285714278341 6.249999999977955 0
587 20.53571428563351 6.249999999977955 0
588 21.42857142850681 6.249999999977955 0
589 22.3214285713801 6.249999999977955 0
590 23.2142857142534 6.249999999977955 0
591 24.1071428571267 6.249999999977955 0
592 13.39285714284793 7.142857142833638 0
593 14.28571428569585 7.14285714283364 0
594 15.17857142854378 7.142857142833639 0
595 16.07142857139171 7.142857142833639 0
596 16.96428571423964 7.142857142833639 0
597 17.85714285708756 7.142857142833639 0
598 18.74999999993549 7.142857142833639 0
599 19.64285714278341 7.14285714283364 0
600 20.53571428563351 7.142857142833639 0
601 21.42857142850681 7.142857142833639 0
602 22.3214285713801 7.14285714283364 0
603 23.2142857142534 7.142857142833639 0
604 24.1071428571267 7.142857142833639 0
605 13.39285714284793 8.035714285689867 0
606 14.28571428569585 8.035714285689867 0
607 15.17857142854378 8.035714285689867 0
608 16.07142857139171 8.035714285689867 0
609 16.96428571423964 8.035714285689867 0
610 17.85714285708756 8.035714285689867 0
611 18.74999999993549 8.035714285689867 0
612 19.64285714278341 8.035714285689867 0
613 20.53571428563351 8.035714285689867 0
614 21.42857142850681 8.035714285689867 0
615 22.3214285713801 8.035714285689867 0
616 23.2142857142534 8.035714285689867 0
617 24.1071428571267 8.035714285689867 0
618 13.39285714284793 8.928571428551892 0
619 14.28571428569585 8.928571428551891 0
620 15.17857142854378 8.928571428551892 0
621 16.07142857139171 8.928571428551892 0
622 16.96428571423964 8.928571428551892 0
623 17.85714285708757 8.928571428551892 0
624 18.74999999993549 8.928571428551891 0
625 19.64285714278341 8.928571428551891 0
626 20.53571428563351 8.928571428551891 0
627 21.42857142850681 8.928571428551891 0
628 22.32142857138011 8.928571428551892 0
629 23.2142857142534 8.928571428551891 0
630 24.1071428571267 8.928571428551892 0
631 13.39285714284793 9.82142857141392 0
632 14.28571428569585 9.821428571413918 0
633 15.17857142854378 9.821428571413916 0
634 16.07142857139171 9.82142857141392 0
635 16.96428571423964 9.82142857141392 0
636 17.85714285708756 9.821428571413918 0
637 18.74999999993549 9.82142857141392 0
638 19.64285714278341 9.821428571413918 0
639 20.53571428563351 9.821428571413918 0
640 21.42857142850681 9.82142857141392 0
641 22.3214285713801 9.821428571413918 0
642 23.21428571425341 9.82142857141392 0
643 24.1071428571267 9.821428571413918 0
644 13.39285714284793 10.71428571427595 0
645 14.28571428569585 10.71428571427595 0
646 15.17857142854378 10.71428571427595 0
647 16.07142857139171 10.71428571427595 0
648 16.96428571423964 10.71428571427595 0
649 17.85714285708756 10.71428571427595 0
650 18.74999999993549 10.71428571427595 0
651 19.64285714278341 10.71428571427595 0
652 20.53571428563351 10.71428571427595 0
653 21.42857142850681 10.71428571427595 0
654 22.3214285713801 10.71428571427595 0
655 23.2142857142534 10.71428571427595 0
656 24.1071428571267 10.71428571427595 0
657 13.39285714284793 11.60714285713797 0
658 14.28571428569585 11.60714285713797 0
659 15.17857142854378 11.60714285713797 0
660 16.0714285713917 11.60714285713797 0
661 16.96428571423964 11.60714285713798 0
662 17.85714285708757 11.60714285713797 0
663 18.74999999993549 11.60714285713798 0
664 19.64285714278341 11.60714285713798 0
665 20.53571428563351 11.60714285713798 0
666 21.42857142850681 11.60714285713797 0
667 22.3214285713801 11.60714285713798 0
668 23.2142857142534 11.60714285713797 0
669 24.1071428571267 11.60714285713797 0
670 13.39285714286298 24.10714285714701 0
671 14.28571428572595 24.10714285714543 0
672 15.17857142858893 24.10714285714387 0
673 16.07142857145328 24.10714285714231 0
674 16.96428571432804 24.10714285714076 0
675 17.85714285718126 24.1071428571392 0
676 18.75000000003245 24.10714285713763 0
677 19.64285714288364 24.10714285713607 0
678 20.53571428573499 24.10714285713451 0
679 21.42857142858799 24.10714285713295 0
680 22.32142857144098 24.10714285713139 0
681 23.214285714294 24.10714285712983 0
682 24.107142857147 24.10714285712827 0
683 13.39285714286182 23.21428571429399 0
684 14.28571428572364 23.21428571429088 0
685 15.17857142858546 23.21428571428775 0
686 16.07142857144855 23.21428571428463 0
687 16.96428571432124 23.21428571428151 0
688 17.85714285717405 23.21428571427838 0
689 18.750000000025 23.21428571427526 0
690 19.64285714287593 23.21428571427213 0
691 20.53571428572718 23.21428571426901 0
692 21.42857142858174 23.2142857142659 0
693 22.32142857143631 23.21428571426278 0
694 23.21428571429087 23.21428571425965 0
695 24.10714285714543 23.21428571425652 0
696 13.39285714286066 22.32142857144099 0
697 14.28571428572132 22.3214285714363 0
698 15.17857142858198 22.32142857143163 0
699 16.07142857144381 22.32142857142694 0
700 16.96428571431445 22.32142857142225 0
701 17.85714285716685 22.32142857141757 0
702 18.75000000001754 22.32142857141289 0
703 19.64285714286823 22.32142857140821 0
704 20.53571428571937 22.32142857140352 0
705 21.4285714285755 22.32142857139883 0
706 22.32142857143162 22.32142857139415 0
707 23.21428571428775 22.32142857138947 0
708 24.10714285714388 22.32142857138479 0
709 13.3928571428595 21.42857142858798 0
710 14.28571428571901 21.42857142858174 0
711 15.17857142857851 21.42857142857549 0
712 16.07142857143907 21.42857142856925 0
713 16.96428571430764 21.42857142856301 0
714 17.85714285715964 21.42857142855675 0
715 18.75000000001008 21.42857142855052 0
716 19.64285714286051 21.42857142854428 0
717 20.53571428571157 21.42857142853803 0
718 21.42857142856926 21.42857142853179 0
719 22.32142857142694 21.42857142852554 0
720 23.21428571428463 21.42857142851929 0
721 24.10714285714231 21.42857142851306 0
722 13.39285714285835 20.53571428573499 0
723 14.28571428571669 20.53571428572718 0
724 15.17857142857504 20.53571428571938 0
725 16.07142857143434 20.53571428571157 0
726 16.96428571430084 20.53571428570376 0
727 17.85714285715244 20.53571428569595 0
728 18.75000000000262 20.53571428568815 0
729 19.64285714285281 20.53571428568035 0
730 20.53571428570377 20.53571428567254 0
731 21.42857142856301 20.53571428566473 0
732 22.32142857142225 20.53571428565693 0
733 23.2142857142815 20.53571428564912 0
734 24.10714285714075 20.53571428564132 0
735 13.39285714285719 19.64285714288365 0
736 14.28571428571438 19.64285714287594 0
737 15.17857142857156 19.64285714286823 0
738 16.0714285714296 19.64285714286052 0
739 16.96428571429404 19.64285714285281 0
740 17.85714285714522 19.64285714284509 0
741 18.74999999999516 19.64285714283738 0
742 19.64285714284509 19.64285714282967 0
743 20.53571428569597 19.64285714282197 0
744 21.42857142855677 19.64285714281425 0
745 22.32142857141757 19.64285714280654 0
746 23.21428571427838 19.64285714279884 0
747 24.10714285713919 19.64285714279112 0
748 13.39285714285603 18.75000000003246 0
749 14.28571428571206 18.750000000025 0
750 15.17857142856809 18.75000000001754 0
751 16.07142857142486 18.75000000001008 0
752 16.96428571428724 18.75000000000261 0
753 17.85714285713801 18.74999999999516 0
754 18.7499999999877 18.7499999999877 0
755 19.64285714283738 18.74999999998025 0
756 20.53571428568815 18.74999999997279 0
757 21.42857142855052 18.74999999996533 0
758 22.32142857141289 18.74999999995787 0
759 23.21428571427526 18.74999999995041 0
760 24.10714285713763 18.74999999994295 0
761 13.39285714285487 17.85714285718126 0
762 14.28571428570974 17.85714285717405 0
763 15.17857142856462 17.85714285716685 0
764 16.07142857142012 17.85714285715964 0
765 16.96428571428044 17.85714285715244 0
766 17.85714285713081 17.85714285714523 0
767 18.74999999998024 17.85714285713801 0
768 19.64285714282967 17.85714285713081 0
769 20.53571428568035 17.85714285712361 0
770 21.42857142854428 17.85714285711639 0
771 22.32142857140821 17.85714285710919 0
772 23.21428571427214 17.85714285710198 0
773 24.10714285713607 17.85714285709477 0
774 13.39285714285371 16.96428571432804 0
775 14.28571428570743 16.96428571432124 0
776 15.17857142856114 16.96428571431444 0
777 16.07142857141539 16.96428571430764 0
778 16.96428571427364 16.96428571430084 0
779 17.8571428571236 16.96428571429404 0
780 18.74999999997278 16.96428571428723 0
781 19.64285714282196 16.96428571428043 0
782 20.53571428567254 16.96428571427363 0
783 21.42857142853804 16.96428571426684 0
784 22.32142857140352 16.96428571426003 0
785 23.21428571426901 16.96428571425324 0
786 24.10714285713451 16.96428571424643 0
787 13.39285714285256 16.07142857145329 0
788 14.28571428570511 16.07142857144855 0
789 15.17857142855767 16.07142857144381 0
790 16.07142857141065 16.07142857143907 0
791 16.96428571426684 16.07142857143434 0
792 17.8571428571164 16.0714285714296 0
793 18.74999999996533 16.07142857142486 0
794 19.64285714281425 16.07142857142012 0
795 20.53571428566473 16.07142857141539 0
796 21.42857142853179 16.07142857141065 0
797 22.32142857139883 16.07142857140592 0
798 23.2142857142659 16.07142857140118 0
799 24.10714285713295 16.07142857139644 0
800 13.3928571428514 15.17857142858893 0
801 14.2857142857028 15.17857142858545 0
802 15.1785714285542 15.17857142858198 0
803 16.07142857140591 15.17857142857851 0
804 16.96428571426003 15.17857142857503 0
805 17.85714285710918 15.17857142857156 0
806 18.74999999995787 15.17857142856809 0
807 19.64285714280654 15.17857142856462 0
808 20.53571428565693 15.17857142856115 0
809 21.42857142852555 15.17857142855767 0
810 22.32142857139416 15.1785714285542 0
811 23.21428571426278 15.17857142855073 0
812 24.10714285713139 15.17857142854725 0
813 13.39285714285024 14.28571428572595 0
814 14.28571428570049 14.28571428572363 0
815 15.17857142855072 14.28571428572132 0
816 16.07142857140118 14.285714285719 0
817 16.96428571425324 14.28571428571669 0
818 17.85714285710198 14.28571428571437 0
819 18.74999999995041 14.28571428571206 0
820 19.64285714279883 14.28571428570974 0
821 20.53571428564912 14.28571428570743 0
822 21.42857142851929 14.28571428570512 0
823 22.32142857138946 14.2857142857028 0
824 23.21428571425965 14.28571428570048 0
825 24.10714285712983 14.28571428569817 0
826 13.39285714284909 13.39285714286297 0
827 14.28571428569817 13.39285714286182 0
828 15.17857142854725 13.39285714286066 0
829 16.07142857139644 13.39285714285951 0
830 16.96428571424643 13.39285714285834 0
831 17.85714285709477 13.39285714285719 0
832 18.74999999994295 13.39285714285603 0
833 19.64285714279112 13.39285714285487 0
834 20.53571428564131 13.39285714285371 0
835 21.42857142851306 13.39285714285256 0
836 22.32142857138479 13.3928571428514 0
837 23.21428571425652 13.39285714285024 0
838 24.10714285712827 13.39285714284908 0
839 0.8928571428627764 24.10714285714857 0
840 1.785714285725566 24.10714285714856 0
841 2.678571428588268 24.10714285714856 0
842 3.571428571450971 24.10714285714856 0
843 4.464285714313803 24.10714285714856 0
844 5.35714285717135 24.10714285714856 0
845 6.250000000028387 24.10714285714856 0
846 7.142857142885426 24.10714285714856 0
847 8.035714285741994 24.10714285714856 0
848 8.928571428593596 24.10714285714856 0
849 9.8214285714452 24.10714285714856 0
850 10.7142857142968 24.10714285714856 0
851 11.6071428571484 24.10714285714856 0
852 0.8928571428620673 23.21428571429712 0
853 1.785714285724158 23.21428571429712 0
854 2.678571428586074 23.21428571429712 0
855 3.571428571447994 23.21428571429712 0
856 4.464285714310172 23.21428571429712 0
857 5.357142857167573 23.21428571429712 0
858 6.250000000024508 23.21428571429712 0
859 7.142857142881441 23.21428571429712 0
860 8.035714285737988 23.21428571429712 0
861 8.92857142859039 23.21428571429712 0
862 9.821428571442793 23.21428571429712 0
863 10.71428571429519 23.21428571429712 0
864 11.6071428571476 23.21428571429712 0
865 0.8928571428613582 22.32142857144566 0
866 1.785714285722749 22.32142857144567 0
867 2.678571428583882 22.32142857144567 0
868 3.571428571445017 22.32142857144567 0
869 4.464285714306541 22.32142857144567 0
870 5.357142857163797 22.32142857144567 0
871 6.250000000020628 22.32142857144567 0
872 7.142857142877458 22.32142857144567 0
873 8.035714285733976 22.32142857144567 0
874 8.928571428587178 22.32142857144567 0
875 9.821428571440388 22.32142857144567 0
876 10.71428571429359 22.32142857144567 0
877 11.6071428571468 22.32142857144567 0
878 0.8928571428606491 21.42857142859423 0
879 1.785714285721341 21.42857142859423 0
880 2.67857142858169 21.42857142859422 0
881 3.57142857144204 21.42857142859424 0
882 4.464285714302909 21.42857142859423 0
883 5.357142857160023 21.42857142859423 0
884 6.250000000016749 21.42857142859423 0
885 7.142857142873474 21.42857142859423 0
886 8.035714285729966 21.42857142859423 0
887 8.928571428583975 21.42857142859423 0
888 9.821428571437981 21.42857142859423 0
889 10.71428571429199 21.42857142859423 0
890 11.60714285714599 21.42857142859423 0
891 0.8928571428599399 20.53571428574279 0
892 1.785714285719932 20.5357142857428 0
893 2.678571428579497 20.5357142857428 0
894 3.571428571439063 20.53571428574279 0
895 4.464285714299276 20.5357142857428 0
896 5.357142857156246 20.5357142857428 0
897 6.25000000001287 20.5357142857428 0
898 7.142857142869492 20.5357142857428 0
899 8.035714285725959 20.53571428574279 0
900 8.928571428580762 20.5357142857428 0
901 9.821428571435574 20.5357142857428 0
902 10.71428571429038 20.5357142857428 0
903 11.60714285714519 20.5357142857428 0
904 0.8928571428592309 19.64285714289135 0
905 1.785714285718523 19.64285714289135 0
906 2.678571428577305 19.64285714289136 0
907 3.571428571436087 19.64285714289135 0
908 4.464285714295645 19.64285714289135 0
909 5.357142857152474 19.64285714289135 0
910 6.25000000000899 19.64285714289135 0
911 7.142857142865507 19.64285714289135 0
912 8.035714285721944 19.64285714289135 0
913 8.928571428577559 19.64285714289135 0
914 9.82142857143317 19.64285714289135 0
915 10.71428571428878 19.64285714289135 0
916 11.60714285714439 19.64285714289135 0
917 0.8928571428585216 18.75000000003991 0
918 1.785714285717115 18.75000000003992 0
919 2.678571428575112 18.75000000003992 0
920 3.571428571433109 18.75000000003992 0
921 4.464285714292014 18.75000000003992 0
922 5.357142857148697 18.75000000003991 0
923 6.25000000000511 18.75000000003992 0
924 7.142857142861524 18.75000000003992 0
925 8.035714285717935 18.75000000003992 0
926 8.928571428574344 18.75000000003992 0
927 9.821428571430761 18.75000000003992 0
928 10.71428571428718 18.75000000003992 0
929 11.60714285714359 18.75000000003992 0
930 0.8928571428578125 17.85714285718848 0
931 1.785714285715706 17.85714285718847 0
932 2.678571428572919 17.85714285718847 0
933 3.571428571430133 17.85714285718847 0
934 4.464285714288382 17.85714285718847 0
935 5.357142857144924 17.85714285718847 0
936 6.250000000001231 17.85714285718847 0
937 7.142857142857539 17.85714285718847 0
938 8.035714285713926 17.85714285718847 0
939 8.928571428571141 17.85714285718847 0
940 9.821428571428358 17.85714285718847 0
941 10.71428571428557 17.85714285718847 0
942 11.60714285714279 17.85714285718847 0
943 0.8928571428571033 16.96428571433484 0
944 1.785714285714298 16.96428571433485 0
945 2.678571428570727 16.96428571433484 0
946 3.571428571427155 16.96428571433484 0
947 4.464285714284749 16.96428571433484 0
948 5.357142857141147 16.96428571433484 0
949 6.249999999997351 16.96428571433484 0
950 7.142857142853556 16.96428571433484 0
951 8.035714285709915 16.96428571433484 0
952 8.928571428567935 16.96428571433484 0
953 9.821428571425949 16.96428571433484 0
954 10.71428571428397 16.96428571433484 0
955 11.60714285714199 16.96428571433484 0
956 0.8928571428563943 16.07142857145802 0
957 1.785714285712889 16.07142857145802 0
958 2.678571428568533 16.07142857145802 0
959 3.571428571424179 16.07142857145802 0
960 4.464285714281118 16.07142857145802 0
961 5.357142857137372 16.07142857145802 0
962 6.249999999993472 16.07142857145802 0
963 7.142857142849573 16.07142857145802 0
964 8.035714285705907 16.07142857145802 0
965 8.928571428564725 16.07142857145802 0
966 9.821428571423544 16.07142857145802 0
967 10.71428571428236 16.07142857145802 0
968 11.60714285714118 16.07142857145802 0
969 0.8928571428556851 15.1785714285924 0
970 1.785714285711481 15.1785714285924 0
971 2.678571428566341 15.1785714285924 0
972 3.571428571421202 15.1785714285924 0
973 4.464285714277487 15.1785714285924 0
974 5.357142857133598 15.1785714285924 0
975 6.249999999989592 15.1785714285924 0
976 7.142857142845591 15.1785714285924 0
977 8.035714285701896 15.1785714285924 0
978 8.928571428561519 15.17857142859241 0
979 9.821428571421139 15.1785714285924 0
980 10.71428571428076 15.1785714285924 0
981 11.60714285714038 15.1785714285924 0
982 0.8928571428549761 14.28571428572827 0
983 1.785714285710072 14.28571428572827 0
984 2.678571428564147 14.28571428572827 0
985 3.571428571418225 14.28571428572827 0
986 4.464285714273855 14.28571428572827 0
987 5.357142857129824 14.28571428572827 0
988 6.249999999985714 14.28571428572827 0
989 7.142857142841605 14.28571428572827 0
990 8.035714285697884 14.28571428572827 0
991 8.92857142855831 14.28571428572827 0
992 9.82142857141873 14.28571428572826 0
993 10.71428571427915 14.28571428572827 0
994 11.60714285713958 14.28571428572827 0
995 0.8928571428542668 13.39285714286414 0
996 1.785714285708663 13.39285714286414 0
997 2.678571428561955 13.39285714286414 0
998 3.571428571415247 13.39285714286413 0
999 4.464285714270222 13.39285714286413 0
1000 5.357142857126049 13.39285714286414 0
1001 6.249999999981836 13.39285714286413 0
1002 7.142857142837624 13.39285714286413 0
1003 8.035714285693878 13.39285714286414 0
1004 8.928571428555101 13.39285714286413 0
1005 9.82142857141633 13.39285714286413 0
1006 10.71428571427755 13.39285714286414 0
1007 11.60714285713878 13.39285714286413 0
1008 0.8340478722552082 11.69557494647398 0
1009 1.668080118874236 11.69515736716493 0
1010 2.502081163399016 11.69446286164745 0
1011 3.336035527542151 11.69349361509309 0
1012 4.169927879894875 11.69225267710887 0
1013 5.003743084154286 11.69074395214365 0
1014 5.837466246747244 11.68897218720522 0
1015 6.671082763716741 11.686942956915 0
1016 7.504578366642623 11.68466264597751 0
1017 8.337939167524402 11.68213842910432 0
1018 9.171151702509237 11.67937824841706 0
1019 10.00420297425047 11.67639078846611 0
1020 10.83708049280479 11.67318544889807 0
1021 0.7752386016568892 10.89114989295154 0
1022 1.55044595204128 10.89031473433319 0
1023 2.325590898238362 10.88892572329798 0
1024 3.100642483672153 10.88698723018901 0
1025 3.875570045523311 10.88450535422034 0
1026 4.650343311186484 10.88148790428965 0
1027 5.424932493516744 10.87794437441255 0
1028 6.199308384600088 10.87388591383187 0
1029 6.97344244759566 10.86932529195666 0
1030 7.74730690649722 10.86427685821004 0
1031 8.520874833604895 10.85875649683526 0
1032 9.29412023422536 10.85278157693314 0
1033 10.06701812847201 10.84637089779682 0
1034 0.7164293310585189 10.08672483942522 0
1035 1.43281178520822 10.08547210149783 0
1036 2.149100633077554 10.08338858494513 0
1037 2.865249439801948 10.08048084528181 0
1038 3.581212211151489 10.07675803132891 0
1039 4.29694353821837 10.07223185643301 0
1040 5.012398740285886 10.06691656161748 0
1041 5.72753400548302 10.06082887074657 0
1042 6.442306528548227 10.05398793793388 0
1043 7.156674645469518 10.04641528731407 0
1044 7.870597964699981 10.03813474525202 0
1045 8.584037494199622 10.02917236539896 0
1046 9.296955764138557 10.01955634669459 0
1047 0.6576200604601585 9.282299785900758 0
1048 1.31517761837518 9.280629468664184 0
1049 1.972610367916775 9.277851446593862 0
1050 2.629856395931784 9.273974460376053 0
1051 3.286854376779717 9.269010708438802 0
1052 3.943543765250318 9.262975808577554 0
1053 4.599864987055096 9.255888748823455 0
1054 5.255759626366034 9.247771827662199 0
1055 5.911170609500884 9.238650583911896 0
1056 6.566042384441918 9.228553716418766 0
1057 7.220321095795176 9.217512993669311 0
1058 7.873954754174009 9.20556315386518 0
1059 8.526893399805232 9.192741795592637 0
1060 0.5988107898617523 8.47787473237703 0
1061 1.197543451542048 8.475786835831165 0
1062 1.796120102755859 8.472314308243124 0
1063 2.394463352061436 8.467468075470716 0
1064 2.992496542407717 8.46126338554901 0
1065 3.590143992281989 8.453719760722304 0
1066 4.187331233823985 8.444860936029539 0
1067 4.783985247248681 8.434714784577823 0
1068 5.380034690453132 8.423313229889798 0
1069 5.975410123413861 8.410692145523239 0
1070 6.570044226889872 8.39689124208628 0
1071 7.163872014147847 8.38195394233097 0
1072 7.756831035471311 8.365927244490152 0
1073 0.5400015192633937 7.67344967885241 0
1074 1.079909284709013 7.670944202997379 0
1075 1.619629837595086 7.666777169891732 0
1076 2.159070308191279 7.66096169056485 0
1077 2.698138708035954 7.653516062658806 0
1078 3.236744219313949 7.644463712866761 0
1079 3.77479748059321 7.633833123235447 0
1080 4.312210868131709 7.621657741493394 0
1081 4.848898771405808 7.607975875867771 0
1082 5.384777862386279 7.592830574627905 0
1083 5.91976735798509 7.576269490503559 0
1084 6.453789274122259 7.558344730797193 0
1085 6.986768671138014 7.53911269338821 0
1086 0.4811922486650475 6.869024625327317 0
1087 0.962275117876001 6.86610157016317 0
1088 1.443139572434349 6.861240031539968 0
1089 1.923677264321171 6.854455305658662 0
1090 2.403780873664253 6.845768739768328 0
1091 2.88334444634598 6.835207665010998 0
1092 3.36226372736252 6.822805310441184 0
1093 3.840436489014835 6.80860069840884 0
1094 4.317762852358593 6.792638521845666 0
1095 4.794145601358822 6.774969003732545 0
1096 5.269490489080443 6.75564773892086 0
1097 5.743706534096814 6.734735519263487 0
1098 6.216706306804872 6.712298142286393 0
1099 0.4223829780670144 6.064599571798782 0
1100 0.8446409510436156 6.061258937326117 0
1101 1.266649307274553 6.05570289318596 0
1102 1.688284220452315 6.047948920750827 0
1103 2.109423039294118 6.038021416876811 0
1104 2.529944673379893 6.025951617154795 0
1105 2.949729974134022 6.011777497647084 0
1106 3.368662109900468 5.995543655325054 0
1107 3.786626933314199 5.977301167824932 0
1108 4.203513340334497 5.957107432839159 0
1109 4.619213620179245 5.935025987340738 0
1110 5.033623794075135 5.911126307732962 0
1111 5.446643942475809 5.885483591188362 0
1112 0.3635737074689689 5.260174518270462 0
1113 0.7270067842112055 5.256416304489251 0
1114 1.090159042114719 5.250165754832112 0
1115 1.452891176583412 5.241442535843125 0
1116 1.815065204923922 5.230274093985391 0
1117 2.176544900413729 5.216695569298661 0
1118 2.537196220905436 5.200749684853022 0
1119 2.896887730786002 5.182486612241279 0
1120 3.255491014269694 5.161963813804178 0
1121 3.612881079310047 5.139245861945718 0
1122 3.968936751277909 5.114404235760535 0
1123 4.323541054053305 5.087517096202323 0
1124 4.676581578146585 5.058669040090189 0
1125 0.304764436870948 4.455749464741713 0
1126 0.609372617378845 4.451573671652012 0
1127 0.9136687769549596 4.444628616477951 0
1128 1.217498132714606 4.434936150935166 0
1129 1.520707370553848 4.422526771093777 0
1130 1.823145127447715 4.407439521442392 0
1131 2.124662467677027 4.389721872058889 0
1132 2.425113351671734 4.369429569157488 0
1133 2.724355095225413 4.346626459783471 0
1134 3.022248818285846 4.321384291052386 0
1135 3.318659882376847 4.2937824841805 0
1136 3.613458314031774 4.263907884671915 0
1137 3.906519213817681 4.231854488992303 0
1138 0.2459551662729023 3.651324411213646 0
1139 0.4917384505464346 3.646731038815379 0
1140 0.7371785117951251 3.639091478124315 0
1141 0.9821050888457004 3.628429766027657 0
1142 1.226349536183651 3.614779448202531 0
1143 1.469745354481551 3.598183473586412 0
1144 1.712128714448441 3.578694059264961 0
1145 1.953338972557267 3.556372526073825 0
1146 2.193219176180905 3.531289105762811 0
1147 2.431616557261396 3.503522720159023 0
1148 2.66838301347551 3.473160732600354 0
1149 2.903375574009942 3.440298673141314 0
1150 3.136456849488454 3.405039937894146 0
1151 0.1871458956748609 2.846899357685583 0
1152 0.3741042837140326 2.841888405978753 0
1153 0.5606882466353034 2.833554339770691 0
1154 0.7467120449768122 2.821923381120164 0
1155 0.9319917018134742 2.807032125311307 0
1156 1.116345581515413 2.788927425730457 0
1157 1.299594961219886 2.767666246471065 0
1158 1.481564593442833 2.743315482990196 0
1159 1.662083257136437 2.71595175174219 0
1160 1.840984296236989 2.685661149265702 0
1161 2.018106144574221 2.652538981020254 0
1162 2.193292833988163 2.616689461610765 0
1163 2.366394485159283 2.578225386796045 0
1164 0.1283366250767814 2.042474304155556 0
1165 0.2564701168815545 2.037045773140276 0
1166 0.3841979814753675 2.028017201415325 0
1167 0.5113190011077712 2.015416996211037 0
1168 0.6376338674431068 1.999284802418561 0
1169 0.7629458085490453 1.979671377873091 0
1170 0.8870612079910623 1.956638433675867 0
1171 1.009790214328093 1.930258439905376 0
1172 1.130947338091623 1.900614397720486 0
1173 1.250352035212198 1.867799578371407 0
1174 1.367829275672506 1.831917229439287 0
1175 1.483210093965921 1.793080250079458 0
1176 1.596332120829609 1.751410835697294 0
1177 0.06380015880688571 1.136067083093137 0
1178 0.1273995785887522 1.130702536004427 0
1179 0.1905981521290944 1.121780380447217 0
1180 0.2531970333434218 1.109328688828207 0
1181 0.3149992630741094 1.093386638757707 0
1182 0.3758103886510305 1.07400438981084 0
1183 0.4354390757182651 1.051242925725782 0
1184 0.4936977105462365 1.025173862401968 0
1185 0.5504029899457854 0.9958792227019257 0
1186 0.6053764978647826 0.9634511785158143 0
1187 0.6584452672774468 0.9279917604970226 0
1188 0.7094423242248828 0.8896125370905714 0
1189 0.7582072132026515 0.8484342634510322 0
1190 0.05807296313507721 1.034084915558844 0
1191 0.1159632071284434 1.029201931705309 0
1192 0.1734885879427802 1.021080697832885 0
1193 0.2304681094481438 1.009746766353069 0
1194 0.2867224930755172 0.995235797988318 0
1195 0.3420747417194284 0.9775934496048303 0
1196 0.3963506966743436 0.9568752305699247 0
1197 0.4493795858791787 0.9331463279825634 0
1198 0.5009945608448269 0.9064814017044054 0
1199 0.5510332215422323 0.8769643495540046 0
1200 0.5993381277841798 0.8446880431353652 0
1201 0.6457572945061733 0.8097540356327854 0
1202 0.6901446699054584 0.7722722423034667 0
1203 0.05234576746327454 0.9321027480245465 0
1204 0.1045268356681461 0.9277013274061945 0
1205 0.1563790237564834 0.9203810152185621 0
1206 0.2077391855528888 0.9101648438779464 0
1207 0.2584457230769537 0.8970849572189526 0
1208 0.3083390947878606 0.8811825093988497 0
1209 0.3572623176304622 0.8625075354141034 0
1210 0.4050614612121665 0.8411187935632001 0
1211 0.4515861317439195 0.8170835807069337 0
1212 0.4966899452197385 0.7904775205922492 0
1213 0.5402309882909746 0.7613843257737676 0
1214 0.5820722647875305 0.729895534175065 0
1215 0.6220821266083379 0.6961102211559729 0
1216 0.0466185717914885 0.8301205804900531 0
1217 0.09309046420788204 0.8262007231069181 0
1218 0.1392694595702365 0.8196813326041107 0
1219 0.1850102616577002 0.8105829214027285 0
1220 0.2301689530784733 0.7989341164495246 0
1221 0.2746034478563925 0.7847715691928395 0
1222 0.3181739385866968 0.7681398402582853 0
1223 0.3607433365452869 0.7490912591438735 0
1224 0.4021777026431611 0.7276857597095299 0
1225 0.4423466688974097 0.7039906916305947 0
1226 0.4811238487979508 0.6780806084123038 0
1227 0.5183872350690852 0.6500370327175102 0
1228 0.5540195833114305 0.6199482000086765 0
1229 0.04089137611971125 0.7281384129552164 0
1230 0.0816540927476356 0.7247001188073326 0
1231 0.1221598953840159 0.7189816499893856 0
1232 0.1622813377625471 0.7110009989272724 0
1233 0.2018921830800371 0.7007832756798937 0
1234 0.2408678009249775 0.6883606289866624 0
1235 0.2790855595429939 0.6737721451023364 0
1236 0.3164252118784788 0.6570637247244525 0
1237 0.3527692735424839 0.6382879387120695 0
1238 0.3880033925751714 0.6175038626689199 0
1239 0.4220167093050273 0.5947768910508566 0
1240 0.4547022053507504 0.5701785312600102 0
1241 0.4859570400146433 0.5437861788614724 0
1242 0.03516418044793624 0.6261562454204805 0
1243 0.07021772128739369 0.6231995145078433 0
1244 0.1050503311978021 0.6182819673747521 0
1245 0.1395524138674027 0.6114190764519029 0
1246 0.1736154130816119 0.602632434910345 0
1247 0.2071321539935758 0.5919496887805619 0
1248 0.239997180499306 0.5794044499464583 0
1249 0.2721070872116876 0.5650361903050967 0
1250 0.3033608444418253 0.5488901177146676 0
1251 0.3336601162529538 0.531017033707298 0
1252 0.3629095698121259 0.5114731736894562 0
1253 0.3910171756324389 0.49032002980255 0
1254 0.4178944967178814 0.4676241577143013 0
$EndNodes
$Elements
1358
1 1 2 3 1 1 15
2 1 2 3 1 15 16
3 1 2 3 1 16 17
4 1 2 3 1 17 18
5 1 2 3 1 18 19
6 1 2 3 1 19 20
7 1 2 3 1 20 12
8 1 2 3 2 12 21
9 1 2 3 2 21 22
10 1 2 3 2 22 23
11 1 2 3 2 23 24
12 1 2 3 2 24 25
13 1 2 3 2 25 26
14 1 2 3 2 26 27
15 1 2 3 2 27 28
16 1 2 3 2 28 29
17 1 2 3 2 29 30
18 1 2 3 2 30 31
19 1 2 3 2 31 32
20 1 2 3 2 32 33
21 1 2 3 2 33 6
22 1 2 3 3 6 34
23 1 2 3 3 34 35
24 1 2 3 3 35 36
25 1 2 3 3 36 37
26 1 2 3 3 37 38
27 1 2 3 3 38 39
28 1 2 3 3 39 40
29 1 2 3 3 40 41
30 1 2 3 3 41 42
31 1 2 3 3 42 43
32 1 2 3 3 43 44
33 1 2 3 3 44 45
34 1 2 3 3 45 46
35 1 2 3 3 46 2
36 1 2 5 4 2 47
37 1 2 5 4 47 48
38 1 2 5 4 48 49
39 1 2 5 4 49 50
40 1 2 5 4 50 51
41 1 2 5 4 51 52
42 1 2 5 4 52 53
43 1 2 5 4 53 54
44 1 2 5 4 54 55
45 1 2 5 4 55 56
46 1 2 5 4 56 57
47 1 2 5 4 57 58
48 1 2 5 4 58 59
49 1 2 5 4 59 9
50 1 2 5 5 9 60
51 1 2 5 5 60 61
52 1 2 5 5 61 62
53 1 2 5 5 62 63
54 1 2 5 5 63 64
55 1 2 5 5 64 65
56 1 2 5 5 65 66
57 1 2 5 5 66 67
58 1 2 5 5 67 68
59 1 2 5 5 68 69
60 1 2 5 5 69 70
61 1 2 5 5 70 71
62 1 2 5 5 71 72
63 1 2 5 5 72 3
64 1 2 6 6 3 73
65 1 2 6 6 73 74
66 1 2 6 6 74 75
67 1 2 6 6 75 76
68 1 2 6 6 76 77
69 1 2 6 6 77 78
70 1 2 6 6 78 79
71 1 2 6 6 79 80
72 1 2 6 6 80 81
73 1 2 6 6 81 82
74 1 2 6 6 82 83
75 1 2 6 6 83 84
76 1 2 6 6 84 85
77 1 2 6 6 85 10
78 1 2 6 7 10 86
79 1 2 6 7 86 87
80 1 2 6 7 87 88
81 1 2 6 7 88 89
82 1 2 6 7 89 90
83 1 2 6 7 90 91
84 1 2 6 7 91 92
85 1 2 6 7 92 93
86 1 2 6 7 93 94
87 1 2 6 7 94 95
88 1 2 6 7 95 96
89 1 2 6 7 96 97
90 1 2 6 7 97 98
91 1 2 6 7 98 4
92 1 2 4 8 4 99
93 1 2 4 8 99 100
94 1 2 4 8 100 101
95 1 2 4 8 101 102
96 1 2 4 8 102 103
97 1 2 4 8 103 104
98 1 2 4 8 104 105
99 1 2 4 8 105 106
100 1 2 4 8 106 107
101 1 2 4 8 107 108
102 1 2 4 8 108 109
103 1 2 4 8 109 110
104 1 2 4 8 110 111
105 1 2 4 8 111 8
106 1 2 4 9 8 112
107 1 2 4 9 112 113
108 1 2 4 9 113 114
109 1 2 4 9 114 115
110 1 2 4 9 115 116
111 1 2 4 9 116 117
112 1 2 4 9 117 118
113 1 2 4 9 118 119
114 1 2 4 9 119 120
115 1 2 4 9 120 121
116 1 2 4 9 121 122
117 1 2 4 9 122 123
118 1 2 4 9 123 124
119 1 2 4 9 124 13
120 1 2 4 10 13 125
121 1 2 4 10 125 126
122 1 2 4 10 126 127
123 1 2 4 10 127 128
124 1 2 4 10 128 129
125 1 2 4 10 129 130
126 1 2 4 10 130 5
127 1 2 7 17 1 202
128 1 2 7 17 202 203
129 1 2 7 17 203 204
130 1 2 7 17 204 205
131 1 2 7 17 205 206
132 1 2 7 17 206 207
133 1 2 7 17 207 208
134 1 2 7 17 208 209
135 1 2 7 17 209 210
136 1 2 7 17 210 211
137 1 2 7 17 211 212
138 1 2 7 17 212 213
139 1 2 7 17 213 214
140 1 2 7 17 214 11
141 1 2 7 18 11 215
142 1 2 7 18 215 216
143 1 2 7 18 216 217
144 1 2 7 18 217 218
145 1 2 7 18 218 219
146 1 2 7 18 219 220
147 1 2 7 18 220 221
148 1 2 7 18 221 222
149 1 2 7 18 222 223
150 1 2 7 18 223 224
151 1 2 7 18 224 225
152 1 2 7 18 225 226
153 1 2 7 18 226 227
154 1 2 7 18 227 5
155 1 2 8 19 12 228
156 1 2 8 19 228 229
157 1 2 8 19 229 230
158 1 2 8 19 230 231
159 1 2 8 19 231 232
160 1 2 8 19 232 233
161 1 2 8 19 233 234
162 1 2 8 19 234 235
163 1 2 8 19 235 236
164 1 2 8 19 236 237
165 1 2 8 19 237 238
166 1 2 8 19 238 239
167 1 2 8 19 239 240
168 1 2 8 19 240 14
169 1 2 8 20 14 241
170 1 2 8 20 241 242
171 1 2 8 20 242 243
172 1 2 8 20 243 244
173 1 2 8 20 244 245
174 1 2 8 20 245 246
175 1 2 8 20 246 247
176 1 2 8 20 247 248
177 1 2 8 20 248 249
178 1 2 8 20 249 250
179 1 2 8 20 250 251
180 1 2 8 20 251 252
181 1 2 8 20 252 253
182 1 2 8 20 253 13
183 3 2 1 1 1 15 254 202
184 3 2 1 1 15 16 255 254
185 3 2 1 1 16 17 256 255
186 3 2 1 1 17 18 257 256
187 3 2 1 1 18 19 258 257
188 3 2 1 1 19 20 259 258
189 3 2 1 1 20 12 228 259
190 3 2 1 1 202 254 260 203
191 3 2 1 1 254 255 261 260
192 3 2 1 1 255 256 262 261
193 3 2 1 1 256 257 263 262
194 3 2 1 1 257 258 264 263
195 3 2 1 1 258 259 265 264
196 3 2 1 1 259 228 229 265
197 3 2 1 1 203 260 266 204
198 3 2 1 1 260 261 267 266
199 3 2 1 1 261 262 268 267
200 3 2 1 1 262 263 269 268
201 3 2 1 1 263 264 270 269
202 3 2 1 1 264 265 271 270
203 3 2 1 1 265 229 230 271
204 3 2 1 1 204 266 272 205
205 3 2 1 1 266 267 273 272
206 3 2 1 1 267 268 274 273
207 3 2 1 1 268 269 275 274
208 3 2 1 1 269 270 276 275
209 3 2 1 1 270 271 277 276
210 3 2 1 1 271 230 231 277
211 3 2 1 1 205 272 278 206
212 3 2 1 1 272 273 279 278
213 3 2 1 1 273 274 280 279
214 3 2 1 1 274 275 281 280
215 3 2 1 1 275 276 282 281
216 3 2 1 1 276 277 283 282
217 3 2 1 1 277 231 232 283
218 3 2 1 1 206 278 284 207
219 3 2 1 1 278 279 285 284
220 3 2 1 1 279 280 286 285
221 3 2 1 1 280 281 287 286
222 3 2 1 1 281 282 288 287
223 3 2 1 1 282 283 289 288
224 3 2 1 1 283 232 233 289
225 3 2 1 1 207 284 290 208
226 3 2 1 1 284 285 291 290
227 3 2 1 1 285 286 292 291
228 3 2 1 1 286 287 293 292
229 3 2 1 1 287 288 294 293
230 3 2 1 1 288 289 295 294
231 3 2 1 1 289 233 234 295
232 3 2 1 1 208 290 296 209
233 3 2 1 1 290 291 297 296
234 3 2 1 1 291 292 298 297
235 3 2 1 1 292 293 299 298
236 3 2 1 1 293 294 300 299
237 3 2 1 1 294 295 301 300
238 3 2 1 1 295 234 235 301
239 3 2 1 1 209 296 302 210
240 3 2 1 1 296 297 303 302
241 3 2 1 1 297 298 304 303
242 3 2 1 1 298 299 305 304
243 3 2 1 1 299 300 306 305
244 3 2 1 1 300 301 307 306
245 3 2 1 1 301 235 236 307
246 3 2 1 1 210 302 308 211
247 3 2 1 1 302 303 309 308
248 3 2 1 1 303 304 310 309
249 3 2 1 1 304 305 311 310
250 3 2 1 1 305 306 312 311
251 3 2 1 1 306 307 313 312
252 3 2 1 1 307 236 237 313
253 3 2 1 1 211 308 314 212
254 3 2 1 1 308 309 315 314
255 3 2 1 1 309 310 316 315
256 3 2 1 1 310 311 317 316
257 3 2 1 1 311 312 318 317
258 3 2 1 1 312 313 319 318
259 3 2 1 1 313 237 238 319
260 3 2 1 1 212 314 320 213
261 3 2 1 1 314 315 321 320
262 3 2 1 1 315 316 322 321
263 3 2 1 1 316 317 323 322
264 3 2 1 1 317 318 324 323
265 3 2 1 1 318 319 325 324
266 3 2 1 1 319 238 239 325
267 3 2 1 1 213 320 326 214
268 3 2 1 1 320 321 327 326
269 3 2 1 1 321 322 328 327
270 3 2 1 1 322 323 329 328
271 3 2 1 1 323 324 330 329
272 3 2 1 1 324 325 331 330
273 3 2 1 1 325 239 240 331
274 3 2 1 1 214 326 183 11
275 3 2 1 1 326 327 184 183
276 3 2 1 1 327 328 185 184
277 3 2 1 1 328 329 186 185
278 3 2 1 1 329 330 187 186
279 3 2 1 1 330 331 188 187
280 3 2 1 1 331 240 14 188
281 3 2 2 2 12 21 332 228
282 3 2 2 2 21 22 333 332
283 3 2 2 2 22 23 334 333
284 3 2 2 2 23 24 335 334
285 3 2 2 2 24 25 336 335
286 3 2 2 2 25 26 337 336
287 3 2 2 2 26 27 338 337
288 3 2 2 2 27 28 339 338
289 3 2 2 2 28 29 340 339
290 3 2 2 2 29 30 341 340
291 3 2 2 2 30 31 342 341
292 3 2 2 2 31 32 343 342
293 3 2 2 2 32 33 344 343
294 3 2 2 2 33 6 131 344
295 3 2 2 2 228 332 345 229
296 3 2 2 2 332 333 346 345
297 3 2 2 2 333 334 347 346
298 3 2 2 2 334 335 348 347
299 3 2 2 2 335 336 349 348
300 3 2 2 2 336 337 350 349
301 3 2 2 2 337 338 351 350
302 3 2 2 2 338 339 352 351
303 3 2 2 2 339 340 353 352
304 3 2 2 2 340 341 354 353
305 3 2 2 2 341 342 355 354
306 3 2 2 2 342 343 356 355
307 3 2 2 2 343 344 357 356
308 3 2 2 2 344 131 132 357
309 3 2 2 2 229 345 358 230
310 3 2 2 2 345 346 359 358
311 3 2 2 2 346 347 360 359
312 3 2 2 2 347 348 361 360
313 3 2 2 2 348 349 362 361
314 3 2 2 2 349 350 363 362
315 3 2 2 2 350 351 364 363
316 3 2 2 2 351 352 365 364
317 3 2 2 2 352 353 366 365
318 3 2 2 2 353 354 367 366
319 3 2 2 2 354 355 368 367
320 3 2 2 2 355 356 369 368
321 3 2 2 2 356 357 370 369
322 3 2 2 2 357 132 133 370
323 3 2 2 2 230 358 371 231
324 3 2 2 2 358 359 372 371
325 3 2 2 2 359 360 373 372
326 3 2 2 2 360 361 374 373
327 3 2 2 2 361 362 375 374
328 3 2 2 2 362 363 376 375
329 3 2 2 2 363 364 377 376
330 3 2 2 2 364 365 378 377
331 3 2 2 2 365 366 379 378
332 3 2 2 2 366 367 380 379
333 3 2 2 2 367 368 381 380
334 3 2 2 2 368 369 382 381
335 3 2 2 2 369 370 383 382
336 3 2 2 2 370 133 134 383
337 3 2 2 2 231 371 384 232
338 3 2 2 2 371 372 385 384
339 3 2 2 2 372 373 386 385
340 3 2 2 2 373 374 387 386
341 3 2 2 2 374 375 388 387
342 3 2 2 2 375 376 389 388
343 3 2 2 2 376 377 390 389
344 3 2 2 2 377 378 391 390
345 3 2 2 2 378 379 392 391
346 3 2 2 2 379 380 393 392
347 3 2 2 2 380 381 394 393
348 3 2 2 2 381 382 395 394
349 3 2 2 2 382 383 396 395
350 3 2 2 2 383 134 135 396
351 3 2 2 2 232 384 397 233
352 3 2 2 2 384 385 398 397
353 3 2 2 2 385 386 399 398
354 3 2 2 2 386 387 400 399
355 3 2 2 2 387 388 401 400
356 3 2 2 2 388 389 402 401
357 3 2 2 2 389 390 403 402
358 3 2 2 2 390 391 404 403
359 3 2 2 2 391 392 405 404
360 3 2 2 2 392 393 406 405
361 3 2 2 2 393 394 407 406
362 3 2 2 2 394 395 408 407
363 3 2 2 2 395 396 409 408
364 3 2 2 2 396 135 136 409
365 3 2 2 2 233 397 410 234
366 3 2 2 2 397 398 411 410
367 3 2 2 2 398 399 412 411
368 3 2 2 2 399 400 413 412
369 3 2 2 2 400 401 414 413
370 3 2 2 2 401 402 415 414
371 3 2 2 2 402 403 416 415
372 3 2 2 2 403 404 417 416
373 3 2 2 2 404 405 418 417
374 3 2 2 2 405 406 419 418
375 3 2 2 2 406 407 420 419
376 3 2 2 2 407 408 421 420
377 3 2 2 2 408 409 422 421
378 3 2 2 2 409 136 137 422
379 3 2 2 2 234 410 423 235
380 3 2 2 2 410 411 424 423
381 3 2 2 2 411 412 425 424
382 3 2 2 2 412 413 426 425
383 3 2 2 2 413 414 427 426
384 3 2 2 2 414 415 428 427
385 3 2 2 2 415 416 429 428
386 3 2 2 2 416 417 430 429
387 3 2 2 2 417 418 431 430
388 3 2 2 2 418 419 432 431
389 3 2 2 2 419 420 433 432
390 3 2 2 2 420 421 434 433
391 3 2 2 2 421 422 435 434
392 3 2 2 2 422 137 138 435
393 3 2 2 2 235 423 436 236
394 3 2 2 2 423 424 437 436
395 3 2 2 2 424 425 438 437
396 3 2 2 2 425 426 439 438
397 3 2 2 2 426 427 440 439
398 3 2 2 2 427 428 441 440
399 3 2 2 2 428 429 442 441
400 3 2 2 2 429 430 443 442
401 3 2 2 2 430 431 444 443
402 3 2 2 2 431 432 445 444
403 3 2 2 2 432 433 446 445
404 3 2 2 2 433 434 447 446
405 3 2 2 2 434 435 448 447
406 3 2 2 2 435 138 139 448
407 3 2 2 2 236 436 449 237
408 3 2 2 2 436 437 450 449
409 3 2 2 2 437 438 451 450
410 3 2 2 2 438 439 452 451
411 3 2 2 2 439 440 453 452
412 3 2 2 2 440 441 454 453
413 3 2 2 2 441 442 455 454
414 3 2 2 2 442 443 456 455
415 3 2 2 2 443 444 457 456
416 3 2 2 2 444 445 458 457
417 3 2 2 2 445 446 459 458
418 3 2 2 2 446 447 460 459
419 3 2 2 2 447 448 461 460
420 3 2 2 2 448 139 140 461
421 3 2 2 2 237 449 462 238
422 3 2 2 2 449 450 463 462
423 3 2 2 2 450 451 464 463
424 3 2 2 2 451 452 465 464
425 3 2 2 2 452 453 466 465
426 3 2 2 2 453 454 467 466
427 3 2 2 2 454 455 468 467
428 3 2 2 2 455 456 469 468
429 3 2 2 2 456 457 470 469
430 3 2 2 2 457 458 471 470
431 3 2 2 2 458 459 472 471
432 3 2 2 2 459 460 473 472
433 3 2 2 2 460 461 474 473
434 3 2 2 2 461 140 141 474
435 3 2 2 2 238 462 475 239
436 3 2 2 2 462 463 476 475
437 3 2 2 2 463 464 477 476
438 3 2 2 2 464 465 478 477
439 3 2 2 2 465 466 479 478
440 3 2 2 2 466 467 480 479
441 3 2 2 2 467 468 481 480
442 3 2 2 2 468 469 482 481
443 3 2 2 2 469 470 483 482
444 3 2 2 2 470 471 484 483
445 3 2 2 2 471 472 485 484
446 3 2 2 2 472 473 486 485
447 3 2 2 2 473 474 487 486
448 3 2 2 2 474 141 142 487
449 3 2 2 2 239 475 488 240
450 3 2 2 2 475 476 489 488
451 3 2 2 2 476 477 490 489
452 3 2 2 2 477 478 491 490
453 3 2 2 2 478 479 492 491
454 3 2 2 2 479 480 493 492
455 3 2 2 2 480 481 494 493
456 3 2 2 2 481 482 495 494
457 3 2 2 2 482 483 496 495
458 3 2 2 2 483 484 497 496
459 3 2 2 2 484 485 498 497
460 3 2 2 2 485 486 499 498
461 3 2 2 2 486 487 500 499
462 3 2 2 2 487 142 143 500
463 3 2 2 2 240 488 189 14
464 3 2 2 2 488 489 190 189
465 3 2 2 2 489 490 191 190
466 3 2 2 2 490 491 192 191
467 3 2 2 2 491 492 193 192
468 3 2 2 2 492 493 194 193
469 3 2 2 2 493 494 195 194
470 3 2 2 2 494 495 196 195
471 3 2 2 2 495 496 197 196
472 3 2 2 2 496 497 198 197
473 3 2 2 2 497 498 199 198
474 3 2 2 2 498 499 200 199
475 3 2 2 2 499 500 201 200
476 3 2 2 2 500 143 7 201
477 3 2 2 3 6 34 501 131
478 3 2 2 3 34 35 502 501
479 3 2 2 3 35 36 503 502
480 3 2 2 3 36 37 504 503
481 3 2 2 3 37 38 505 504
482 3 2 2 3 38 39 506 505
483 3 2 2 3 39 40 507 506
484 3 2 2 3 40 41 508 507
485 3 2 2 3 41 42 509 508
486 3 2 2 3 42 43 510 509
487 3 2 2 3 43 44 511 510
488 3 2 2 3 44 45 512 511
489 3 2 2 3 45 46 513 512
490 3 2 2 3 46 2 47 513
491 3 2 2 3 131 501 514 132
492 3 2 2 3 501 502 515 514
493 3 2 2 3 502 503 516 515
494 3 2 2 3 503 504 517 516
495 3 2 2 3 504 505 518 517
496 3 2 2 3 505 506 519 518
497 3 2 2 3 506 507 520 519
498 3 2 2 3 507 508 521 520
499 3 2 2 3 508 509 522 521
500 3 2 2 3 509 510 523 522
501 3 2 2 3 510 511 524 523
502 3 2 2 3 511 512 525 524
503 3 2 2 3 512 513 526 525
504 3 2 2 3 513 47 48 526
505 3 2 2 3 132 514 527 133
506 3 2 2 3 514 515 528 527
507 3 2 2 3 515 516 529 528
508 3 2 2 3 516 517 530 529
509 3 2 2 3 517 518 531 530
510 3 2 2 3 518 519 532 531
511 3 2 2 3 519 520 533 532
512 3 2 2 3 520 521 534 533
513 3 2 2 3 521 522 535 534
514 3 2 2 3 522 523 536 535
515 3 2 2 3 523 524 537 536
516 3 2 2 3 524 525 538 537
517 3 2 2 3 525 526 539 538
518 3 2 2 3 526 48 49 539
519 3 2 2 3 133 527 540 134
520 3 2 2 3 527 528 541 540
521 3 2 2 3 528 529 542 541
522 3 2 2 3 529 530 543 542
523 3 2 2 3 530 531 544 543
524 3 2 2 3 531 532 545 544
525 3 2 2 3 532 533 546 545
526 3 2 2 3 533 534 547 546
527 3 2 2 3 534 535 548 547
528 3 2 2 3 535 536 549 548
529 3 2 2 3 536 537 550 549
530 3 2 2 3 537 538 551 550
531 3 2 2 3 538 539 552 551
532 3 2 2 3 539 49 50 552
533 3 2 2 3 134 540 553 135
534 3 2 2 3 540 541 554 553
535 3 2 2 3 541 542 555 554
536 3 2 2 3 542 543 556 555
537 3 2 2 3 543 544 557 556
538 3 2 2 3 544 545 558 557
539 3 2 2 3 545 546 559 558
540 3 2 2 3 546 547 560 559
541 3 2 2 3 547 548 561 560
542 3 2 2 3 548 549 562 561
543 3 2 2 3 549 550 563 562
544 3 2 2 3 550 551 564 563
545 3 2 2 3 551 552 565 564
546 3 2 2 3 552 50 51 565
547 3 2 2 3 135 553 566 136
548 3 2 2 3 553 554 567 566
549 3 2 2 3 554 555 568 567
550 3 2 2 3 555 556 569 568
551 3 2 2 3 556 557 570 569
552 3 2 2 3 557 558 571 570
553 3 2 2 3 558 559 572 571
554 3 2 2 3 559 560 573 572
555 3 2 2 3 560 561 574 573
556 3 2 2 3 561 562 575 574
557 3 2 2 3 562 563 576 575
558 3 2 2 3 563 564 577 576
559 3 2 2 3 564 565 578 577
560 3 2 2 3 565 51 52 578
561 3 2 2 3 136 566 579 137
562 3 2 2 3 566 567 580 579
563 3 2 2 3 567 568 581 580
564 3 2 2 3 568 569 582 581
565 3 2 2 3 569 570 583 582
566 3 2 2 3 570 571 584 583
567 3 2 2 3 571 572 585 584
568 3 2 2 3 572 573 586 585
569 3 2 2 3 573 574 587 586
570 3 2 2 3 574 575 588 587
571 3 2 2 3 575 576 589 588
572 3 2 2 3 576 577 590 589
573 3 2 2 3 577 578 591 590
574 3 2 2 3 578 52 53 591
575 3 2 2 3 137 579 592 138
576 3 2 2 3 579 580 593 592
577 3 2 2 3 580 581 594 593
578 3 2 2 3 581 582 595 594
579 3 2 2 3 582 583 596 595
580 3 2 2 3 583 584 597 596
581 3 2 2 3 584 585 598 597
582 3 2 2 3 585 586 599 598
583 3 2 2 3 586 587 600 599
584 3 2 2 3 587 588 601 600
585 3 2 2 3 588 589 602 601
586 3 2 2 3 589 590 603 602
587 3 2 2 3 590 591 604 603
588 3 2 2 3 591 53 54 604
589 3 2 2 3 138 592 605 139
590 3 2 2 3 592 593 606 605
591 3 2 2 3 593 594 607 606
592 3 2 2 3 594 595 608 607
593 3 2 2 3 595 596 609 608
594 3 2 2 3 596 597 610 609
595 3 2 2 3 597 598 611 610
596 3 2 2 3 598 599 612 611
597 3 2 2 3 599 600 613 612
598 3 2 2 3 600 601 614 613
599 3 2 2 3 601 602 615 614
600 3 2 2 3 602 603 616 615
601 3 2 2 3 603 604 617 616
602 3 2 2 3 604 54 55 617
603 3 2 2 3 139 605 618 140
604 3 2 2 3 605 606 619 618
605 3 2 2 3 606 607 620 619
606 3 2 2 3 607 608 621 620
607 3 2 2 3 608 609 622 621
608 3 2 2 3 609 610 623 622
609 3 2 2 3 610 611 624 623
610 3 2 2 3 611 612 625 624
611 3 2 2 3 612 613 626 625
612 3 2 2 3 613 614 627 626
613 3 2 2 3 614 615 628 627
614 3 2 2 3 615 616 629 628
615 3 2 2 3 616 617 630 629
616 3 2 2 3 617 55 56 630
617 3 2 2 3 140 618 631 141
618 3 2 2 3 618 619 632 631
619 3 2 2 3 619 620 633 632
620 3 2 2 3 620 621 634 633
621 3 2 2 3 621 622 635 634
622 3 2 2 3 622 623 636 635
623 3 2 2 3 623 624 637 636
624 3 2 2 3 624 625 638 637
625 3 2 2 3 625 626 639 638
626 3 2 2 3 626 627 640 639
627 3 2 2 3 627 628 641 640
628 3 2 2 3 628 629 642 641
629 3 2 2 3 629 630 643 642
630 3 2 2 3 630 56 57 643
631 3 2 2 3 141 631 644 142
632 3 2 2 3 631 632 645 644
633 3 2 2 3 632 633 646 645
634 3 2 2 3 633 634 647 646
635 3 2 2 3 634 635 648 647
636 3 2 2 3 635 636 649 648
637 3 2 2 3 636 637 650 649
638 3 2 2 3 637 638 651 650
639 3 2 2 3 638 639 652 651
640 3 2 2 3 639 640 653 652
641 3 2 2 3 640 641 654 653
642 3 2 2 3 641 642 655 654
643 3 2 2 3 642 643 656 655
644 3 2 2 3 643 57 58 656
645 3 2 2 3 142 644 657 143
646 3 2 2 3 644 645 658 657
647 3 2 2 3 645 646 659 658
648 3 2 2 3 646 647 660 659
649 3 2 2 3 647 648 661 660
650 3 2 2 3 648 649 662 661
651 3 2 2 3 649 650 663 662
652 3 2 2 3 650 651 664 663
653 3 2 2 3 651 652 665 664
654 3 2 2 3 652 653 666 665
655 3 2 2 3 653 654 667 666
656 3 2 2 3 654 655 668 667
657 3 2 2 3 655 656 669 668
658 3 2 2 3 656 58 59 669
659 3 2 2 3 143 657 144 7
660 3 2 2 3 657 658 145 144
661 3 2 2 3 658 659 146 145
662 3 2 2 3 659 660 147 146
663 3 2 2 3 660 661 148 147
664 3 2 2 3 661 662 149 148
665 3 2 2 3 662 663 150 149
666 3 2 2 3 663 664 151 150
667 3 2 2 3 664 665 152 151
668 3 2 2 3 665 666 153 152
669 3 2 2 3 666 667 154 153
670 3 2 2 3 667 668 155 154
671 3 2 2 3 668 669 156 155
672 3 2 2 3 669 59 9 156
673 3 2 2 4 10 157 670 85
674 3 2 2 4 85 670 671 84
675 3 2 2 4 84 671 672 83
676 3 2 2 4 83 672 673 82
677 3 2 2 4 82 673 674 81
678 3 2 2 4 81 674 675 80
679 3 2 2 4 80 675 676 79
680 3 2 2 4 79 676 677 78
681 3 2 2 4 78 677 678 77
682 3 2 2 4 77 678 679 76
683 3 2 2 4 76 679 680 75
684 3 2 2 4 75 680 681 74
685 3 2 2 4 74 681 682 73
686 3 2 2 4 73 682 72 3
687 3 2 2 4 157 158 683 670
688 3 2 2 4 670 683 684 671
689 3 2 2 4 671 684 685 672
690 3 2 2 4 672 685 686 673
691 3 2 2 4 673 686 687 674
692 3 2 2 4 674 687 688 675
693 3 2 2 4 675 688 689 676
694 3 2 2 4 676 689 690 677
695 3 2 2 4 677 690 691 678
696 3 2 2 4 678 691 692 679
697 3 2 2 4 679 692 693 680
698 3 2 2 4 680 693 694 681
699 3 2 2 4 681 694 695 682
700 3 2 2 4 682 695 71 72
701 3 2 2 4 158 159 696 683
702 3 2 2 4 683 696 697 684
703 3 2 2 4 684 697 698 685
704 3 2 2 4 685 698 699 686
705 3 2 2 4 686 699 700 687
706 3 2 2 4 687 700 701 688
707 3 2 2 4 688 701 702 689
708 3 2 2 4 689 702 703 690
709 3 2 2 4 690 703 704 691
710 3 2 2 4 691 704 705 692
711 3 2 2 4 692 705 706 693
712 3 2 2 4 693 706 707 694
713 3 2 2 4 694 707 708 695
714 3 2 2 4 695 708 70 71
715 3 2 2 4 159 160 709 696
716 3 2 2 4 696 709 710 697
717 3 2 2 4 697 710 711 698
718 3 2 2 4 698 711 712 699
719 3 2 2 4 699 712 713 700
720 3 2 2 4 700 713 714 701
721 3 2 2 4 701 714 715 702
722 3 2 2 4 702 715 716 703
723 3 2 2 4 703 716 717 704
724 3 2 2 4 704 717 718 705
725 3 2 2 4 705 718 719 706
726 3 2 2 4 706 719 720 707
727 3 2 2 4 707 720 721 708
728 3 2 2 4 708 721 69 70
729 3 2 2 4 160 161 722 709
730 3 2 2 4 709 722 723 710
731 3 2 2 4 710 723 724 711
732 3 2 2 4 711 724 725 712
733 3 2 2 4 712 725 726 713
734 3 2 2 4 713 726 727 714
735 3 2 2 4 714 727 728 715
736 3 2 2 4 715 728 729 716
737 3 2 2 4 716 729 730 717
738 3 2 2 4 717 730 731 718
739 3 2 2 4 718 731 732 719
740 3 2 2 4 719 732 733 720
741 3 2 2 4 720 733 734 721
742 3 2 2 4 721 734 68 69
743 3 2 2 4 161 162 735 722
744 3 2 2 4 722 735 736 723
745 3 2 2 4 723 736 737 724
746 3 2 2 4 724 737 738 725
747 3 2 2 4 725 738 739 726
748 3 2 2 4 726 739 740 727
749 3 2 2 4 727 740 741 728
750 3 2 2 4 728 741 742 729
751 3 2 2 4 729 742 743 730
752 3 2 2 4 730 743 744 731
753 3 2 2 4 731 744 745 732
754 3 2 2 4 732 745 746 733
755 3 2 2 4 733 746 747 734
756 3 2 2 4 734 747 67 68
757 3 2 2 4 162 163 748 735
758 3 2 2 4 735 748 749 736
759 3 2 2 4 736 749 750 737
760 3 2 2 4 737 750 751 738
761 3 2 2 4 738 751 752 739
762 3 2 2 4 739 752 753 740
763 3 2 2 4 740 753 754 741
764 3 2 2 4 741 754 755 742
765 3 2 2 4 742 755 756 743
766 3 2 2 4 743 756 757 744
767 3 2 2 4 744 757 758 745
768 3 2 2 4 745 758 759 746
769 3 2 2 4 746 759 760 747
770 3 2 2 4 747 760 66 67
771 3 2 2 4 163 164 761 748
772 3 2 2 4 748 761 762 749
773 3 2 2 4 749 762 763 750
774 3 2 2 4 750 763 764 751
775 3 2 2 4 751 764 765 752
776 3 2 2 4 752 765 766 753
777 3 2 2 4 753 766 767 754
778 3 2 2 4 754 767 768 755
779 3 2 2 4 755 768 769 756
780 3 2 2 4 756 769 770 757
781 3 2 2 4 757 770 771 758
782 3 2 2 4 758 771 772 759
783 3 2 2 4 759 772 773 760
784 3 2 2 4 760 773 65 66
785 3 2 2 4 164 165 774 761
786 3 2 2 4 761 774 775 762
787 3 2 2 4 762 775 776 763
788 3 2 2 4 763 776 777 764
789 3 2 2 4 764 777 778 765
790 3 2 2 4 765 778 779 766
791 3 2 2 4 766 779 780 767
792 3 2 2 4 767 780 781 768
793 3 2 2 4 768 781 782 769
794 3 2 2 4 769 782 783 770
795 3 2 2 4 770 783 784 771
796 3 2 2 4 771 784 785 772
797 3 2 2 4 772 785 786 773
798 3 2 2 4 773 786 64 65
799 3 2 2 4 165 166 787 774
800 3 2 2 4 774 787 788 775
801 3 2 2 4 775 788 789 776
802 3 2 2 4 776 789 790 777
803 3 2 2 4 777 790 791 778
804 3 2 2 4 778 791 792 779
805 3 2 2 4 779 792 793 780
806 3 2 2 4 780 793 794 781
807 3 2 2 4 781 794 795 782
808 3 2 2 4 782 795 796 783
809 3 2 2 4 783 796 797 784
810 3 2 2 4 784 797 798 785
811 3 2 2 4 785 798 799 786
812 3 2 2 4 786 799 63 64
813 3 2 2 4 166 167 800 787
814 3 2 2 4 787 800 801 788
815 3 2 2 4 788 801 802 789
816 3 2 2 4 789 802 803 790
817 3 2 2 4 790 803 804 791
818 3 2 2 4 791 804 805 792
819 3 2 2 4 792 805 806 793
820 3 2 2 4 793 806 807 794
821 3 2 2 4 794 807 808 795
822 3 2 2 4 795 808 809 796
823 3 2 2 4 796 809 810 797
824 3 2 2 4 797 810 811 798
825 3 2 2 4 798 811 812 799
826 3 2 2 4 799 812 62 63
827 3 2 2 4 167 168 813 800
828 3 2 2 4 800 813 814 801
829 3 2 2 4 801 814 815 802
830 3 2 2 4 802 815 816 803
831 3 2 2 4 803 816 817 804
832 3 2 2 4 804 817 818 805
833 3 2 2 4 805 818 819 806
834 3 2 2 4 806 819 820 807
835 3 2 2 4 807 820 821 808
836 3 2 2 4 808 821 822 809
837 3 2 2 4 809 822 823 810
838 3 2 2 4 810 823 824 811
839 3 2 2 4 811 824 825 812
840 3 2 2 4 812 825 61 62
841 3 2 2 4 168 169 826 813
842 3 2 2 4 813 826 827 814
843 3 2 2 4 814 827 828 815
844 3 2 2 4 815 828 829 816
845 3 2 2 4 816 829 830 817
846 3 2 2 4 817 830 831 818
847 3 2 2 4 818 831 832 819
848 3 2 2 4 819 832 833 820
849 3 2 2 4 820 833 834 821
850 3 2 2 4 821 834 835 822
851 3 2 2 4 822 835 836 823
852 3 2 2 4 823 836 837 824
853 3 2 2 4 824 837 838 825
854 3 2 2 4 825 838 60 61
855 3 2 2 4 169 7 144 826
856 3 2 2 4 826 144 145 827
857 3 2 2 4 827 145 146 828
858 3 2 2 4 828 146 147 829
859 3 2 2 4 829 147 148 830
860 3 2 2 4 830 148 149 831
861 3 2 2 4 831 149 150 832
862 3 2 2 4 832 150 151 833
863 3 2 2 4 833 151 152 834
864 3 2 2 4 834 152 153 835
865 3 2 2 4 835 153 154 836
866 3 2 2 4 836 154 155 837
867 3 2 2 4 837 155 156 838
868 3 2 2 4 838 156 9 60
869 3 2 2 5 4 99 839 98
870 3 2 2 5 98 839 840 97
871 3 2 2 5 97 840 841 96
872 3 2 2 5 96 841 842 95
873 3 2 2 5 95 842 843 94
874 3 2 2 5 94 843 844 93
875 3 2 2 5 93 844 845 92
876 3 2 2 5 92 845 846 91
877 3 2 2 5 91 846 847 90
878 3 2 2 5 90 847 848 89
879 3 2 2 5 89 848 849 88
880 3 2 2 5 88 849 850 87
881 3 2 2 5 87 850 851 86
882 3 2 2 5 86 851 157 10
883 3 2 2 5 99 100 852 839
884 3 2 2 5 839 852 853 840
885 3 2 2 5 840 853 854 841
886 3 2 2 5 841 854 855 842
887 3 2 2 5 842 855 856 843
888 3 2 2 5 843 856 857 844
889 3 2 2 5 844 857 858 845
890 3 2 2 5 845 858 859 846
891 3 2 2 5 846 859 860 847
892 3 2 2 5 847 860 861 848
893 3 2 2 5 848 861 862 849
894 3 2 2 5 849 862 863 850
895 3 2 2 5 850 863 864 851
896 3 2 2 5 851 864 158 157
897 3 2 2 5 100 101 865 852
898 3 2 2 5 852 865 866 853
899 3 2 2 5 853 866 867 854
900 3 2 2 5 854 867 868 855
901 3 2 2 5 855 868 869 856
902 3 2 2 5 856 869 870 857
903 3 2 2 5 857 870 871 858
904 3 2 2 5 858 871 872 859
905 3 2 2 5 859 872 873 860
906 3 2 2 5 860 873 874 861
907 3 2 2 5 861 874 875 862
908 3 2 2 5 862 875 876 863
909 3 2 2 5 863 876 877 864
910 3 2 2 5 864 877 159 158
911 3 2 2 5 101 102 878 865
912 3 2 2 5 865 878 879 866
913 3 2 2 5 866 879 880 867
914 3 2 2 5 867 880 881 868
915 3 2 2 5 868 881 882 869
916 3 2 2 5 869 882 883 870
917 3 2 2 5 870 883 884 871
918 3 2 2 5 871 884 885 872
919 3 2 2 5 872 885 886 873
920 3 2 2 5 873 886 887 874
921 3 2 2 5 874 887 888 875
922 3 2 2 5 875 888 889 876
923 3 2 2 5 876 889 890 877
924 3 2 2 5 877 890 160 159
925 3 2 2 5 102 103 891 878
926 3 2 2 5 878 891 892 879
927 3 2 2 5 879 892 893 880
928 3 2 2 5 880 893 894 881
929 3 2 2 5 881 894 895 882
930 3 2 2 5 882 895 896 883
931 3 2 2 5 883 896 897 884
932 3 2 2 5 884 897 898 885
933 3 2 2 5 885 898 899 886
934 3 2 2 5 886 899 900 887
935 3 2 2 5 887 900 901 888
936 3 2 2 5 888 901 902 889
937 3 2 2 5 889 902 903 890
938 3 2 2 5 890 903 161 160
939 3 2 2 5 103 104 904 891
940 3 2 2 5 891 904 905 892
941 3 2 2 5 892 905 906 893
942 3 2 2 5 893 906 907 894
943 3 2 2 5 894 907 908 895
944 3 2 2 5 895 908 909 896
945 3 2 2 5 896 909 910 897
946 3 2 2 5 897 910 911 898
947 3 2 2 5 898 911 912 899
948 3 2 2 5 899 912 913 900
949 3 2 2 5 900 913 914 901
950 3 2 2 5 901 914 915 902
951 3 2 2 5 902 915 916 903
952 3 2 2 5 903 916 162 161
953 3 2 2 5 104 105 917 904
954 3 2 2 5 904 917 918 905
955 3 2 2 5 905 918 919 906
956 3 2 2 5 906 919 920 907
957 3 2 2 5 907 920 921 908
958 3 2 2 5 908 921 922 909
959 3 2 2 5 909 922 923 910
960 3 2 2 5 910 923 924 911
961 3 2 2 5 911 924 925 912
962 3 2 2 5 912 925 926 913
963 3 2 2 5 913 926 927 914
964 3 2 2 5 914 927 928 915
965 3 2 2 5 915 928 929 916
966 3 2 2 5 916 929 163 162
967 3 2 2 5 105 106 930 917
968 3 2 2 5 917 930 931 918
969 3 2 2 5 918 931 932 919
970 3 2 2 5 919 932 933 920
971 3 2 2 5 920 933 934 921
972 3 2 2 5 921 934 935 922
973 3 2 2 5 922 935 936 923
974 3 2 2 5 923 936 937 924
975 3 2 2 5 924 937 938 925
976 3 2 2 5 925 938 939 926
977 3 2 2 5 926 939 940 927
978 3 2 2 5 927 940 941 928
979 3 2 2 5 928 941 942 929
980 3 2 2 5 929 942 164 163
981 3 2 2 5 106 107 943 930
982 3 2 2 5 930 943 944 931
983 3 2 2 5 931 944 945 932
984 3 2 2 5 932 945 946 933
985 3 2 2 5 933 946 947 934
986 3 2 2 5 934 947 948 935
987 3 2 2 5 935 948 949 936
988 3 2 2 5 936 949 950 937
989 3 2 2 5 937 950 951 938
990 3 2 2 5 938 951 952 939
991 3 2 2 5 939 952 953 940
992 3 2 2 5 940 953 954 941
993 3 2 2 5 941 954 955 942
994 3 2 2 5 942 955 165 164
995 3 2 2 5 107 108 956 943
996 3 2 2 5 943 956 957 944
997 3 2 2 5 944 957 958 945
998 3 2 2 5 945 958 959 946
999 3 2 2 5 946 959 960 947
1000 3 2 2 5 947 960 961 948
1001 3 2 2 5 948 961 962 949
1002 3 2 2 5 949 962 963 950
1003 3 2 2 5 950 963 964 951
1004 3 2 2 5 951 964 965 952
1005 3 2 2 5 952 965 966 953
1006 3 2 2 5 953 966 967 954
1007 3 2 2 5 954 967 968 955
1008 3 2 2 5 955 968 166 165
1009 3 2 2 5 108 109 969 956
1010 3 2 2 5 956 969 970 957
1011 3 2 2 5 957 970 971 958
1012 3 2 2 5 958 971 972 959
1013 3 2 2 5 959 972 973 960
1014 3 2 2 5 960 973 974 961
1015 3 2 2 5 961 974 975 962
1016 3 2 2 5 962 975 976 963
1017 3 2 2 5 963 976 977 964
1018 3 2 2 5 964 977 978 965
1019 3 2 2 5 965 978 979 966
1020 3 2 2 5 966 979 980 967
1021 3 2 2 5 967 980 981 968
1022 3 2 2 5 968 981 167 166
1023 3 2 2 5 109 110 982 969
1024 3 2 2 5 969 982 983 970
1025 3 2 2 5 970 983 984 971
1026 3 2 2 5 971 984 985 972
1027 3 2 2 5 972 985 986 973
1028 3 2 2 5 973 986 987 974
1029 3 2 2 5 974 987 988 975
1030 3 2 2 5 975 988 989 976
1031 3 2 2 5 976 989 990 977
1032 3 2 2 5 977 990 991 978
1033 3 2 2 5 978 991 992 979
1034 3 2 2 5 979 992 993 980
1035 3 2 2 5 980 993 994 981
1036 3 2 2 5 981 994 168 167
1037 3 2 2 5 110 111 995 982
1038 3 2 2 5 982 995 996 983
1039 3 2 2 5 983 996 997 984
1040 3 2 2 5 984 997 998 985
1041 3 2 2 5 985 998 999 986
1042 3 2 2 5 986 999 1000 987
1043 3 2 2 5 987 1000 1001 988
1044 3 2 2 5 988 1001 1002 989
1045 3 2 2 5 989 1002 1003 990
1046 3 2 2 5 990 1003 1004 991
1047 3 2 2 5 991 1004 1005 992
1048 3 2 2 5 992 1005 1006 993
1049 3 2 2 5 993 1006 1007 994
1050 3 2 2 5 994 1007 169 168
1051 3 2 2 5 111 8 170 995
1052 3 2 2 5 995 170 171 996
1053 3 2 2 5 996 171 172 997
1054 3 2 2 5 997 172 173 998
1055 3 2 2 5 998 173 174 999
1056 3 2 2 5 999 174 175 1000
1057 3 2 2 5 1000 175 176 1001
1058 3 2 2 5 1001 176 177 1002
1059 3 2 2 5 1002 177 178 1003
1060 3 2 2 5 1003 178 179 1004
1061 3 2 2 5 1004 179 180 1005
1062 3 2 2 5 1005 180 181 1006
1063 3 2 2 5 1006 181 182 1007
1064 3 2 2 5 1007 182 7 169
1065 3 2 2 6 8 112 1008 170
1066 3 2 2 6 170 1008 1009 171
1067 3 2 2 6 171 1009 1010 172
1068 3 2 2 6 172 1010 1011 173
1069 3 2 2 6 173 1011 1012 174
1070 3 2 2 6 174 1012 1013 175
1071 3 2 2 6 175 1013 1014 176
1072 3 2 2 6 176 1014 1015 177
1073 3 2 2 6 177 1015 1016 178
1074 3 2 2 6 178 1016 1017 179
1075 3 2 2 6 179 1017 1018 180
1076 3 2 2 6 180 1018 1019 181
1077 3 2 2 6 181 1019 1020 182
1078 3 2 2 6 182 1020 201 7
1079 3 2 2 6 112 113 1021 1008
1080 3 2 2 6 1008 1021 1022 1009
1081 3 2 2 6 1009 1022 1023 1010
1082 3 2 2 6 1010 1023 1024 1011
1083 3 2 2 6 1011 1024 1025 1012
1084 3 2 2 6 1012 1025 1026 1013
1085 3 2 2 6 1013 1026 1027 1014
1086 3 2 2 6 1014 1027 1028 1015
1087 3 2 2 6 1015 1028 1029 1016
1088 3 2 2 6 1016 1029 1030 1017
1089 3 2 2 6 1017 1030 1031 1018
1090 3 2 2 6 1018 1031 1032 1019
1091 3 2 2 6 1019 1032 1033 1020
1092 3 2 2 6 1020 1033 200 201
1093 3 2 2 6 113 114 1034 1021
1094 3 2 2 6 1021 1034 1035 1022
1095 3 2 2 6 1022 1035 1036 1023
1096 3 2 2 6 1023 1036 1037 1024
1097 3 2 2 6 1024 1037 1038 1025
1098 3 2 2 6 1025 1038 1039 1026
1099 3 2 2 6 1026 1039 1040 1027
1100 3 2 2 6 1027 1040 1041 1028
1101 3 2 2 6 1028 1041 1042 1029
1102 3 2 2 6 1029 1042 1043 1030
1103 3 2 2 6 1030 1043 1044 1031
1104 3 2 2 6 1031 1044 1045 1032
1105 3 2 2 6 1032 1045 1046 1033
1106 3 2 2 6 1033 1046 199 200
1107 3 2 2 6 114 115 1047 1034
1108 3 2 2 6 1034 1047 1048 1035
1109 3 2 2 6 1035 1048 1049 1036
1110 3 2 2 6 1036 1049 1050 1037
1111 3 2 2 6 1037 1050 1051 1038
1112 3 2 2 6 1038 1051 1052 1039
1113 3 2 2 6 1039 1052 1053 1040
1114 3 2 2 6 1040 1053 1054 1041
1115 3 2 2 6 1041 1054 1055 1042
1116 3 2 2 6 1042 1055 1056 1043
1117 3 2 2 6 1043 1056 1057 1044
1118 3 2 2 6 1044 1057 1058 1045
1119 3 2 2 6 1045 1058 1059 1046
1120 3 2 2 6 1046 1059 198 199
1121 3 2 2 6 115 116 1060 1047
1122 3 2 2 6 1047 1060 1061 1048
1123 3 2 2 6 1048 1061 1062 1049
1124 3 2 2 6 1049 1062 1063 1050
1125 3 2 2 6 1050 1063 1064 1051
1126 3 2 2 6 1051 1064 1065 1052
1127 3 2 2 6 1052 1065 1066 1053
1128 3 2 2 6 1053 1066 1067 1054
1129 3 2 2 6 1054 1067 1068 1055
1130 3 2 2 6 1055 1068 1069 1056
1131 3 2 2 6 1056 1069 1070 1057
1132 3 2 2 6 1057 1070 1071 1058
1133 3 2 2 6 1058 1071 1072 1059
1134 3 2 2 6 1059 1072 197 198
1135 3 2 2 6 116 117 1073 1060
1136 3 2 2 6 1060 1073 1074 1061
1137 3 2 2 6 1061 1074 1075 1062
1138 3 2 2 6 1062 1075 1076 1063
1139 3 2 2 6 1063 1076 1077 1064
1140 3 2 2 6 1064 1077 1078 1065
1141 3 2 2 6 1065 1078 1079 1066
1142 3 2 2 6 1066 1079 1080 1067
1143 3 2 2 6 1067 1080 1081 1068
1144 3 2 2 6 1068 1081 1082 1069
1145 3 2 2 6 1069 1082 1083 1070
1146 3 2 2 6 1070 1083 1084 1071
1147 3 2 2 6 1071 1084 1085 1072
1148 3 2 2 6 1072 1085 196 197
1149 3 2 2 6 117 118 1086 1073
1150 3 2 2 6 1073 1086 1087 1074
1151 3 2 2 6 1074 1087 1088 1075
1152 3 2 2 6 1075 1088 1089 1076
1153 3 2 2 6 1076 1089 1090 1077
1154 3 2 2 6 1077 1090 1091 1078
1155 3 2 2 6 1078 1091 1092 1079
1156 3 2 2 6 1079 1092 1093 1080
1157 3 2 2 6 1080 1093 1094 1081
1158 3 2 2 6 1081 1094 1095 1082
1159 3 2 2 6 1082 1095 1096 1083
1160 3 2 2 6 1083 1096 1097 1084
1161 3 2 2 6 1084 1097 1098 1085
1162 3 2 2 6 1085 1098 195 196
1163 3 2 2 6 118 119 1099 1086
1164 3 2 2 6 1086 1099 1100 1087
1165 3 2 2 6 1087 1100 1101 1088
1166 3 2 2 6 1088 1101 1102 1089
1167 3 2 2 6 1089 1102 1103 1090
1168 3 2 2 6 1090 1103 1104 1091
1169 3 2 2 6 1091 1104 1105 1092
1170 3 2 2 6 1092 1105 1106 1093
1171 3 2 2 6 1093 1106 1107 1094
1172 3 2 2 6 1094 1107 1108 1095
1173 3 2 2 6 1095 1108 1109 1096
1174 3 2 2 6 1096 1109 1110 1097
1175 3 2 2 6 1097 1110 1111 1098
1176 3 2 2 6 1098 1111 194 195
1177 3 2 2 6 119 120 1112 1099
1178 3 2 2 6 1099 1112 1113 1100
1179 3 2 2 6 1100 1113 1114 1101
1180 3 2 2 6 1101 1114 1115 1102
1181 3 2 2 6 1102 1115 1116 1103
1182 3 2 2 6 1103 1116 1117 1104
1183 3 2 2 6 1104 1117 1118 1105
1184 3 2 2 6 1105 1118 1119 1106
1185 3 2 2 6 1106 1119 1120 1107
1186 3 2 2 6 1107 1120 1121 1108
1187 3 2 2 6 1108 1121 1122 1109
1188 3 2 2 6 1109 1122 1123 1110
1189 3 2 2 6 1110 1123 1124 1111
1190 3 2 2 6 1111 1124 193 194
1191 3 2 2 6 120 121 1125 1112
1192 3 2 2 6 1112 1125 1126 1113
1193 3 2 2 6 1113 1126 1127 1114
1194 3 2 2 6 1114 1127 1128 1115
1195 3 2 2 6 1115 1128 1129 1116
1196 3 2 2 6 1116 1129 1130 1117
1197 3 2 2 6 1117 1130 1131 1118
1198 3 2 2 6 1118 1131 1132 1119
1199 3 2 2 6 1119 1132 1133 1120
1200 3 2 2 6 1120 1133 1134 1121
1201 3 2 2 6 1121 1134 1135 1122
1202 3 2 2 6 1122 1135 1136 1123
1203 3 2 2 6 1123 1136 1137 1124
1204 3 2 2 6 1124 1137 192 193
1205 3 2 2 6 121 122 1138 1125
1206 3 2 2 6 1125 1138 1139 1126
1207 3 2 2 6 1126 1139 1140 1127
1208 3 2 2 6 1127 1140 1141 1128
1209 3 2 2 6 1128 1141 1142 1129
1210 3 2 2 6 1129 1142 1143 1130
1211 3 2 2 6 1130 1143 1144 1131
1212 3 2 2 6 1131 1144 1145 1132
1213 3 2 2 6 1132 1145 1146 1133
1214 3 2 2 6 1133 1146 1147 1134
1215 3 2 2 6 1134 1147 1148 1135
1216 3 2 2 6 1135 1148 1149 1136
1217 3 2 2 6 1136 1149 1150 1137
1218 3 2 2 6 1137 1150 191 192
1219 3 2 2 6 122 123 1151 1138
1220 3 2 2 6 1138 1151 1152 1139
1221 3 2 2 6 1139 1152 1153 1140
1222 3 2 2 6 1140 1153 1154 1141
1223 3 2 2 6 1141 1154 1155 1142
1224 3 2 2 6 1142 1155 1156 1143
1225 3 2 2 6 1143 1156 1157 1144
1226 3 2 2 6 1144 1157 1158 1145
1227 3 2 2 6 1145 1158 1159 1146
1228 3 2 2 6 1146 1159 1160 1147
1229 3 2 2 6 1147 1160 1161 1148
1230 3 2 2 6 1148 1161 1162 1149
1231 3 2 2 6 1149 1162 1163 1150
1232 3 2 2 6 1150 1163 190 191
1233 3 2 2 6 123 124 1164 1151
1234 3 2 2 6 1151 1164 1165 1152
1235 3 2 2 6 1152 1165 1166 1153
1236 3 2 2 6 1153 1166 1167 1154
1237 3 2 2 6 1154 1167 1168 1155
1238 3 2 2 6 1155 1168 1169 1156
1239 3 2 2 6 1156 1169 1170 1157
1240 3 2 2 6 1157 1170 1171 1158
1241 3 2 2 6 1158 1171 1172 1159
1242 3 2 2 6 1159 1172 1173 1160
1243 3 2 2 6 1160 1173 1174 1161
1244 3 2 2 6 1161 1174 1175 1162
1245 3 2 2 6 1162 1175 1176 1163
1246 3 2 2 6 1163 1176 189 190
1247 3 2 2 6 124 13 253 1164
1248 3 2 2 6 1164 253 252 1165
1249 3 2 2 6 1165 252 251 1166
1250 3 2 2 6 1166 251 250 1167
1251 3 2 2 6 1167 250 249 1168
1252 3 2 2 6 1168 249 248 1169
1253 3 2 2 6 1169 248 247 1170
1254 3 2 2 6 1170 247 246 1171
1255 3 2 2 6 1171 246 245 1172
1256 3 2 2 6 1172 245 244 1173
1257 3 2 2 6 1173 244 243 1174
1258 3 2 2 6 1174 243 242 1175
1259 3 2 2 6 1175 242 241 1176
1260 3 2 2 6 1176 241 14 189
1261 3 2 1 7 13 125 1177 253
1262 3 2 1 7 253 1177 1178 252
1263 3 2 1 7 252 1178 1179 251
1264 3 2 1 7 251 1179 1180 250
1265 3 2 1 7 250 1180 1181 249
1266 3 2 1 7 249 1181 1182 248
1267 3 2 1 7 248 1182 1183 247
1268 3 2 1 7 247 1183 1184 246
1269 3 2 1 7 246 1184 1185 245
1270 3 2 1 7 245 1185 1186 244
1271 3 2 1 7 244 1186 1187 243
1272 3 2 1 7 243 1187 1188 242
1273 3 2 1 7 242 1188 1189 241
1274 3 2 1 7 241 1189 188 14
1275 3 2 1 7 125 126 1190 1177
1276 3 2 1 7 1177 1190 1191 1178
1277 3 2 1 7 1178 1191 1192 1179
1278 3 2 1 7 1179 1192 1193 1180
1279 3 2 1 7 1180 1193 1194 1181
1280 3 2 1 7 1181 1194 1195 1182
1281 3 2 1 7 1182 1195 1196 1183
1282 3 2 1 7 1183 1196 1197 1184
1283 3 2 1 7 1184 1197 1198 1185
1284 3 2 1 7 1185 1198 1199 1186
1285 3 2 1 7 1186 1199 1200 1187
1286 3 2 1 7 1187 1200 1201 1188
1287 3 2 1 7 1188 1201 1202 1189
1288 3 2 1 7 1189 1202 187 188
1289 3 2 1 7 126 127 1203 1190
1290 3 2 1 7 1190 1203 1204 1191
1291 3 2 1 7 1191 1204 1205 1192
1292 3 2 1 7 1192 1205 1206 1193
1293 3 2 1 7 1193 1206 1207 1194
1294 3 2 1 7 1194 1207 1208 1195
1295 3 2 1 7 1195 1208 1209 1196
1296 3 2 1 7 1196 1209 1210 1197
1297 3 2 1 7 1197 1210 1211 1198
1298 3 2 1 7 1198 1211 1212 1199
1299 3 2 1 7 1199 1212 1213 1200
1300 3 2 1 7 1200 1213 1214 1201
1301 3 2 1 7 1201 1214 1215 1202
1302 3 2 1 7 1202 1215 186 187
1303 3 2 1 7 127 128 1216 1203
1304 3 2 1 7 1203 1216 1217 1204
1305 3 2 1 7 1204 1217 1218 1205
1306 3 2 1 7 1205 1218 1219 1206
1307 3 2 1 7 1206 1219 1220 1207
1308 3 2 1 7 1207 1220 1221 1208
1309 3 2 1 7 1208 1221 1222 1209
1310 3 2 1 7 1209 1222 1223 1210
1311 3 2 1 7 1210 1223 1224 1211
1312 3 2 1 7 1211 1224 1225 1212
1313 3 2 1 7 1212 1225 1226 1213
1314 3 2 1 7 1213 1226 1227 1214
1315 3 2 1 7 1214 1227 1228 1215
1316 3 2 1 7 1215 1228 185 186
1317 3 2 1 7 128 129 1229 1216
1318 3 2 1 7 1216 1229 1230 1217
1319 3 2 1 7 1217 1230 1231 1218
1320 3 2 1 7 1218 1231 1232 1219
1321 3 2 1 7 1219 1232 1233 1220
1322 3 2 1 7 1220 1233 1234 1221
1323 3 2 1 7 1221 1234 1235 1222
1324 3 2 1 7 1222 1235 1236 1223
1325 3 2 1 7 1223 1236 1237 1224
1326 3 2 1 7 1224 1237 1238 1225
1327 3 2 1 7 1225 1238 1239 1226
1328 3 2 1 7 1226 1239 1240 1227
1329 3 2 1 7 1227 1240 1241 1228
1330 3 2 1 7 1228 1241 184 185
1331 3 2 1 7 129 130 1242 1229
1332 3 2 1 7 1229 1242 1243 1230
1333 3 2 1 7 1230 1243 1244 1231
1334 3 2 1 7 1231 1244 1245 1232
1335 3 2 1 7 1232 1245 1246 1233
1336 3 2 1 7 1233 1246 1247 1234
1337 3 2 1 7 1234 1247 1248 1235
1338 3 2 1 7 1235 1248 1249 1236
1339 3 2 1 7 1236 1249 1250 1237
1340 3 2 1 7 1237 1250 1251 1238
1341 3 2 1 7 1238 1251 1252 1239
1342 3 2 1 7 1239 1252 1253 1240
1343 3 2 1 7 1240 1253 1254 1241
1344 3 2 1 7 1241 1254 183 184
1345 3 2 1 7 130 5 227 1242
1346 3 2 1 7 1242 227 226 1243
1347 3 2 1 7 1243 226 225 1244
1348 3 2 1 7 1244 225 224 1245
1349 3 2 1 7 1245 224 223 1246
1350 3 2 1 7 1246 223 222 1247
1351 3 2 1 7 1247 222 221 1248
1352 3 2 1 7 1248 221 220 1249
1353 3 2 1 7 1249 220 219 1250
1354 3 2 1 7 1250 219 218 1251
1355 3 2 1 7 1251 218 217 1252
1356 3 2 1 7 1252 217 216 1253
1357 3 2 1 7 1253 216 215 1254
1358 3 2 1 7 1254 215 11 183
$EndElements
