$MeshFormat
2.2 0 8
$EndMeshFormat
$PhysicalNames
2
1 101 "FRACTURE"
2 201 "ROCK"
$EndPhysicalNames
$Nodes
1365
1 0.1 0 0
2 12.6 0 0
3 12.6 1 0
4 12.6 0.5 0
5 0.1 1 0
6 0.1 0.5 0
7 0.4676470588220831 0 0
8 0.8352941176440735 0 0
9 1.202941176466295 0 0
10 1.570588235288566 0 0
11 1.938235294110352 0 0
12 2.305882352931973 0 0
13 2.673529411753592 0 0
14 3.041176470575213 0 0
15 3.408823529396834 0 0
16 3.776470588218455 0 0
17 4.144117647040393 0 0
18 4.511764705863321 0 0
19 4.87941176468625 0 0
20 5.247058823509176 0 0
21 5.614705882332105 0 0
22 5.982352941155033 0 0
23 6.34999999997796 0 0
24 6.717647058800887 0 0
25 7.085294117623816 0 0
26 7.452941176446743 0 0
27 7.820588235269672 0 0
28 8.188235294093518 0 0
29 8.555882352919056 0 0
30 8.923529411744598 0 0
31 9.291176470570138 0 0
32 9.658823529395679 0 0
33 10.02647058822122 0 0
34 10.39411764704676 0 0
35 10.7617647058723 0 0
36 11.12941176469784 0 0
37 11.49705882352338 0 0
38 11.86470588234892 0 0
39 12.23235294117446 0 0
40 12.6 0.05780916043476159 0
41 12.6 0.10983740481613 0
42 12.6 0.1566628246916573 0
43 12.6 0.1988057026285023 0
44 12.6 0.2367342925725218 0
45 12.6 0.270870023731237 0
46 12.6 0.301592181926929 0
47 12.6 0.3292421240444958 0
48 12.6 0.3541270721175838 0
49 12.6 0.3765235256437109 0
50 12.6 0.3966803338084144 0
51 12.6 0.4148214608310879 0
52 12.6 0.431148474932996 0
53 12.6 0.4458427875849192 0
54 12.6 0.4590676690338696 0
55 12.6 0.4709700624056865 0
56 12.6 0.4816822163679808 0
57 12.6 0.491323154978737 0
58 12.6 0.5097734341761107 0
59 12.6 0.5205242114053705 0
60 12.6 0.5323500664852846 0
61 12.6 0.5453585073733467 0
62 12.6 0.5596677923930075 0
63 12.6 0.5754080056885181 0
64 12.6 0.5927222402777259 0
65 12.6 0.6117678984141394 0
66 12.6 0.6327181225216217 0
67 12.6 0.6557633690888464 0
68 12.6 0.6811131400509239 0
69 12.6 0.7089978881794905 0
70 12.6 0.7396711110890848 0
71 12.6 0.7734116561348366 0
72 12.6 0.8105262559115859 0
73 12.6 0.8513523157685861 0
74 12.6 0.8962609816425179 0
75 12.6 0.9456605141417459 0
76 0.4676470588220831 0.5 0
77 0.8352941176440735 0.5 0
78 1.202941176466295 0.5 0
79 1.570588235288566 0.5 0
80 1.938235294110352 0.5 0
81 2.305882352931973 0.5 0
82 2.673529411753592 0.5 0
83 3.041176470575213 0.5 0
84 3.408823529396834 0.5 0
85 3.776470588218455 0.5 0
86 4.144117647040393 0.5 0
87 4.511764705863321 0.5 0
88 4.87941176468625 0.5 0
89 5.247058823509176 0.5 0
90 5.614705882332105 0.5 0
91 5.982352941155033 0.5 0
92 6.34999999997796 0.5 0
93 6.717647058800887 0.5 0
94 7.085294117623816 0.5 0
95 7.452941176446743 0.5 0
96 7.820588235269672 0.5 0
97 8.188235294093518 0.5 0
98 8.555882352919056 0.5 0
99 8.923529411744598 0.5 0
100 9.291176470570138 0.5 0
101 9.658823529395679 0.5 0
102 10.02647058822122 0.5 0
103 10.39411764704676 0.5 0
104 10.7617647058723 0.5 0
105 11.12941176469784 0.5 0
106 11.49705882352338 0.5 0
107 11.86470588234892 0.5 0
108 12.23235294117446 0.5 0
109 0.1 0.05780916043476159 0
110 0.1 0.10983740481613 0
111 0.1 0.1566628246916573 0
112 0.1 0.1988057026285023 0
113 0.1 0.2367342925725218 0
114 0.1 0.270870023731237 0
115 0.1 0.301592181926929 0
116 0.1 0.3292421240444958 0
117 0.1 0.3541270721175838 0
118 0.1 0.3765235256437109 0
119 0.1 0.3966803338084144 0
120 0.1 0.4148214608310879 0
121 0.1 0.431148474932996 0
122 0.1 0.4458427875849192 0
123 0.1 0.4590676690338696 0
124 0.1 0.4709700624056865 0
125 0.1 0.4816822163679808 0
126 0.1 0.491323154978737 0
127 0.1 0.5097734341761107 0
128 0.1 0.5205242114053705 0
129 0.1 0.5323500664852846 0
130 0.1 0.5453585073733467 0
131 0.1 0.5596677923930075 0
132 0.1 0.5754080056885181 0
133 0.1 0.5927222402777259 0
134 0.1 0.6117678984141394 0
135 0.1 0.6327181225216217 0
136 0.1 0.6557633690888464 0
137 0.1 0.6811131400509239 0
138 0.1 0.7089978881794905 0
139 0.1 0.7396711110890848 0
140 0.1 0.7734116561348366 0
141 0.1 0.8105262559115859 0
142 0.1 0.8513523157685861 0
143 0.1 0.8962609816425179 0
144 0.1 0.9456605141417459 0
145 0.4676470588220831 1 0
146 0.8352941176440735 1 0
147 1.202941176466295 1 0
148 1.570588235288566 1 0
149 1.938235294110352 1 0
150 2.305882352931973 1 0
151 2.673529411753592 1 0
152 3.041176470575213 1 0
153 3.408823529396834 1 0
154 3.776470588218455 1 0
155 4.144117647040393 1 0
156 4.511764705863321 1 0
157 4.87941176468625 1 0
158 5.247058823509176 1 0
159 5.614705882332105 1 0
160 5.982352941155033 1 0
161 6.34999999997796 1 0
162 6.717647058800887 1 0
163 7.085294117623816 1 0
164 7.452941176446743 1 0
165 7.820588235269672 1 0
166 8.188235294093518 1 0
167 8.555882352919056 1 0
168 8.923529411744598 1 0
169 9.291176470570138 1 0
170 9.658823529395679 1 0
171 10.02647058822122 1 0
172 10.39411764704676 1 0
173 10.7617647058723 1 0
174 11.12941176469784 1 0
175 11.49705882352338 1 0
176 11.86470588234892 1 0
177 12.23235294117446 1 0
178 0.4676470588220832 0.05780916043476159 0
179 0.4676470588220831 0.10983740481613 0
180 0.4676470588220831 0.1566628246916573 0
181 0.4676470588220832 0.1988057026285023 0
182 0.4676470588220832 0.2367342925725218 0
183 0.4676470588220831 0.270870023731237 0
184 0.4676470588220831 0.301592181926929 0
185 0.4676470588220831 0.3292421240444958 0
186 0.4676470588220831 0.3541270721175838 0
187 0.4676470588220832 0.3765235256437109 0
188 0.4676470588220831 0.3966803338084144 0
189 0.4676470588220832 0.4148214608310879 0
190 0.4676470588220831 0.431148474932996 0
191 0.4676470588220831 0.4458427875849192 0
192 0.4676470588220831 0.4590676690338695 0
193 0.4676470588220831 0.4709700624056865 0
194 0.4676470588220831 0.4816822163679808 0
195 0.4676470588220831 0.491323154978737 0
196 0.8352941176440736 0.05780916043476159 0
197 0.8352941176440735 0.1098374048161299 0
198 0.8352941176440737 0.1566628246916573 0
199 0.8352941176440735 0.1988057026285023 0
200 0.8352941176440734 0.2367342925725218 0
201 0.8352941176440734 0.270870023731237 0
202 0.8352941176440737 0.301592181926929 0
203 0.8352941176440735 0.3292421240444958 0
204 0.8352941176440735 0.3541270721175838 0
205 0.8352941176440732 0.3765235256437109 0
206 0.8352941176440734 0.3966803338084144 0
207 0.8352941176440734 0.4148214608310879 0
208 0.8352941176440734 0.4311484749329961 0
209 0.8352941176440734 0.4458427875849192 0
210 0.8352941176440735 0.4590676690338695 0
211 0.8352941176440734 0.4709700624056865 0
212 0.8352941176440735 0.4816822163679808 0
213 0.8352941176440735 0.491323154978737 0
214 1.202941176466294 0.05780916043476159 0
215 1.202941176466295 0.10983740481613 0
216 1.202941176466295 0.1566628246916573 0
217 1.202941176466295 0.1988057026285023 0
218 1.202941176466295 0.2367342925725218 0
219 1.202941176466295 0.270870023731237 0
220 1.202941176466295 0.301592181926929 0
221 1.202941176466295 0.3292421240444958 0
222 1.202941176466295 0.3541270721175838 0
223 1.202941176466295 0.3765235256437109 0
224 1.202941176466295 0.3966803338084144 0
225 1.202941176466295 0.4148214608310879 0
226 1.202941176466295 0.431148474932996 0
227 1.202941176466295 0.4458427875849192 0
228 1.202941176466295 0.4590676690338696 0
229 1.202941176466295 0.4709700624056865 0
230 1.202941176466295 0.4816822163679808 0
231 1.202941176466295 0.491323154978737 0
232 1.570588235288566 0.05780916043476159 0
233 1.570588235288566 0.10983740481613 0
234 1.570588235288566 0.1566628246916573 0
235 1.570588235288566 0.1988057026285023 0
236 1.570588235288566 0.2367342925725218 0
237 1.570588235288566 0.270870023731237 0
238 1.570588235288566 0.301592181926929 0
239 1.570588235288566 0.3292421240444958 0
240 1.570588235288566 0.3541270721175838 0
241 1.570588235288566 0.3765235256437109 0
242 1.570588235288566 0.3966803338084144 0
243 1.570588235288566 0.4148214608310879 0
244 1.570588235288566 0.431148474932996 0
245 1.570588235288566 0.4458427875849192 0
246 1.570588235288566 0.4590676690338696 0
247 1.570588235288566 0.4709700624056865 0
248 1.570588235288566 0.4816822163679808 0
249 1.570588235288566 0.491323154978737 0
250 1.938235294110352 0.05780916043476159 0
251 1.938235294110352 0.10983740481613 0
252 1.938235294110352 0.1566628246916573 0
253 1.938235294110352 0.1988057026285023 0
254 1.938235294110352 0.2367342925725218 0
255 1.938235294110352 0.270870023731237 0
256 1.938235294110352 0.301592181926929 0
257 1.938235294110352 0.3292421240444958 0
258 1.938235294110352 0.3541270721175838 0
259 1.938235294110352 0.3765235256437109 0
260 1.938235294110352 0.3966803338084144 0
261 1.938235294110352 0.4148214608310879 0
262 1.938235294110352 0.431148474932996 0
263 1.938235294110352 0.4458427875849192 0
264 1.938235294110352 0.4590676690338696 0
265 1.938235294110352 0.4709700624056865 0
266 1.938235294110352 0.4816822163679808 0
267 1.938235294110352 0.491323154978737 0
268 2.305882352931973 0.05780916043476159 0
269 2.305882352931973 0.1098374048161299 0
270 2.305882352931972 0.1566628246916573 0
271 2.305882352931973 0.1988057026285023 0
272 2.305882352931973 0.2367342925725218 0
273 2.305882352931972 0.270870023731237 0
274 2.305882352931972 0.301592181926929 0
275 2.305882352931972 0.3292421240444957 0
276 2.305882352931972 0.3541270721175838 0
277 2.305882352931972 0.3765235256437109 0
278 2.305882352931972 0.3966803338084144 0
279 2.305882352931972 0.4148214608310879 0
280 2.305882352931972 0.4311484749329961 0
281 2.305882352931972 0.4458427875849192 0
282 2.305882352931972 0.4590676690338696 0
283 2.305882352931972 0.4709700624056865 0
284 2.305882352931972 0.4816822163679807 0
285 2.305882352931972 0.491323154978737 0
286 2.673529411753592 0.0578091604347616 0
287 2.673529411753591 0.10983740481613 0
288 2.673529411753592 0.1566628246916573 0
289 2.673529411753592 0.1988057026285023 0
290 2.673529411753592 0.2367342925725218 0
291 2.673529411753592 0.270870023731237 0
292 2.673529411753592 0.301592181926929 0
293 2.673529411753592 0.3292421240444958 0
294 2.673529411753592 0.3541270721175837 0
295 2.673529411753592 0.3765235256437109 0
296 2.673529411753592 0.3966803338084144 0
297 2.673529411753593 0.4148214608310879 0
298 2.673529411753592 0.431148474932996 0
299 2.673529411753592 0.4458427875849192 0
300 2.673529411753592 0.4590676690338696 0
301 2.673529411753593 0.4709700624056865 0
302 2.673529411753592 0.4816822163679808 0
303 2.673529411753592 0.491323154978737 0
304 3.041176470575212 0.05780916043476159 0
305 3.041176470575212 0.10983740481613 0
306 3.041176470575214 0.1566628246916573 0
307 3.041176470575213 0.1988057026285023 0
308 3.041176470575213 0.2367342925725218 0
309 3.041176470575213 0.270870023731237 0
310 3.041176470575212 0.301592181926929 0
311 3.041176470575212 0.3292421240444958 0
312 3.041176470575213 0.3541270721175838 0
313 3.041176470575212 0.3765235256437109 0
314 3.041176470575212 0.3966803338084144 0
315 3.041176470575213 0.4148214608310879 0
316 3.041176470575212 0.431148474932996 0
317 3.041176470575212 0.4458427875849192 0
318 3.041176470575213 0.4590676690338696 0
319 3.041176470575213 0.4709700624056865 0
320 3.041176470575213 0.4816822163679808 0
321 3.041176470575213 0.491323154978737 0
322 3.408823529396834 0.05780916043476159 0
323 3.408823529396835 0.10983740481613 0
324 3.408823529396834 0.1566628246916573 0
325 3.408823529396834 0.1988057026285023 0
326 3.408823529396834 0.2367342925725218 0
327 3.408823529396834 0.2708700237312369 0
328 3.408823529396834 0.301592181926929 0
329 3.408823529396834 0.3292421240444958 0
330 3.408823529396834 0.3541270721175838 0
331 3.408823529396834 0.3765235256437109 0
332 3.408823529396834 0.3966803338084144 0
333 3.408823529396834 0.4148214608310878 0
334 3.408823529396834 0.4311484749329961 0
335 3.408823529396834 0.4458427875849192 0
336 3.408823529396834 0.4590676690338696 0
337 3.408823529396834 0.4709700624056864 0
338 3.408823529396834 0.4816822163679807 0
339 3.408823529396834 0.4913231549787369 0
340 3.776470588218456 0.05780916043476159 0
341 3.776470588218455 0.1098374048161299 0
342 3.776470588218454 0.1566628246916573 0
343 3.776470588218456 0.1988057026285023 0
344 3.776470588218456 0.2367342925725218 0
345 3.776470588218456 0.270870023731237 0
346 3.776470588218457 0.301592181926929 0
347 3.776470588218455 0.3292421240444958 0
348 3.776470588218455 0.3541270721175838 0
349 3.776470588218456 0.3765235256437108 0
350 3.776470588218455 0.3966803338084144 0
351 3.776470588218456 0.4148214608310879 0
352 3.776470588218455 0.431148474932996 0
353 3.776470588218456 0.4458427875849192 0
354 3.776470588218455 0.4590676690338696 0
355 3.776470588218455 0.4709700624056865 0
356 3.776470588218455 0.4816822163679808 0
357 3.776470588218455 0.491323154978737 0
358 4.144117647040393 0.05780916043476159 0
359 4.144117647040392 0.1098374048161299 0
360 4.144117647040392 0.1566628246916573 0
361 4.144117647040394 0.1988057026285023 0
362 4.144117647040393 0.2367342925725218 0
363 4.144117647040392 0.2708700237312369 0
364 4.144117647040394 0.301592181926929 0
365 4.144117647040392 0.3292421240444958 0
366 4.144117647040393 0.3541270721175838 0
367 4.144117647040394 0.3765235256437109 0
368 4.144117647040394 0.3966803338084144 0
369 4.144117647040392 0.4148214608310879 0
370 4.144117647040392 0.431148474932996 0
371 4.144117647040392 0.4458427875849192 0
372 4.144117647040394 0.4590676690338695 0
373 4.144117647040394 0.4709700624056864 0
374 4.144117647040392 0.4816822163679807 0
375 4.144117647040392 0.4913231549787369 0
376 4.511764705863321 0.05780916043476159 0
377 4.511764705863322 0.10983740481613 0
378 4.511764705863322 0.1566628246916573 0
379 4.511764705863322 0.1988057026285023 0
380 4.511764705863322 0.2367342925725218 0
381 4.511764705863321 0.270870023731237 0
382 4.511764705863322 0.301592181926929 0
383 4.511764705863321 0.3292421240444958 0
384 4.511764705863322 0.3541270721175838 0
385 4.511764705863322 0.3765235256437109 0
386 4.511764705863322 0.3966803338084144 0
387 4.511764705863322 0.414821460831088 0
388 4.511764705863322 0.431148474932996 0
389 4.511764705863321 0.4458427875849192 0
390 4.511764705863321 0.4590676690338696 0
391 4.511764705863322 0.4709700624056865 0
392 4.511764705863322 0.4816822163679807 0
393 4.511764705863322 0.491323154978737 0
394 4.87941176468625 0.05780916043476159 0
395 4.879411764686249 0.10983740481613 0
396 4.879411764686251 0.1566628246916573 0
397 4.879411764686248 0.1988057026285023 0
398 4.87941176468625 0.2367342925725218 0
399 4.87941176468625 0.270870023731237 0
400 4.87941176468625 0.301592181926929 0
401 4.879411764686249 0.3292421240444958 0
402 4.879411764686249 0.3541270721175838 0
403 4.879411764686251 0.3765235256437109 0
404 4.879411764686249 0.3966803338084144 0
405 4.87941176468625 0.4148214608310879 0
406 4.87941176468625 0.431148474932996 0
407 4.87941176468625 0.4458427875849192 0
408 4.87941176468625 0.4590676690338695 0
409 4.87941176468625 0.4709700624056864 0
410 4.87941176468625 0.4816822163679808 0
411 4.87941176468625 0.491323154978737 0
412 5.247058823509176 0.05780916043476159 0
413 5.247058823509176 0.1098374048161299 0
414 5.247058823509176 0.1566628246916573 0
415 5.247058823509176 0.1988057026285023 0
416 5.247058823509176 0.2367342925725218 0
417 5.247058823509176 0.270870023731237 0
418 5.247058823509176 0.301592181926929 0
419 5.247058823509176 0.3292421240444957 0
420 5.247058823509176 0.3541270721175838 0
421 5.247058823509176 0.3765235256437108 0
422 5.247058823509177 0.3966803338084144 0
423 5.247058823509175 0.4148214608310878 0
424 5.247058823509176 0.431148474932996 0
425 5.247058823509176 0.4458427875849192 0
426 5.247058823509176 0.4590676690338696 0
427 5.247058823509176 0.4709700624056865 0
428 5.247058823509176 0.4816822163679807 0
429 5.247058823509176 0.491323154978737 0
430 5.614705882332106 0.05780916043476159 0
431 5.614705882332104 0.1098374048161299 0
432 5.614705882332105 0.1566628246916573 0
433 5.614705882332104 0.1988057026285023 0
434 5.614705882332106 0.2367342925725218 0
435 5.614705882332106 0.270870023731237 0
436 5.614705882332103 0.301592181926929 0
437 5.614705882332106 0.3292421240444957 0
438 5.614705882332105 0.3541270721175838 0
439 5.614705882332107 0.3765235256437108 0
440 5.614705882332106 0.3966803338084144 0
441 5.614705882332106 0.4148214608310878 0
442 5.614705882332106 0.431148474932996 0
443 5.614705882332106 0.4458427875849192 0
444 5.614705882332106 0.4590676690338695 0
445 5.614705882332106 0.4709700624056864 0
446 5.614705882332106 0.4816822163679807 0
447 5.614705882332106 0.4913231549787369 0
448 5.982352941155034 0.05780916043476159 0
449 5.982352941155032 0.10983740481613 0
450 5.982352941155034 0.1566628246916573 0
451 5.982352941155031 0.1988057026285023 0
452 5.982352941155033 0.2367342925725218 0
453 5.982352941155034 0.270870023731237 0
454 5.982352941155032 0.301592181926929 0
455 5.982352941155033 0.3292421240444958 0
456 5.982352941155032 0.3541270721175838 0
457 5.982352941155032 0.3765235256437109 0
458 5.982352941155032 0.3966803338084144 0
459 5.982352941155031 0.4148214608310879 0
460 5.982352941155032 0.431148474932996 0
461 5.982352941155032 0.4458427875849192 0
462 5.982352941155031 0.4590676690338696 0
463 5.982352941155031 0.4709700624056865 0
464 5.982352941155031 0.4816822163679808 0
465 5.982352941155032 0.4913231549787369 0
466 6.34999999997796 0.0578091604347616 0
467 6.349999999977961 0.10983740481613 0
468 6.34999999997796 0.1566628246916573 0
469 6.349999999977962 0.1988057026285023 0
470 6.34999999997796 0.2367342925725218 0
471 6.349999999977961 0.270870023731237 0
472 6.349999999977961 0.301592181926929 0
473 6.349999999977961 0.3292421240444958 0
474 6.34999999997796 0.3541270721175838 0
475 6.34999999997796 0.3765235256437109 0
476 6.349999999977961 0.3966803338084144 0
477 6.349999999977961 0.414821460831088 0
478 6.349999999977961 0.431148474932996 0
479 6.34999999997796 0.4458427875849192 0
480 6.349999999977961 0.4590676690338696 0
481 6.349999999977961 0.4709700624056865 0
482 6.349999999977961 0.4816822163679808 0
483 6.349999999977961 0.491323154978737 0
484 6.717647058800888 0.05780916043476159 0
485 6.717647058800889 0.10983740481613 0
486 6.717647058800885 0.1566628246916573 0
487 6.717647058800886 0.1988057026285023 0
488 6.717647058800887 0.2367342925725218 0
489 6.717647058800885 0.270870023731237 0
490 6.717647058800888 0.301592181926929 0
491 6.717647058800885 0.3292421240444958 0
492 6.717647058800885 0.3541270721175838 0
493 6.717647058800888 0.3765235256437109 0
494 6.717647058800889 0.3966803338084144 0
495 6.717647058800888 0.4148214608310879 0
496 6.717647058800888 0.431148474932996 0
497 6.717647058800888 0.4458427875849192 0
498 6.717647058800888 0.4590676690338696 0
499 6.717647058800887 0.4709700624056865 0
500 6.717647058800887 0.4816822163679808 0
501 6.717647058800888 0.491323154978737 0
502 7.085294117623817 0.05780916043476159 0
503 7.085294117623816 0.10983740481613 0
504 7.085294117623816 0.1566628246916573 0
505 7.085294117623817 0.1988057026285023 0
506 7.085294117623816 0.2367342925725218 0
507 7.085294117623817 0.270870023731237 0
508 7.085294117623817 0.301592181926929 0
509 7.085294117623814 0.3292421240444958 0
510 7.085294117623817 0.3541270721175838 0
511 7.085294117623816 0.3765235256437109 0
512 7.085294117623815 0.3966803338084144 0
513 7.085294117623817 0.4148214608310879 0
514 7.085294117623817 0.431148474932996 0
515 7.085294117623817 0.4458427875849192 0
516 7.085294117623817 0.4590676690338696 0
517 7.085294117623818 0.4709700624056865 0
518 7.085294117623818 0.4816822163679807 0
519 7.085294117623817 0.491323154978737 0
520 7.452941176446743 0.05780916043476159 0
521 7.452941176446743 0.10983740481613 0
522 7.452941176446743 0.1566628246916573 0
523 7.452941176446744 0.1988057026285023 0
524 7.452941176446744 0.2367342925725218 0
525 7.452941176446743 0.270870023731237 0
526 7.452941176446743 0.301592181926929 0
527 7.452941176446743 0.3292421240444958 0
528 7.452941176446743 0.3541270721175838 0
529 7.452941176446743 0.3765235256437109 0
530 7.452941176446743 0.3966803338084144 0
531 7.452941176446743 0.4148214608310879 0
532 7.452941176446743 0.431148474932996 0
533 7.452941176446743 0.4458427875849192 0
534 7.452941176446743 0.4590676690338696 0
535 7.452941176446743 0.4709700624056865 0
536 7.452941176446743 0.4816822163679808 0
537 7.452941176446743 0.491323154978737 0
538 7.820588235269669 0.05780916043476159 0
539 7.820588235269672 0.10983740481613 0
540 7.820588235269673 0.1566628246916573 0
541 7.820588235269671 0.1988057026285023 0
542 7.820588235269671 0.2367342925725218 0
543 7.820588235269671 0.270870023731237 0
544 7.820588235269671 0.301592181926929 0
545 7.820588235269673 0.3292421240444958 0
546 7.820588235269672 0.3541270721175838 0
547 7.820588235269672 0.3765235256437109 0
548 7.820588235269672 0.3966803338084144 0
549 7.820588235269673 0.4148214608310879 0
550 7.820588235269671 0.431148474932996 0
551 7.820588235269671 0.4458427875849192 0
552 7.820588235269672 0.4590676690338696 0
553 7.820588235269672 0.4709700624056865 0
554 7.820588235269671 0.4816822163679808 0
555 7.820588235269672 0.4913231549787369 0
556 8.188235294093516 0.0578091604347616 0
557 8.18823529409352 0.1098374048161299 0
558 8.188235294093518 0.1566628246916573 0
559 8.188235294093518 0.1988057026285023 0
560 8.188235294093518 0.2367342925725218 0
561 8.18823529409352 0.270870023731237 0
562 8.188235294093518 0.301592181926929 0
563 8.188235294093516 0.3292421240444958 0
564 8.188235294093518 0.3541270721175838 0
565 8.188235294093518 0.3765235256437109 0
566 8.18823529409352 0.3966803338084144 0
567 8.188235294093518 0.4148214608310879 0
568 8.188235294093518 0.431148474932996 0
569 8.188235294093518 0.4458427875849192 0
570 8.188235294093518 0.4590676690338696 0
571 8.188235294093518 0.4709700624056865 0
572 8.188235294093518 0.4816822163679808 0
573 8.188235294093518 0.4913231549787369 0
574 8.555882352919054 0.05780916043476159 0
575 8.555882352919056 0.10983740481613 0
576 8.555882352919054 0.1566628246916573 0
577 8.555882352919054 0.1988057026285023 0
578 8.555882352919054 0.2367342925725218 0
579 8.555882352919056 0.270870023731237 0
580 8.555882352919056 0.301592181926929 0
581 8.555882352919056 0.3292421240444958 0
582 8.555882352919056 0.3541270721175838 0
583 8.555882352919056 0.3765235256437109 0
584 8.555882352919056 0.3966803338084144 0
585 8.555882352919056 0.4148214608310879 0
586 8.555882352919056 0.431148474932996 0
587 8.555882352919054 0.4458427875849192 0
588 8.555882352919054 0.4590676690338696 0
589 8.555882352919054 0.4709700624056865 0
590 8.555882352919056 0.4816822163679807 0
591 8.555882352919056 0.4913231549787369 0
592 8.923529411744598 0.05780916043476159 0
593 8.923529411744598 0.10983740481613 0
594 8.9235294117446 0.1566628246916573 0
595 8.923529411744598 0.1988057026285023 0
596 8.923529411744598 0.2367342925725218 0
597 8.923529411744598 0.270870023731237 0
598 8.923529411744598 0.301592181926929 0
599 8.9235294117446 0.3292421240444958 0
600 8.9235294117446 0.3541270721175838 0
601 8.923529411744598 0.3765235256437109 0
602 8.923529411744598 0.3966803338084144 0
603 8.9235294117446 0.4148214608310879 0
604 8.923529411744598 0.431148474932996 0
605 8.923529411744598 0.4458427875849192 0
606 8.923529411744598 0.4590676690338696 0
607 8.923529411744598 0.4709700624056865 0
608 8.923529411744598 0.4816822163679808 0
609 8.923529411744598 0.491323154978737 0
610 9.291176470570134 0.05780916043476159 0
611 9.291176470570139 0.1098374048161299 0
612 9.291176470570138 0.1566628246916573 0
613 9.291176470570138 0.1988057026285023 0
614 9.291176470570136 0.2367342925725218 0
615 9.291176470570138 0.270870023731237 0
616 9.291176470570138 0.301592181926929 0
617 9.291176470570138 0.3292421240444958 0
618 9.291176470570139 0.3541270721175838 0
619 9.291176470570138 0.3765235256437109 0
620 9.291176470570138 0.3966803338084144 0
621 9.291176470570138 0.4148214608310879 0
622 9.291176470570138 0.431148474932996 0
623 9.291176470570138 0.4458427875849192 0
624 9.291176470570139 0.4590676690338696 0
625 9.291176470570138 0.4709700624056865 0
626 9.291176470570136 0.4816822163679808 0
627 9.291176470570138 0.491323154978737 0
628 9.658823529395677 0.05780916043476159 0
629 9.658823529395679 0.10983740481613 0
630 9.658823529395679 0.1566628246916573 0
631 9.658823529395679 0.1988057026285023 0
632 9.658823529395679 0.2367342925725218 0
633 9.658823529395679 0.270870023731237 0
634 9.658823529395679 0.301592181926929 0
635 9.658823529395679 0.3292421240444958 0
636 9.658823529395677 0.3541270721175838 0
637 9.658823529395679 0.3765235256437109 0
638 9.658823529395679 0.3966803338084144 0
639 9.658823529395677 0.4148214608310879 0
640 9.658823529395677 0.431148474932996 0
641 9.658823529395679 0.4458427875849192 0
642 9.658823529395677 0.4590676690338696 0
643 9.658823529395681 0.4709700624056864 0
644 9.658823529395679 0.4816822163679808 0
645 9.658823529395679 0.491323154978737 0
646 10.02647058822122 0.05780916043476159 0
647 10.02647058822122 0.1098374048161299 0
648 10.02647058822122 0.1566628246916573 0
649 10.02647058822122 0.1988057026285023 0
650 10.02647058822122 0.2367342925725218 0
651 10.02647058822122 0.270870023731237 0
652 10.02647058822122 0.301592181926929 0
653 10.02647058822122 0.3292421240444957 0
654 10.02647058822122 0.3541270721175838 0
655 10.02647058822122 0.3765235256437109 0
656 10.02647058822122 0.3966803338084144 0
657 10.02647058822122 0.4148214608310879 0
658 10.02647058822122 0.431148474932996 0
659 10.02647058822122 0.4458427875849192 0
660 10.02647058822122 0.4590676690338696 0
661 10.02647058822122 0.4709700624056865 0
662 10.02647058822122 0.4816822163679808 0
663 10.02647058822122 0.491323154978737 0
664 10.39411764704676 0.05780916043476159 0
665 10.39411764704676 0.10983740481613 0
666 10.39411764704676 0.1566628246916573 0
667 10.39411764704676 0.1988057026285023 0
668 10.39411764704676 0.2367342925725218 0
669 10.39411764704676 0.270870023731237 0
670 10.39411764704676 0.301592181926929 0
671 10.39411764704676 0.3292421240444958 0
672 10.39411764704676 0.3541270721175838 0
673 10.39411764704676 0.3765235256437109 0
674 10.39411764704676 0.3966803338084144 0
675 10.39411764704676 0.414821460831088 0
676 10.39411764704676 0.431148474932996 0
677 10.39411764704676 0.4458427875849192 0
678 10.39411764704676 0.4590676690338696 0
679 10.39411764704676 0.4709700624056864 0
680 10.39411764704676 0.4816822163679807 0
681 10.39411764704676 0.491323154978737 0
682 10.7617647058723 0.0578091604347616 0
683 10.7617647058723 0.10983740481613 0
684 10.7617647058723 0.1566628246916573 0
685 10.7617647058723 0.1988057026285023 0
686 10.7617647058723 0.2367342925725218 0
687 10.7617647058723 0.270870023731237 0
688 10.7617647058723 0.301592181926929 0
689 10.7617647058723 0.3292421240444958 0
690 10.7617647058723 0.3541270721175838 0
691 10.7617647058723 0.3765235256437109 0
692 10.7617647058723 0.3966803338084144 0
693 10.7617647058723 0.414821460831088 0
694 10.7617647058723 0.431148474932996 0
695 10.7617647058723 0.4458427875849192 0
696 10.7617647058723 0.4590676690338696 0
697 10.7617647058723 0.4709700624056865 0
698 10.7617647058723 0.4816822163679808 0
699 10.7617647058723 0.491323154978737 0
700 11.12941176469784 0.0578091604347616 0
701 11.12941176469784 0.10983740481613 0
702 11.12941176469784 0.1566628246916573 0
703 11.12941176469784 0.1988057026285023 0
704 11.12941176469784 0.2367342925725218 0
705 11.12941176469784 0.270870023731237 0
706 11.12941176469784 0.301592181926929 0
707 11.12941176469784 0.3292421240444958 0
708 11.12941176469784 0.3541270721175838 0
709 11.12941176469784 0.3765235256437109 0
710 11.12941176469784 0.3966803338084144 0
711 11.12941176469784 0.4148214608310879 0
712 11.12941176469784 0.431148474932996 0
713 11.12941176469784 0.4458427875849192 0
714 11.12941176469784 0.4590676690338695 0
715 11.12941176469784 0.4709700624056865 0
716 11.12941176469784 0.4816822163679808 0
717 11.12941176469784 0.4913231549787369 0
718 11.49705882352338 0.05780916043476159 0
719 11.49705882352338 0.10983740481613 0
720 11.49705882352338 0.1566628246916573 0
721 11.49705882352338 0.1988057026285023 0
722 11.49705882352338 0.2367342925725218 0
723 11.49705882352338 0.270870023731237 0
724 11.49705882352338 0.301592181926929 0
725 11.49705882352338 0.3292421240444958 0
726 11.49705882352338 0.3541270721175838 0
727 11.49705882352338 0.3765235256437108 0
728 11.49705882352338 0.3966803338084144 0
729 11.49705882352338 0.4148214608310879 0
730 11.49705882352338 0.431148474932996 0
731 11.49705882352338 0.4458427875849192 0
732 11.49705882352338 0.4590676690338696 0
733 11.49705882352338 0.4709700624056865 0
734 11.49705882352338 0.4816822163679808 0
735 11.49705882352338 0.491323154978737 0
736 11.86470588234892 0.05780916043476159 0
737 11.86470588234892 0.10983740481613 0
738 11.86470588234892 0.1566628246916573 0
739 11.86470588234892 0.1988057026285023 0
740 11.86470588234892 0.2367342925725218 0
741 11.86470588234892 0.270870023731237 0
742 11.86470588234892 0.301592181926929 0
743 11.86470588234892 0.3292421240444958 0
744 11.86470588234892 0.3541270721175838 0
745 11.86470588234892 0.3765235256437109 0
746 11.86470588234892 0.3966803338084144 0
747 11.86470588234892 0.4148214608310879 0
748 11.86470588234892 0.431148474932996 0
749 11.86470588234892 0.4458427875849192 0
750 11.86470588234892 0.4590676690338696 0
751 11.86470588234892 0.4709700624056865 0
752 11.86470588234892 0.4816822163679808 0
753 11.86470588234892 0.491323154978737 0
754 12.23235294117446 0.05780916043476159 0
755 12.23235294117446 0.10983740481613 0
756 12.23235294117446 0.1566628246916573 0
757 12.23235294117446 0.1988057026285023 0
758 12.23235294117446 0.2367342925725218 0
759 12.23235294117446 0.270870023731237 0
760 12.23235294117446 0.301592181926929 0
761 12.23235294117445 0.3292421240444958 0
762 12.23235294117446 0.3541270721175838 0
763 12.23235294117446 0.3765235256437109 0
764 12.23235294117446 0.3966803338084144 0
765 12.23235294117446 0.4148214608310879 0
766 12.23235294117446 0.431148474932996 0
767 12.23235294117446 0.4458427875849192 0
768 12.23235294117446 0.4590676690338696 0
769 12.23235294117446 0.4709700624056865 0
770 12.23235294117446 0.4816822163679808 0
771 12.23235294117446 0.491323154978737 0
772 0.4676470588220832 0.5097734341761107 0
773 0.4676470588220831 0.5205242114053705 0
774 0.4676470588220831 0.5323500664852846 0
775 0.4676470588220832 0.5453585073733467 0
776 0.4676470588220832 0.5596677923930075 0
777 0.4676470588220831 0.5754080056885179 0
778 0.4676470588220831 0.5927222402777259 0
779 0.4676470588220832 0.6117678984141394 0
780 0.4676470588220832 0.6327181225216215 0
781 0.4676470588220832 0.6557633690888461 0
782 0.4676470588220831 0.6811131400509237 0
783 0.4676470588220832 0.7089978881794905 0
784 0.4676470588220832 0.7396711110890848 0
785 0.467647058822083 0.7734116561348366 0
786 0.4676470588220831 0.8105262559115857 0
787 0.4676470588220832 0.8513523157685861 0
788 0.4676470588220831 0.8962609816425179 0
789 0.4676470588220832 0.9456605141417459 0
790 0.8352941176440735 0.5097734341761107 0
791 0.8352941176440734 0.5205242114053705 0
792 0.8352941176440735 0.5323500664852846 0
793 0.8352941176440734 0.5453585073733467 0
794 0.8352941176440736 0.5596677923930072 0
795 0.8352941176440734 0.5754080056885179 0
796 0.8352941176440737 0.5927222402777259 0
797 0.8352941176440732 0.6117678984141394 0
798 0.8352941176440735 0.6327181225216217 0
799 0.8352941176440731 0.6557633690888465 0
800 0.8352941176440737 0.6811131400509239 0
801 0.8352941176440734 0.7089978881794905 0
802 0.8352941176440734 0.7396711110890848 0
803 0.8352941176440734 0.7734116561348366 0
804 0.8352941176440735 0.810526255911586 0
805 0.8352941176440737 0.8513523157685861 0
806 0.8352941176440734 0.8962609816425179 0
807 0.8352941176440736 0.9456605141417459 0
808 1.202941176466295 0.5097734341761107 0
809 1.202941176466295 0.5205242114053705 0
810 1.202941176466295 0.5323500664852846 0
811 1.202941176466295 0.5453585073733467 0
812 1.202941176466295 0.5596677923930075 0
813 1.202941176466295 0.5754080056885181 0
814 1.202941176466295 0.5927222402777259 0
815 1.202941176466295 0.6117678984141394 0
816 1.202941176466294 0.6327181225216217 0
817 1.202941176466295 0.6557633690888464 0
818 1.202941176466295 0.6811131400509238 0
819 1.202941176466295 0.7089978881794905 0
820 1.202941176466295 0.7396711110890848 0
821 1.202941176466295 0.7734116561348366 0
822 1.202941176466295 0.8105262559115858 0
823 1.202941176466295 0.8513523157685861 0
824 1.202941176466295 0.8962609816425179 0
825 1.202941176466295 0.9456605141417459 0
826 1.570588235288565 0.5097734341761107 0
827 1.570588235288566 0.5205242114053705 0
828 1.570588235288565 0.5323500664852846 0
829 1.570588235288565 0.5453585073733467 0
830 1.570588235288565 0.5596677923930075 0
831 1.570588235288566 0.5754080056885181 0
832 1.570588235288566 0.5927222402777259 0
833 1.570588235288566 0.6117678984141394 0
834 1.570588235288565 0.6327181225216217 0
835 1.570588235288566 0.6557633690888462 0
836 1.570588235288565 0.6811131400509238 0
837 1.570588235288566 0.7089978881794905 0
838 1.570588235288566 0.7396711110890848 0
839 1.570588235288565 0.7734116561348366 0
840 1.570588235288566 0.8105262559115858 0
841 1.570588235288566 0.8513523157685861 0
842 1.570588235288566 0.8962609816425179 0
843 1.570588235288566 0.9456605141417459 0
844 1.938235294110352 0.5097734341761107 0
845 1.938235294110352 0.5205242114053705 0
846 1.938235294110352 0.5323500664852846 0
847 1.938235294110352 0.5453585073733467 0
848 1.938235294110352 0.5596677923930075 0
849 1.938235294110352 0.5754080056885181 0
850 1.938235294110352 0.5927222402777259 0
851 1.938235294110352 0.6117678984141394 0
852 1.938235294110352 0.6327181225216216 0
853 1.938235294110352 0.6557633690888462 0
854 1.938235294110352 0.6811131400509238 0
855 1.938235294110352 0.7089978881794905 0
856 1.938235294110352 0.7396711110890848 0
857 1.938235294110352 0.7734116561348366 0
858 1.938235294110352 0.8105262559115858 0
859 1.938235294110352 0.8513523157685861 0
860 1.938235294110352 0.8962609816425178 0
861 1.938235294110352 0.9456605141417458 0
862 2.305882352931972 0.5097734341761107 0
863 2.305882352931971 0.5205242114053705 0
864 2.305882352931972 0.5323500664852846 0
865 2.305882352931972 0.5453585073733468 0
866 2.305882352931973 0.5596677923930075 0
867 2.305882352931972 0.5754080056885181 0
868 2.305882352931972 0.5927222402777259 0
869 2.305882352931972 0.6117678984141394 0
870 2.305882352931973 0.6327181225216219 0
871 2.305882352931972 0.6557633690888464 0
872 2.305882352931972 0.6811131400509239 0
873 2.305882352931972 0.7089978881794905 0
874 2.305882352931971 0.7396711110890848 0
875 2.305882352931972 0.7734116561348366 0
876 2.305882352931973 0.810526255911586 0
877 2.305882352931973 0.8513523157685861 0
878 2.305882352931972 0.8962609816425178 0
879 2.305882352931972 0.9456605141417458 0
880 2.673529411753592 0.5097734341761105 0
881 2.673529411753592 0.5205242114053705 0
882 2.673529411753592 0.5323500664852846 0
883 2.673529411753592 0.5453585073733467 0
884 2.673529411753592 0.5596677923930075 0
885 2.673529411753592 0.5754080056885181 0
886 2.673529411753593 0.5927222402777259 0
887 2.673529411753592 0.6117678984141394 0
888 2.673529411753593 0.6327181225216216 0
889 2.673529411753592 0.6557633690888464 0
890 2.673529411753593 0.6811131400509239 0
891 2.673529411753592 0.7089978881794905 0
892 2.673529411753593 0.7396711110890848 0
893 2.673529411753592 0.7734116561348365 0
894 2.673529411753592 0.8105262559115859 0
895 2.673529411753592 0.8513523157685861 0
896 2.673529411753592 0.8962609816425178 0
897 2.673529411753592 0.9456605141417459 0
898 3.041176470575214 0.5097734341761107 0
899 3.041176470575213 0.5205242114053705 0
900 3.041176470575213 0.5323500664852846 0
901 3.041176470575213 0.5453585073733467 0
902 3.041176470575214 0.5596677923930075 0
903 3.041176470575214 0.5754080056885181 0
904 3.041176470575213 0.5927222402777259 0
905 3.041176470575212 0.6117678984141394 0
906 3.041176470575214 0.6327181225216217 0
907 3.041176470575213 0.6557633690888464 0
908 3.041176470575213 0.6811131400509239 0
909 3.041176470575214 0.7089978881794905 0
910 3.041176470575212 0.7396711110890848 0
911 3.041176470575212 0.7734116561348366 0
912 3.041176470575212 0.8105262559115859 0
913 3.041176470575212 0.8513523157685861 0
914 3.041176470575212 0.8962609816425178 0
915 3.041176470575212 0.9456605141417457 0
916 3.408823529396834 0.5097734341761107 0
917 3.408823529396836 0.5205242114053705 0
918 3.408823529396835 0.5323500664852846 0
919 3.408823529396834 0.5453585073733467 0
920 3.408823529396834 0.5596677923930075 0
921 3.408823529396834 0.5754080056885179 0
922 3.408823529396834 0.5927222402777259 0
923 3.408823529396833 0.6117678984141391 0
924 3.408823529396834 0.6327181225216217 0
925 3.408823529396835 0.6557633690888465 0
926 3.408823529396834 0.6811131400509239 0
927 3.408823529396834 0.7089978881794905 0
928 3.408823529396834 0.7396711110890848 0
929 3.408823529396834 0.7734116561348364 0
930 3.408823529396834 0.8105262559115858 0
931 3.408823529396834 0.8513523157685861 0
932 3.408823529396834 0.8962609816425178 0
933 3.408823529396834 0.945660514141746 0
934 3.776470588218455 0.5097734341761107 0
935 3.776470588218456 0.5205242114053705 0
936 3.776470588218456 0.5323500664852846 0
937 3.776470588218455 0.5453585073733467 0
938 3.776470588218456 0.5596677923930075 0
939 3.776470588218455 0.5754080056885181 0
940 3.776470588218455 0.5927222402777259 0
941 3.776470588218455 0.6117678984141394 0
942 3.776470588218455 0.6327181225216217 0
943 3.776470588218456 0.6557633690888464 0
944 3.776470588218455 0.6811131400509239 0
945 3.776470588218455 0.7089978881794905 0
946 3.776470588218455 0.7396711110890848 0
947 3.776470588218456 0.7734116561348366 0
948 3.776470588218456 0.8105262559115859 0
949 3.776470588218456 0.8513523157685861 0
950 3.776470588218455 0.8962609816425179 0
951 3.776470588218455 0.9456605141417458 0
952 4.144117647040394 0.5097734341761107 0
953 4.144117647040394 0.5205242114053705 0
954 4.144117647040394 0.5323500664852846 0
955 4.144117647040394 0.5453585073733467 0
956 4.144117647040393 0.5596677923930075 0
957 4.144117647040394 0.5754080056885181 0
958 4.144117647040392 0.5927222402777259 0
959 4.144117647040393 0.6117678984141394 0
960 4.144117647040392 0.6327181225216217 0
961 4.144117647040393 0.6557633690888464 0
962 4.144117647040392 0.6811131400509237 0
963 4.144117647040392 0.7089978881794905 0
964 4.144117647040394 0.7396711110890848 0
965 4.144117647040392 0.7734116561348368 0
966 4.144117647040392 0.8105262559115858 0
967 4.144117647040392 0.8513523157685861 0
968 4.144117647040392 0.896260981642518 0
969 4.144117647040392 0.9456605141417457 0
970 4.511764705863321 0.5097734341761107 0
971 4.511764705863321 0.5205242114053705 0
972 4.511764705863321 0.5323500664852846 0
973 4.511764705863324 0.5453585073733467 0
974 4.51176470586332 0.5596677923930075 0
975 4.511764705863322 0.5754080056885181 0
976 4.511764705863321 0.5927222402777259 0
977 4.511764705863322 0.6117678984141394 0
978 4.511764705863322 0.6327181225216217 0
979 4.511764705863321 0.6557633690888464 0
980 4.511764705863321 0.6811131400509239 0
981 4.511764705863321 0.7089978881794905 0
982 4.511764705863322 0.7396711110890848 0
983 4.511764705863322 0.7734116561348366 0
984 4.511764705863322 0.8105262559115859 0
985 4.511764705863321 0.8513523157685861 0
986 4.511764705863322 0.896260981642518 0
987 4.511764705863322 0.945660514141746 0
988 4.879411764686249 0.5097734341761107 0
989 4.87941176468625 0.5205242114053705 0
990 4.87941176468625 0.5323500664852846 0
991 4.879411764686248 0.5453585073733467 0
992 4.87941176468625 0.5596677923930075 0
993 4.87941176468625 0.5754080056885181 0
994 4.87941176468625 0.5927222402777259 0
995 4.87941176468625 0.6117678984141394 0
996 4.879411764686251 0.6327181225216217 0
997 4.87941176468625 0.6557633690888464 0
998 4.87941176468625 0.6811131400509239 0
999 4.879411764686249 0.7089978881794905 0
1000 4.87941176468625 0.7396711110890848 0
1001 4.879411764686249 0.7734116561348366 0
1002 4.87941176468625 0.8105262559115859 0
1003 4.87941176468625 0.8513523157685861 0
1004 4.879411764686249 0.8962609816425179 0
1005 4.87941176468625 0.9456605141417459 0
1006 5.247058823509173 0.5097734341761107 0
1007 5.247058823509176 0.5205242114053705 0
1008 5.247058823509176 0.5323500664852846 0
1009 5.247058823509176 0.5453585073733467 0
1010 5.247058823509176 0.5596677923930072 0
1011 5.247058823509176 0.5754080056885181 0
1012 5.247058823509176 0.5927222402777259 0
1013 5.247058823509177 0.6117678984141391 0
1014 5.247058823509176 0.6327181225216217 0
1015 5.247058823509176 0.6557633690888464 0
1016 5.247058823509176 0.6811131400509237 0
1017 5.247058823509174 0.7089978881794905 0
1018 5.247058823509176 0.7396711110890848 0
1019 5.247058823509176 0.7734116561348368 0
1020 5.247058823509176 0.8105262559115857 0
1021 5.247058823509176 0.8513523157685861 0
1022 5.247058823509176 0.896260981642518 0
1023 5.247058823509176 0.9456605141417458 0
1024 5.614705882332106 0.5097734341761107 0
1025 5.614705882332104 0.5205242114053705 0
1026 5.614705882332106 0.5323500664852846 0
1027 5.614705882332103 0.5453585073733467 0
1028 5.614705882332104 0.5596677923930075 0
1029 5.614705882332104 0.5754080056885179 0
1030 5.614705882332104 0.5927222402777259 0
1031 5.614705882332105 0.6117678984141394 0
1032 5.614705882332104 0.6327181225216217 0
1033 5.614705882332104 0.6557633690888464 0
1034 5.614705882332104 0.6811131400509238 0
1035 5.614705882332106 0.7089978881794905 0
1036 5.614705882332104 0.7396711110890848 0
1037 5.614705882332104 0.7734116561348368 0
1038 5.614705882332105 0.8105262559115858 0
1039 5.614705882332106 0.8513523157685861 0
1040 5.614705882332107 0.8962609816425177 0
1041 5.614705882332105 0.9456605141417458 0
1042 5.982352941155034 0.5097734341761107 0
1043 5.982352941155031 0.5205242114053705 0
1044 5.982352941155032 0.5323500664852846 0
1045 5.982352941155034 0.5453585073733467 0
1046 5.982352941155032 0.5596677923930075 0
1047 5.982352941155033 0.5754080056885181 0
1048 5.982352941155033 0.5927222402777259 0
1049 5.982352941155032 0.6117678984141394 0
1050 5.982352941155033 0.6327181225216217 0
1051 5.982352941155033 0.6557633690888464 0
1052 5.982352941155034 0.6811131400509239 0
1053 5.982352941155032 0.7089978881794905 0
1054 5.982352941155034 0.7396711110890848 0
1055 5.982352941155031 0.7734116561348366 0
1056 5.982352941155034 0.8105262559115859 0
1057 5.982352941155033 0.8513523157685861 0
1058 5.982352941155032 0.8962609816425179 0
1059 5.982352941155033 0.9456605141417459 0
1060 6.349999999977962 0.5097734341761107 0
1061 6.34999999997796 0.5205242114053705 0
1062 6.349999999977961 0.5323500664852846 0
1063 6.34999999997796 0.5453585073733467 0
1064 6.349999999977959 0.5596677923930075 0
1065 6.349999999977961 0.5754080056885181 0
1066 6.349999999977961 0.5927222402777259 0
1067 6.349999999977961 0.6117678984141394 0
1068 6.349999999977961 0.6327181225216217 0
1069 6.349999999977962 0.6557633690888464 0
1070 6.349999999977963 0.6811131400509239 0
1071 6.34999999997796 0.7089978881794905 0
1072 6.349999999977962 0.7396711110890848 0
1073 6.349999999977961 0.7734116561348366 0
1074 6.34999999997796 0.8105262559115858 0
1075 6.34999999997796 0.8513523157685861 0
1076 6.349999999977961 0.8962609816425178 0
1077 6.34999999997796 0.9456605141417458 0
1078 6.717647058800887 0.5097734341761107 0
1079 6.717647058800885 0.5205242114053705 0
1080 6.717647058800888 0.5323500664852846 0
1081 6.717647058800888 0.5453585073733467 0
1082 6.717647058800886 0.5596677923930075 0
1083 6.717647058800888 0.5754080056885181 0
1084 6.717647058800888 0.5927222402777259 0
1085 6.717647058800887 0.6117678984141394 0
1086 6.717647058800888 0.6327181225216217 0
1087 6.717647058800886 0.6557633690888464 0
1088 6.717647058800888 0.6811131400509238 0
1089 6.717647058800888 0.7089978881794905 0
1090 6.717647058800888 0.7396711110890848 0
1091 6.717647058800889 0.7734116561348366 0
1092 6.717647058800888 0.8105262559115859 0
1093 6.717647058800889 0.8513523157685861 0
1094 6.717647058800886 0.8962609816425179 0
1095 6.717647058800888 0.945660514141746 0
1096 7.085294117623815 0.5097734341761107 0
1097 7.085294117623817 0.5205242114053705 0
1098 7.085294117623816 0.5323500664852846 0
1099 7.085294117623818 0.5453585073733467 0
1100 7.085294117623814 0.5596677923930075 0
1101 7.085294117623815 0.5754080056885181 0
1102 7.085294117623817 0.5927222402777259 0
1103 7.085294117623817 0.6117678984141394 0
1104 7.085294117623818 0.6327181225216217 0
1105 7.085294117623815 0.6557633690888464 0
1106 7.085294117623816 0.6811131400509239 0
1107 7.085294117623815 0.7089978881794905 0
1108 7.085294117623815 0.7396711110890848 0
1109 7.085294117623816 0.7734116561348366 0
1110 7.085294117623817 0.810526255911586 0
1111 7.085294117623815 0.8513523157685861 0
1112 7.085294117623817 0.8962609816425179 0
1113 7.085294117623816 0.9456605141417458 0
1114 7.45294117644674 0.5097734341761107 0
1115 7.452941176446743 0.5205242114053705 0
1116 7.452941176446743 0.5323500664852846 0
1117 7.452941176446743 0.5453585073733467 0
1118 7.452941176446741 0.5596677923930075 0
1119 7.452941176446743 0.5754080056885181 0
1120 7.452941176446743 0.5927222402777259 0
1121 7.452941176446744 0.6117678984141393 0
1122 7.452941176446743 0.6327181225216217 0
1123 7.452941176446743 0.6557633690888462 0
1124 7.452941176446743 0.6811131400509239 0
1125 7.452941176446743 0.7089978881794905 0
1126 7.452941176446743 0.7396711110890848 0
1127 7.452941176446743 0.7734116561348366 0
1128 7.452941176446743 0.810526255911586 0
1129 7.452941176446743 0.8513523157685861 0
1130 7.452941176446743 0.8962609816425179 0
1131 7.452941176446743 0.9456605141417457 0
1132 7.820588235269673 0.5097734341761107 0
1133 7.820588235269673 0.5205242114053705 0
1134 7.820588235269672 0.5323500664852846 0
1135 7.820588235269673 0.5453585073733467 0
1136 7.820588235269669 0.5596677923930075 0
1137 7.820588235269672 0.5754080056885181 0
1138 7.82058823526967 0.5927222402777259 0
1139 7.820588235269671 0.6117678984141394 0
1140 7.820588235269673 0.6327181225216217 0
1141 7.820588235269672 0.6557633690888464 0
1142 7.820588235269672 0.6811131400509239 0
1143 7.820588235269673 0.7089978881794905 0
1144 7.820588235269672 0.7396711110890848 0
1145 7.820588235269672 0.7734116561348366 0
1146 7.820588235269672 0.810526255911586 0
1147 7.820588235269673 0.8513523157685861 0
1148 7.820588235269673 0.896260981642518 0
1149 7.820588235269671 0.9456605141417459 0
1150 8.188235294093518 0.5097734341761107 0
1151 8.188235294093518 0.5205242114053705 0
1152 8.188235294093518 0.5323500664852846 0
1153 8.188235294093518 0.5453585073733467 0
1154 8.18823529409352 0.5596677923930076 0
1155 8.188235294093518 0.5754080056885181 0
1156 8.188235294093518 0.5927222402777259 0
1157 8.188235294093518 0.6117678984141394 0
1158 8.188235294093518 0.6327181225216217 0
1159 8.18823529409352 0.6557633690888462 0
1160 8.188235294093518 0.6811131400509238 0
1161 8.188235294093518 0.7089978881794905 0
1162 8.188235294093518 0.7396711110890848 0
1163 8.188235294093518 0.7734116561348366 0
1164 8.18823529409352 0.8105262559115859 0
1165 8.188235294093518 0.8513523157685861 0
1166 8.188235294093518 0.8962609816425179 0
1167 8.188235294093518 0.945660514141746 0
1168 8.555882352919054 0.5097734341761107 0
1169 8.555882352919054 0.5205242114053705 0
1170 8.555882352919056 0.5323500664852846 0
1171 8.555882352919056 0.5453585073733467 0
1172 8.555882352919056 0.5596677923930075 0
1173 8.555882352919054 0.5754080056885181 0
1174 8.555882352919054 0.5927222402777258 0
1175 8.555882352919054 0.6117678984141394 0
1176 8.555882352919056 0.6327181225216217 0
1177 8.555882352919056 0.6557633690888464 0
1178 8.555882352919054 0.6811131400509238 0
1179 8.555882352919056 0.7089978881794905 0
1180 8.555882352919056 0.7396711110890848 0
1181 8.555882352919056 0.7734116561348364 0
1182 8.555882352919054 0.8105262559115858 0
1183 8.555882352919056 0.8513523157685861 0
1184 8.555882352919054 0.8962609816425178 0
1185 8.555882352919056 0.945660514141746 0
1186 8.923529411744598 0.5097734341761107 0
1187 8.923529411744592 0.5205242114053705 0
1188 8.923529411744598 0.5323500664852846 0
1189 8.9235294117446 0.5453585073733467 0
1190 8.9235294117446 0.5596677923930075 0
1191 8.923529411744598 0.5754080056885181 0
1192 8.923529411744598 0.5927222402777259 0
1193 8.923529411744598 0.6117678984141394 0
1194 8.923529411744598 0.6327181225216217 0
1195 8.923529411744598 0.6557633690888462 0
1196 8.923529411744598 0.6811131400509239 0
1197 8.9235294117446 0.7089978881794905 0
1198 8.923529411744598 0.7396711110890848 0
1199 8.923529411744598 0.7734116561348366 0
1200 8.923529411744598 0.8105262559115859 0
1201 8.923529411744598 0.8513523157685861 0
1202 8.923529411744598 0.8962609816425177 0
1203 8.9235294117446 0.9456605141417457 0
1204 9.291176470570136 0.5097734341761107 0
1205 9.291176470570136 0.5205242114053705 0
1206 9.291176470570139 0.5323500664852846 0
1207 9.291176470570141 0.5453585073733467 0
1208 9.291176470570138 0.5596677923930075 0
1209 9.291176470570136 0.5754080056885181 0
1210 9.291176470570138 0.5927222402777259 0
1211 9.291176470570136 0.6117678984141394 0
1212 9.291176470570139 0.6327181225216217 0
1213 9.291176470570138 0.6557633690888464 0
1214 9.291176470570138 0.6811131400509239 0
1215 9.291176470570138 0.7089978881794905 0
1216 9.291176470570138 0.7396711110890849 0
1217 9.291176470570138 0.7734116561348365 0
1218 9.291176470570138 0.8105262559115859 0
1219 9.291176470570138 0.8513523157685861 0
1220 9.291176470570138 0.8962609816425179 0
1221 9.291176470570136 0.9456605141417459 0
1222 9.658823529395677 0.5097734341761107 0
1223 9.658823529395676 0.5205242114053705 0
1224 9.658823529395677 0.5323500664852846 0
1225 9.658823529395683 0.5453585073733467 0
1226 9.658823529395679 0.5596677923930075 0
1227 9.658823529395679 0.5754080056885181 0
1228 9.658823529395677 0.5927222402777259 0
1229 9.658823529395679 0.6117678984141394 0
1230 9.658823529395677 0.6327181225216217 0
1231 9.658823529395679 0.6557633690888464 0
1232 9.658823529395679 0.6811131400509239 0
1233 9.658823529395677 0.7089978881794905 0
1234 9.658823529395679 0.7396711110890849 0
1235 9.658823529395679 0.7734116561348366 0
1236 9.658823529395679 0.8105262559115859 0
1237 9.658823529395677 0.8513523157685861 0
1238 9.658823529395681 0.8962609816425179 0
1239 9.658823529395679 0.9456605141417459 0
1240 10.02647058822122 0.5097734341761107 0
1241 10.02647058822122 0.5205242114053704 0
1242 10.02647058822122 0.5323500664852846 0
1243 10.02647058822122 0.5453585073733467 0
1244 10.02647058822122 0.5596677923930075 0
1245 10.02647058822122 0.5754080056885181 0
1246 10.02647058822122 0.5927222402777259 0
1247 10.02647058822122 0.6117678984141394 0
1248 10.02647058822122 0.6327181225216217 0
1249 10.02647058822122 0.6557633690888464 0
1250 10.02647058822122 0.6811131400509239 0
1251 10.02647058822122 0.7089978881794905 0
1252 10.02647058822122 0.7396711110890848 0
1253 10.02647058822122 0.7734116561348366 0
1254 10.02647058822122 0.8105262559115859 0
1255 10.02647058822122 0.8513523157685861 0
1256 10.02647058822122 0.8962609816425178 0
1257 10.02647058822122 0.9456605141417457 0
1258 10.39411764704676 0.5097734341761107 0
1259 10.39411764704676 0.5205242114053705 0
1260 10.39411764704676 0.5323500664852846 0
1261 10.39411764704676 0.5453585073733466 0
1262 10.39411764704676 0.5596677923930075 0
1263 10.39411764704676 0.5754080056885181 0
1264 10.39411764704676 0.5927222402777259 0
1265 10.39411764704676 0.6117678984141394 0
1266 10.39411764704676 0.6327181225216215 0
1267 10.39411764704676 0.6557633690888464 0
1268 10.39411764704676 0.6811131400509239 0
1269 10.39411764704676 0.7089978881794905 0
1270 10.39411764704676 0.7396711110890847 0
1271 10.39411764704676 0.7734116561348368 0
1272 10.39411764704676 0.8105262559115858 0
1273 10.39411764704676 0.8513523157685861 0
1274 10.39411764704676 0.8962609816425179 0
1275 10.39411764704676 0.9456605141417459 0
1276 10.7617647058723 0.5097734341761107 0
1277 10.7617647058723 0.5205242114053705 0
1278 10.7617647058723 0.5323500664852846 0
1279 10.7617647058723 0.5453585073733467 0
1280 10.7617647058723 0.5596677923930075 0
1281 10.7617647058723 0.5754080056885181 0
1282 10.7617647058723 0.5927222402777259 0
1283 10.7617647058723 0.6117678984141394 0
1284 10.7617647058723 0.6327181225216217 0
1285 10.7617647058723 0.6557633690888464 0
1286 10.7617647058723 0.6811131400509239 0
1287 10.7617647058723 0.7089978881794904 0
1288 10.7617647058723 0.7396711110890848 0
1289 10.7617647058723 0.7734116561348366 0
1290 10.7617647058723 0.8105262559115859 0
1291 10.7617647058723 0.8513523157685861 0
1292 10.7617647058723 0.8962609816425179 0
1293 10.7617647058723 0.945660514141746 0
1294 11.12941176469784 0.5097734341761107 0
1295 11.12941176469783 0.5205242114053705 0
1296 11.12941176469784 0.5323500664852846 0
1297 11.12941176469784 0.5453585073733467 0
1298 11.12941176469783 0.5596677923930075 0
1299 11.12941176469784 0.575408005688518 0
1300 11.12941176469784 0.5927222402777259 0
1301 11.12941176469784 0.6117678984141394 0
1302 11.12941176469784 0.6327181225216216 0
1303 11.12941176469784 0.6557633690888464 0
1304 11.12941176469784 0.6811131400509239 0
1305 11.12941176469784 0.7089978881794906 0
1306 11.12941176469784 0.7396711110890848 0
1307 11.12941176469784 0.7734116561348366 0
1308 11.12941176469784 0.8105262559115859 0
1309 11.12941176469784 0.8513523157685861 0
1310 11.12941176469784 0.8962609816425179 0
1311 11.12941176469784 0.9456605141417459 0
1312 11.49705882352338 0.5097734341761107 0
1313 11.49705882352338 0.5205242114053705 0
1314 11.49705882352338 0.5323500664852846 0
1315 11.49705882352338 0.5453585073733467 0
1316 11.49705882352338 0.5596677923930075 0
1317 11.49705882352338 0.575408005688518 0
1318 11.49705882352339 0.5927222402777258 0
1319 11.49705882352338 0.6117678984141391 0
1320 11.49705882352338 0.6327181225216217 0
1321 11.49705882352338 0.6557633690888464 0
1322 11.49705882352338 0.6811131400509239 0
1323 11.49705882352338 0.7089978881794905 0
1324 11.49705882352338 0.7396711110890848 0
1325 11.49705882352338 0.7734116561348366 0
1326 11.49705882352338 0.8105262559115859 0
1327 11.49705882352338 0.8513523157685861 0
1328 11.49705882352338 0.8962609816425179 0
1329 11.49705882352339 0.9456605141417459 0
1330 11.86470588234892 0.5097734341761107 0
1331 11.86470588234892 0.5205242114053705 0
1332 11.86470588234892 0.5323500664852846 0
1333 11.86470588234892 0.5453585073733467 0
1334 11.86470588234892 0.5596677923930075 0
1335 11.86470588234892 0.5754080056885181 0
1336 11.86470588234892 0.5927222402777259 0
1337 11.86470588234892 0.6117678984141394 0
1338 11.86470588234892 0.6327181225216217 0
1339 11.86470588234892 0.6557633690888465 0
1340 11.86470588234892 0.6811131400509239 0
1341 11.86470588234892 0.7089978881794905 0
1342 11.86470588234892 0.7396711110890848 0
1343 11.86470588234892 0.7734116561348366 0
1344 11.86470588234892 0.8105262559115859 0
1345 11.86470588234892 0.8513523157685861 0
1346 11.86470588234892 0.8962609816425179 0
1347 11.86470588234892 0.9456605141417459 0
1348 12.23235294117446 0.5097734341761107 0
1349 12.23235294117446 0.5205242114053705 0
1350 12.23235294117446 0.5323500664852846 0
1351 12.23235294117446 0.5453585073733467 0
1352 12.23235294117446 0.5596677923930075 0
1353 12.23235294117446 0.5754080056885181 0
1354 12.23235294117446 0.5927222402777259 0
1355 12.23235294117446 0.6117678984141394 0
1356 12.23235294117446 0.6327181225216217 0
1357 12.23235294117446 0.6557633690888464 0
1358 12.23235294117446 0.681113140050924 0
1359 12.23235294117446 0.7089978881794905 0
1360 12.23235294117446 0.7396711110890848 0
1361 12.23235294117446 0.7734116561348366 0
1362 12.23235294117446 0.8105262559115859 0
1363 12.23235294117446 0.8513523157685861 0
1364 12.23235294117446 0.8962609816425179 0
1365 12.23235294117446 0.9456605141417459 0
$EndNodes
$Elements
1326
1 1 2 101 4 6 76
2 1 2 101 4 76 77
3 1 2 101 4 77 78
4 1 2 101 4 78 79
5 1 2 101 4 79 80
6 1 2 101 4 80 81
7 1 2 101 4 81 82
8 1 2 101 4 82 83
9 1 2 101 4 83 84
10 1 2 101 4 84 85
11 1 2 101 4 85 86
12 1 2 101 4 86 87
13 1 2 101 4 87 88
14 1 2 101 4 88 89
15 1 2 101 4 89 90
16 1 2 101 4 90 91
17 1 2 101 4 91 92
18 1 2 101 4 92 93
19 1 2 101 4 93 94
20 1 2 101 4 94 95
21 1 2 101 4 95 96
22 1 2 101 4 96 97
23 1 2 101 4 97 98
24 1 2 101 4 98 99
25 1 2 101 4 99 100
26 1 2 101 4 100 101
27 1 2 101 4 101 102
28 1 2 101 4 102 103
29 1 2 101 4 103 104
30 1 2 101 4 104 105
31 1 2 101 4 105 106
32 1 2 101 4 106 107
33 1 2 101 4 107 108
34 1 2 101 4 108 4
35 3 2 201 1 1 7 178 109
36 3 2 201 1 109 178 179 110
37 3 2 201 1 110 179 180 111
38 3 2 201 1 111 180 181 112
39 3 2 201 1 112 181 182 113
40 3 2 201 1 113 182 183 114
41 3 2 201 1 114 183 184 115
42 3 2 201 1 115 184 185 116
43 3 2 201 1 116 185 186 117
44 3 2 201 1 117 186 187 118
45 3 2 201 1 118 187 188 119
46 3 2 201 1 119 188 189 120
47 3 2 201 1 120 189 190 121
48 3 2 201 1 121 190 191 122
49 3 2 201 1 122 191 192 123
50 3 2 201 1 123 192 193 124
51 3 2 201 1 124 193 194 125
52 3 2 201 1 125 194 195 126
53 3 2 201 1 126 195 76 6
54 3 2 201 1 7 8 196 178
55 3 2 201 1 178 196 197 179
56 3 2 201 1 179 197 198 180
57 3 2 201 1 180 198 199 181
58 3 2 201 1 181 199 200 182
59 3 2 201 1 182 200 201 183
60 3 2 201 1 183 201 202 184
61 3 2 201 1 184 202 203 185
62 3 2 201 1 185 203 204 186
63 3 2 201 1 186 204 205 187
64 3 2 201 1 187 205 206 188
65 3 2 201 1 188 206 207 189
66 3 2 201 1 189 207 208 190
67 3 2 201 1 190 208 209 191
68 3 2 201 1 191 209 210 192
69 3 2 201 1 192 210 211 193
70 3 2 201 1 193 211 212 194
71 3 2 201 1 194 212 213 195
72 3 2 201 1 195 213 77 76
73 3 2 201 1 8 9 214 196
74 3 2 201 1 196 214 215 197
75 3 2 201 1 197 215 216 198
76 3 2 201 1 198 216 217 199
77 3 2 201 1 199 217 218 200
78 3 2 201 1 200 218 219 201
79 3 2 201 1 201 219 220 202
80 3 2 201 1 202 220 221 203
81 3 2 201 1 203 221 222 204
82 3 2 201 1 204 222 223 205
83 3 2 201 1 205 223 224 206
84 3 2 201 1 206 224 225 207
85 3 2 201 1 207 225 226 208
86 3 2 201 1 208 226 227 209
87 3 2 201 1 209 227 228 210
88 3 2 201 1 210 228 229 211
89 3 2 201 1 211 229 230 212
90 3 2 201 1 212 230 231 213
91 3 2 201 1 213 231 78 77
92 3 2 201 1 9 10 232 214
93 3 2 201 1 214 232 233 215
94 3 2 201 1 215 233 234 216
95 3 2 201 1 216 234 235 217
96 3 2 201 1 217 235 236 218
97 3 2 201 1 218 236 237 219
98 3 2 201 1 219 237 238 220
99 3 2 201 1 220 238 239 221
100 3 2 201 1 221 239 240 222
101 3 2 201 1 222 240 241 223
102 3 2 201 1 223 241 242 224
103 3 2 201 1 224 242 243 225
104 3 2 201 1 225 243 244 226
105 3 2 201 1 226 244 245 227
106 3 2 201 1 227 245 246 228
107 3 2 201 1 228 246 247 229
108 3 2 201 1 229 247 248 230
109 3 2 201 1 230 248 249 231
110 3 2 201 1 231 249 79 78
111 3 2 201 1 10 11 250 232
112 3 2 201 1 232 250 251 233
113 3 2 201 1 233 251 252 234
114 3 2 201 1 234 252 253 235
115 3 2 201 1 235 253 254 236
116 3 2 201 1 236 254 255 237
117 3 2 201 1 237 255 256 238
118 3 2 201 1 238 256 257 239
119 3 2 201 1 239 257 258 240
120 3 2 201 1 240 258 259 241
121 3 2 201 1 241 259 260 242
122 3 2 201 1 242 260 261 243
123 3 2 201 1 243 261 262 244
124 3 2 201 1 244 262 263 245
125 3 2 201 1 245 263 264 246
126 3 2 201 1 246 264 265 247
127 3 2 201 1 247 265 266 248
128 3 2 201 1 248 266 267 249
129 3 2 201 1 249 267 80 79
130 3 2 201 1 11 12 268 250
131 3 2 201 1 250 268 269 251
132 3 2 201 1 251 269 270 252
133 3 2 201 1 252 270 271 253
134 3 2 201 1 253 271 272 254
135 3 2 201 1 254 272 273 255
136 3 2 201 1 255 273 274 256
137 3 2 201 1 256 274 275 257
138 3 2 201 1 257 275 276 258
139 3 2 201 1 258 276 277 259
140 3 2 201 1 259 277 278 260
141 3 2 201 1 260 278 279 261
142 3 2 201 1 261 279 280 262
143 3 2 201 1 262 280 281 263
144 3 2 201 1 263 281 282 264
145 3 2 201 1 264 282 283 265
146 3 2 201 1 265 283 284 266
147 3 2 201 1 266 284 285 267
148 3 2 201 1 267 285 81 80
149 3 2 201 1 12 13 286 268
150 3 2 201 1 268 286 287 269
151 3 2 201 1 269 287 288 270
152 3 2 201 1 270 288 289 271
153 3 2 201 1 271 289 290 272
154 3 2 201 1 272 290 291 273
155 3 2 201 1 273 291 292 274
156 3 2 201 1 274 292 293 275
157 3 2 201 1 275 293 294 276
158 3 2 201 1 276 294 295 277
159 3 2 201 1 277 295 296 278
160 3 2 201 1 278 296 297 279
161 3 2 201 1 279 297 298 280
162 3 2 201 1 280 298 299 281
163 3 2 201 1 281 299 300 282
164 3 2 201 1 282 300 301 283
165 3 2 201 1 283 301 302 284
166 3 2 201 1 284 302 303 285
167 3 2 201 1 285 303 82 81
168 3 2 201 1 13 14 304 286
169 3 2 201 1 286 304 305 287
170 3 2 201 1 287 305 306 288
171 3 2 201 1 288 306 307 289
172 3 2 201 1 289 307 308 290
173 3 2 201 1 290 308 309 291
174 3 2 201 1 291 309 310 292
175 3 2 201 1 292 310 311 293
176 3 2 201 1 293 311 312 294
177 3 2 201 1 294 312 313 295
178 3 2 201 1 295 313 314 296
179 3 2 201 1 296 314 315 297
180 3 2 201 1 297 315 316 298
181 3 2 201 1 298 316 317 299
182 3 2 201 1 299 317 318 300
183 3 2 201 1 300 318 319 301
184 3 2 201 1 301 319 320 302
185 3 2 201 1 302 320 321 303
186 3 2 201 1 303 321 83 82
187 3 2 201 1 14 15 322 304
188 3 2 201 1 304 322 323 305
189 3 2 201 1 305 323 324 306
190 3 2 201 1 306 324 325 307
191 3 2 201 1 307 325 326 308
192 3 2 201 1 308 326 327 309
193 3 2 201 1 309 327 328 310
194 3 2 201 1 310 328 329 311
195 3 2 201 1 311 329 330 312
196 3 2 201 1 312 330 331 313
197 3 2 201 1 313 331 332 314
198 3 2 201 1 314 332 333 315
199 3 2 201 1 315 333 334 316
200 3 2 201 1 316 334 335 317
201 3 2 201 1 317 335 336 318
202 3 2 201 1 318 336 337 319
203 3 2 201 1 319 337 338 320
204 3 2 201 1 320 338 339 321
205 3 2 201 1 321 339 84 83
206 3 2 201 1 15 16 340 322
207 3 2 201 1 322 340 341 323
208 3 2 201 1 323 341 342 324
209 3 2 201 1 324 342 343 325
210 3 2 201 1 325 343 344 326
211 3 2 201 1 326 344 345 327
212 3 2 201 1 327 345 346 328
213 3 2 201 1 328 346 347 329
214 3 2 201 1 329 347 348 330
215 3 2 201 1 330 348 349 331
216 3 2 201 1 331 349 350 332
217 3 2 201 1 332 350 351 333
218 3 2 201 1 333 351 352 334
219 3 2 201 1 334 352 353 335
220 3 2 201 1 335 353 354 336
221 3 2 201 1 336 354 355 337
222 3 2 201 1 337 355 356 338
223 3 2 201 1 338 356 357 339
224 3 2 201 1 339 357 85 84
225 3 2 201 1 16 17 358 340
226 3 2 201 1 340 358 359 341
227 3 2 201 1 341 359 360 342
228 3 2 201 1 342 360 361 343
229 3 2 201 1 343 361 362 344
230 3 2 201 1 344 362 363 345
231 3 2 201 1 345 363 364 346
232 3 2 201 1 346 364 365 347
233 3 2 201 1 347 365 366 348
234 3 2 201 1 348 366 367 349
235 3 2 201 1 349 367 368 350
236 3 2 201 1 350 368 369 351
237 3 2 201 1 351 369 370 352
238 3 2 201 1 352 370 371 353
239 3 2 201 1 353 371 372 354
240 3 2 201 1 354 372 373 355
241 3 2 201 1 355 373 374 356
242 3 2 201 1 356 374 375 357
243 3 2 201 1 357 375 86 85
244 3 2 201 1 17 18 376 358
245 3 2 201 1 358 376 377 359
246 3 2 201 1 359 377 378 360
247 3 2 201 1 360 378 379 361
248 3 2 201 1 361 379 380 362
249 3 2 201 1 362 380 381 363
250 3 2 201 1 363 381 382 364
251 3 2 201 1 364 382 383 365
252 3 2 201 1 365 383 384 366
253 3 2 201 1 366 384 385 367
254 3 2 201 1 367 385 386 368
255 3 2 201 1 368 386 387 369
256 3 2 201 1 369 387 388 370
257 3 2 201 1 370 388 389 371
258 3 2 201 1 371 389 390 372
259 3 2 201 1 372 390 391 373
260 3 2 201 1 373 391 392 374
261 3 2 201 1 374 392 393 375
262 3 2 201 1 375 393 87 86
263 3 2 201 1 18 19 394 376
264 3 2 201 1 376 394 395 377
265 3 2 201 1 377 395 396 378
266 3 2 201 1 378 396 397 379
267 3 2 201 1 379 397 398 380
268 3 2 201 1 380 398 399 381
269 3 2 201 1 381 399 400 382
270 3 2 201 1 382 400 401 383
271 3 2 201 1 383 401 402 384
272 3 2 201 1 384 402 403 385
273 3 2 201 1 385 403 404 386
274 3 2 201 1 386 404 405 387
275 3 2 201 1 387 405 406 388
276 3 2 201 1 388 406 407 389
277 3 2 201 1 389 407 408 390
278 3 2 201 1 390 408 409 391
279 3 2 201 1 391 409 410 392
280 3 2 201 1 392 410 411 393
281 3 2 201 1 393 411 88 87
282 3 2 201 1 19 20 412 394
283 3 2 201 1 394 412 413 395
284 3 2 201 1 395 413 414 396
285 3 2 201 1 396 414 415 397
286 3 2 201 1 397 415 416 398
287 3 2 201 1 398 416 417 399
288 3 2 201 1 399 417 418 400
289 3 2 201 1 400 418 419 401
290 3 2 201 1 401 419 420 402
291 3 2 201 1 402 420 421 403
292 3 2 201 1 403 421 422 404
293 3 2 201 1 404 422 423 405
294 3 2 201 1 405 423 424 406
295 3 2 201 1 406 424 425 407
296 3 2 201 1 407 425 426 408
297 3 2 201 1 408 426 427 409
298 3 2 201 1 409 427 428 410
299 3 2 201 1 410 428 429 411
300 3 2 201 1 411 429 89 88
301 3 2 201 1 20 21 430 412
302 3 2 201 1 412 430 431 413
303 3 2 201 1 413 431 432 414
304 3 2 201 1 414 432 433 415
305 3 2 201 1 415 433 434 416
306 3 2 201 1 416 434 435 417
307 3 2 201 1 417 435 436 418
308 3 2 201 1 418 436 437 419
309 3 2 201 1 419 437 438 420
310 3 2 201 1 420 438 439 421
311 3 2 201 1 421 439 440 422
312 3 2 201 1 422 440 441 423
313 3 2 201 1 423 441 442 424
314 3 2 201 1 424 442 443 425
315 3 2 201 1 425 443 444 426
316 3 2 201 1 426 444 445 427
317 3 2 201 1 427 445 446 428
318 3 2 201 1 428 446 447 429
319 3 2 201 1 429 447 90 89
320 3 2 201 1 21 22 448 430
321 3 2 201 1 430 448 449 431
322 3 2 201 1 431 449 450 432
323 3 2 201 1 432 450 451 433
324 3 2 201 1 433 451 452 434
325 3 2 201 1 434 452 453 435
326 3 2 201 1 435 453 454 436
327 3 2 201 1 436 454 455 437
328 3 2 201 1 437 455 456 438
329 3 2 201 1 438 456 457 439
330 3 2 201 1 439 457 458 440
331 3 2 201 1 440 458 459 441
332 3 2 201 1 441 459 460 442
333 3 2 201 1 442 460 461 443
334 3 2 201 1 443 461 462 444
335 3 2 201 1 444 462 463 445
336 3 2 201 1 445 463 464 446
337 3 2 201 1 446 464 465 447
338 3 2 201 1 447 465 91 90
339 3 2 201 1 22 23 466 448
340 3 2 201 1 448 466 467 449
341 3 2 201 1 449 467 468 450
342 3 2 201 1 450 468 469 451
343 3 2 201 1 451 469 470 452
344 3 2 201 1 452 470 471 453
345 3 2 201 1 453 471 472 454
346 3 2 201 1 454 472 473 455
347 3 2 201 1 455 473 474 456
348 3 2 201 1 456 474 475 457
349 3 2 201 1 457 475 476 458
350 3 2 201 1 458 476 477 459
351 3 2 201 1 459 477 478 460
352 3 2 201 1 460 478 479 461
353 3 2 201 1 461 479 480 462
354 3 2 201 1 462 480 481 463
355 3 2 201 1 463 481 482 464
356 3 2 201 1 464 482 483 465
357 3 2 201 1 465 483 92 91
358 3 2 201 1 23 24 484 466
359 3 2 201 1 466 484 485 467
360 3 2 201 1 467 485 486 468
361 3 2 201 1 468 486 487 469
362 3 2 201 1 469 487 488 470
363 3 2 201 1 470 488 489 471
364 3 2 201 1 471 489 490 472
365 3 2 201 1 472 490 491 473
366 3 2 201 1 473 491 492 474
367 3 2 201 1 474 492 493 475
368 3 2 201 1 475 493 494 476
369 3 2 201 1 476 494 495 477
370 3 2 201 1 477 495 496 478
371 3 2 201 1 478 496 497 479
372 3 2 201 1 479 497 498 480
373 3 2 201 1 480 498 499 481
374 3 2 201 1 481 499 500 482
375 3 2 201 1 482 500 501 483
376 3 2 201 1 483 501 93 92
377 3 2 201 1 24 25 502 484
378 3 2 201 1 484 502 503 485
379 3 2 201 1 485 503 504 486
380 3 2 201 1 486 504 505 487
381 3 2 201 1 487 505 506 488
382 3 2 201 1 488 506 507 489
383 3 2 201 1 489 507 508 490
384 3 2 201 1 490 508 509 491
385 3 2 201 1 491 509 510 492
386 3 2 201 1 492 510 511 493
387 3 2 201 1 493 511 512 494
388 3 2 201 1 494 512 513 495
389 3 2 201 1 495 513 514 496
390 3 2 201 1 496 514 515 497
391 3 2 201 1 497 515 516 498
392 3 2 201 1 498 516 517 499
393 3 2 201 1 499 517 518 500
394 3 2 201 1 500 518 519 501
395 3 2 201 1 501 519 94 93
396 3 2 201 1 25 26 520 502
397 3 2 201 1 502 520 521 503
398 3 2 201 1 503 521 522 504
399 3 2 201 1 504 522 523 505
400 3 2 201 1 505 523 524 506
401 3 2 201 1 506 524 525 507
402 3 2 201 1 507 525 526 508
403 3 2 201 1 508 526 527 509
404 3 2 201 1 509 527 528 510
405 3 2 201 1 510 528 529 511
406 3 2 201 1 511 529 530 512
407 3 2 201 1 512 530 531 513
408 3 2 201 1 513 531 532 514
409 3 2 201 1 514 532 533 515
410 3 2 201 1 515 533 534 516
411 3 2 201 1 516 534 535 517
412 3 2 201 1 517 535 536 518
413 3 2 201 1 518 536 537 519
414 3 2 201 1 519 537 95 94
415 3 2 201 1 26 27 538 520
416 3 2 201 1 520 538 539 521
417 3 2 201 1 521 539 540 522
418 3 2 201 1 522 540 541 523
419 3 2 201 1 523 541 542 524
420 3 2 201 1 524 542 543 525
421 3 2 201 1 525 543 544 526
422 3 2 201 1 526 544 545 527
423 3 2 201 1 527 545 546 528
424 3 2 201 1 528 546 547 529
425 3 2 201 1 529 547 548 530
426 3 2 201 1 530 548 549 531
427 3 2 201 1 531 549 550 532
428 3 2 201 1 532 550 551 533
429 3 2 201 1 533 551 552 534
430 3 2 201 1 534 552 553 535
431 3 2 201 1 535 553 554 536
432 3 2 201 1 536 554 555 537
433 3 2 201 1 537 555 96 95
434 3 2 201 1 27 28 556 538
435 3 2 201 1 538 556 557 539
436 3 2 201 1 539 557 558 540
437 3 2 201 1 540 558 559 541
438 3 2 201 1 541 559 560 542
439 3 2 201 1 542 560 561 543
440 3 2 201 1 543 561 562 544
441 3 2 201 1 544 562 563 545
442 3 2 201 1 545 563 564 546
443 3 2 201 1 546 564 565 547
444 3 2 201 1 547 565 566 548
445 3 2 201 1 548 566 567 549
446 3 2 201 1 549 567 568 550
447 3 2 201 1 550 568 569 551
448 3 2 201 1 551 569 570 552
449 3 2 201 1 552 570 571 553
450 3 2 201 1 553 571 572 554
451 3 2 201 1 554 572 573 555
452 3 2 201 1 555 573 97 96
453 3 2 201 1 28 29 574 556
454 3 2 201 1 556 574 575 557
455 3 2 201 1 557 575 576 558
456 3 2 201 1 558 576 577 559
457 3 2 201 1 559 577 578 560
458 3 2 201 1 560 578 579 561
459 3 2 201 1 561 579 580 562
460 3 2 201 1 562 580 581 563
461 3 2 201 1 563 581 582 564
462 3 2 201 1 564 582 583 565
463 3 2 201 1 565 583 584 566
464 3 2 201 1 566 584 585 567
465 3 2 201 1 567 585 586 568
466 3 2 201 1 568 586 587 569
467 3 2 201 1 569 587 588 570
468 3 2 201 1 570 588 589 571
469 3 2 201 1 571 589 590 572
470 3 2 201 1 572 590 591 573
471 3 2 201 1 573 591 98 97
472 3 2 201 1 29 30 592 574
473 3 2 201 1 574 592 593 575
474 3 2 201 1 575 593 594 576
475 3 2 201 1 576 594 595 577
476 3 2 201 1 577 595 596 578
477 3 2 201 1 578 596 597 579
478 3 2 201 1 579 597 598 580
479 3 2 201 1 580 598 599 581
480 3 2 201 1 581 599 600 582
481 3 2 201 1 582 600 601 583
482 3 2 201 1 583 601 602 584
483 3 2 201 1 584 602 603 585
484 3 2 201 1 585 603 604 586
485 3 2 201 1 586 604 605 587
486 3 2 201 1 587 605 606 588
487 3 2 201 1 588 606 607 589
488 3 2 201 1 589 607 608 590
489 3 2 201 1 590 608 609 591
490 3 2 201 1 591 609 99 98
491 3 2 201 1 30 31 610 592
492 3 2 201 1 592 610 611 593
493 3 2 201 1 593 611 612 594
494 3 2 201 1 594 612 613 595
495 3 2 201 1 595 613 614 596
496 3 2 201 1 596 614 615 597
497 3 2 201 1 597 615 616 598
498 3 2 201 1 598 616 617 599
499 3 2 201 1 599 617 618 600
500 3 2 201 1 600 618 619 601
501 3 2 201 1 601 619 620 602
502 3 2 201 1 602 620 621 603
503 3 2 201 1 603 621 622 604
504 3 2 201 1 604 622 623 605
505 3 2 201 1 605 623 624 606
506 3 2 201 1 606 624 625 607
507 3 2 201 1 607 625 626 608
508 3 2 201 1 608 626 627 609
509 3 2 201 1 609 627 100 99
510 3 2 201 1 31 32 628 610
511 3 2 201 1 610 628 629 611
512 3 2 201 1 611 629 630 612
513 3 2 201 1 612 630 631 613
514 3 2 201 1 613 631 632 614
515 3 2 201 1 614 632 633 615
516 3 2 201 1 615 633 634 616
517 3 2 201 1 616 634 635 617
518 3 2 201 1 617 635 636 618
519 3 2 201 1 618 636 637 619
520 3 2 201 1 619 637 638 620
521 3 2 201 1 620 638 639 621
522 3 2 201 1 621 639 640 622
523 3 2 201 1 622 640 641 623
524 3 2 201 1 623 641 642 624
525 3 2 201 1 624 642 643 625
526 3 2 201 1 625 643 644 626
527 3 2 201 1 626 644 645 627
528 3 2 201 1 627 645 101 100
529 3 2 201 1 32 33 646 628
530 3 2 201 1 628 646 647 629
531 3 2 201 1 629 647 648 630
532 3 2 201 1 630 648 649 631
533 3 2 201 1 631 649 650 632
534 3 2 201 1 632 650 651 633
535 3 2 201 1 633 651 652 634
536 3 2 201 1 634 652 653 635
537 3 2 201 1 635 653 654 636
538 3 2 201 1 636 654 655 637
539 3 2 201 1 637 655 656 638
540 3 2 201 1 638 656 657 639
541 3 2 201 1 639 657 658 640
542 3 2 201 1 640 658 659 641
543 3 2 201 1 641 659 660 642
544 3 2 201 1 642 660 661 643
545 3 2 201 1 643 661 662 644
546 3 2 201 1 644 662 663 645
547 3 2 201 1 645 663 102 101
548 3 2 201 1 33 34 664 646
549 3 2 201 1 646 664 665 647
550 3 2 201 1 647 665 666 648
551 3 2 201 1 648 666 667 649
552 3 2 201 1 649 667 668 650
553 3 2 201 1 650 668 669 651
554 3 2 201 1 651 669 670 652
555 3 2 201 1 652 670 671 653
556 3 2 201 1 653 671 672 654
557 3 2 201 1 654 672 673 655
558 3 2 201 1 655 673 674 656
559 3 2 201 1 656 674 675 657
560 3 2 201 1 657 675 676 658
561 3 2 201 1 658 676 677 659
562 3 2 201 1 659 677 678 660
563 3 2 201 1 660 678 679 661
564 3 2 201 1 661 679 680 662
565 3 2 201 1 662 680 681 663
566 3 2 201 1 663 681 103 102
567 3 2 201 1 34 35 682 664
568 3 2 201 1 664 682 683 665
569 3 2 201 1 665 683 684 666
570 3 2 201 1 666 684 685 667
571 3 2 201 1 667 685 686 668
572 3 2 201 1 668 686 687 669
573 3 2 201 1 669 687 688 670
574 3 2 201 1 670 688 689 671
575 3 2 201 1 671 689 690 672
576 3 2 201 1 672 690 691 673
577 3 2 201 1 673 691 692 674
578 3 2 201 1 674 692 693 675
579 3 2 201 1 675 693 694 676
580 3 2 201 1 676 694 695 677
581 3 2 201 1 677 695 696 678
582 3 2 201 1 678 696 697 679
583 3 2 201 1 679 697 698 680
584 3 2 201 1 680 698 699 681
585 3 2 201 1 681 699 104 103
586 3 2 201 1 35 36 700 682
587 3 2 201 1 682 700 701 683
588 3 2 201 1 683 701 702 684
589 3 2 201 1 684 702 703 685
590 3 2 201 1 685 703 704 686
591 3 2 201 1 686 704 705 687
592 3 2 201 1 687 705 706 688
593 3 2 201 1 688 706 707 689
594 3 2 201 1 689 707 708 690
595 3 2 201 1 690 708 709 691
596 3 2 201 1 691 709 710 692
597 3 2 201 1 692 710 711 693
598 3 2 201 1 693 711 712 694
599 3 2 201 1 694 712 713 695
600 3 2 201 1 695 713 714 696
601 3 2 201 1 696 714 715 697
602 3 2 201 1 697 715 716 698
603 3 2 201 1 698 716 717 699
604 3 2 201 1 699 717 105 104
605 3 2 201 1 36 37 718 700
606 3 2 201 1 700 718 719 701
607 3 2 201 1 701 719 720 702
608 3 2 201 1 702 720 721 703
609 3 2 201 1 703 721 722 704
610 3 2 201 1 704 722 723 705
611 3 2 201 1 705 723 724 706
612 3 2 201 1 706 724 725 707
613 3 2 201 1 707 725 726 708
614 3 2 201 1 708 726 727 709
615 3 2 201 1 709 727 728 710
616 3 2 201 1 710 728 729 711
617 3 2 201 1 711 729 730 712
618 3 2 201 1 712 730 731 713
619 3 2 201 1 713 731 732 714
620 3 2 201 1 714 732 733 715
621 3 2 201 1 715 733 734 716
622 3 2 201 1 716 734 735 717
623 3 2 201 1 717 735 106 105
624 3 2 201 1 37 38 736 718
625 3 2 201 1 718 736 737 719
626 3 2 201 1 719 737 738 720
627 3 2 201 1 720 738 739 721
628 3 2 201 1 721 739 740 722
629 3 2 201 1 722 740 741 723
630 3 2 201 1 723 741 742 724
631 3 2 201 1 724 742 743 725
632 3 2 201 1 725 743 744 726
633 3 2 201 1 726 744 745 727
634 3 2 201 1 727 745 746 728
635 3 2 201 1 728 746 747 729
636 3 2 201 1 729 747 748 730
637 3 2 201 1 730 748 749 731
638 3 2 201 1 731 749 750 732
639 3 2 201 1 732 750 751 733
640 3 2 201 1 733 751 752 734
641 3 2 201 1 734 752 753 735
642 3 2 201 1 735 753 107 106
643 3 2 201 1 38 39 754 736
644 3 2 201 1 736 754 755 737
645 3 2 201 1 737 755 756 738
646 3 2 201 1 738 756 757 739
647 3 2 201 1 739 757 758 740
648 3 2 201 1 740 758 759 741
649 3 2 201 1 741 759 760 742
650 3 2 201 1 742 760 761 743
651 3 2 201 1 743 761 762 744
652 3 2 201 1 744 762 763 745
653 3 2 201 1 745 763 764 746
654 3 2 201 1 746 764 765 747
655 3 2 201 1 747 765 766 748
656 3 2 201 1 748 766 767 749
657 3 2 201 1 749 767 768 750
658 3 2 201 1 750 768 769 751
659 3 2 201 1 751 769 770 752
660 3 2 201 1 752 770 771 753
661 3 2 201 1 753 771 108 107
662 3 2 201 1 39 2 40 754
663 3 2 201 1 754 40 41 755
664 3 2 201 1 755 41 42 756
665 3 2 201 1 756 42 43 757
666 3 2 201 1 757 43 44 758
667 3 2 201 1 758 44 45 759
668 3 2 201 1 759 45 46 760
669 3 2 201 1 760 46 47 761
670 3 2 201 1 761 47 48 762
671 3 2 201 1 762 48 49 763
672 3 2 201 1 763 49 50 764
673 3 2 201 1 764 50 51 765
674 3 2 201 1 765 51 52 766
675 3 2 201 1 766 52 53 767
676 3 2 201 1 767 53 54 768
677 3 2 201 1 768 54 55 769
678 3 2 201 1 769 55 56 770
679 3 2 201 1 770 56 57 771
680 3 2 201 1 771 57 4 108
681 3 2 201 2 6 76 772 127
682 3 2 201 2 127 772 773 128
683 3 2 201 2 128 773 774 129
684 3 2 201 2 129 774 775 130
685 3 2 201 2 130 775 776 131
686 3 2 201 2 131 776 777 132
687 3 2 201 2 132 777 778 133
688 3 2 201 2 133 778 779 134
689 3 2 201 2 134 779 780 135
690 3 2 201 2 135 780 781 136
691 3 2 201 2 136 781 782 137
692 3 2 201 2 137 782 783 138
693 3 2 201 2 138 783 784 139
694 3 2 201 2 139 784 785 140
695 3 2 201 2 140 785 786 141
696 3 2 201 2 141 786 787 142
697 3 2 201 2 142 787 788 143
698 3 2 201 2 143 788 789 144
699 3 2 201 2 144 789 145 5
700 3 2 201 2 76 77 790 772
701 3 2 201 2 772 790 791 773
702 3 2 201 2 773 791 792 774
703 3 2 201 2 774 792 793 775
704 3 2 201 2 775 793 794 776
705 3 2 201 2 776 794 795 777
706 3 2 201 2 777 795 796 778
707 3 2 201 2 778 796 797 779
708 3 2 201 2 779 797 798 780
709 3 2 201 2 780 798 799 781
710 3 2 201 2 781 799 800 782
711 3 2 201 2 782 800 801 783
712 3 2 201 2 783 801 802 784
713 3 2 201 2 784 802 803 785
714 3 2 201 2 785 803 804 786
715 3 2 201 2 786 804 805 787
716 3 2 201 2 787 805 806 788
717 3 2 201 2 788 806 807 789
718 3 2 201 2 789 807 146 145
719 3 2 201 2 77 78 808 790
720 3 2 201 2 790 808 809 791
721 3 2 201 2 791 809 810 792
722 3 2 201 2 792 810 811 793
723 3 2 201 2 793 811 812 794
724 3 2 201 2 794 812 813 795
725 3 2 201 2 795 813 814 796
726 3 2 201 2 796 814 815 797
727 3 2 201 2 797 815 816 798
728 3 2 201 2 798 816 817 799
729 3 2 201 2 799 817 818 800
730 3 2 201 2 800 818 819 801
731 3 2 201 2 801 819 820 802
732 3 2 201 2 802 820 821 803
733 3 2 201 2 803 821 822 804
734 3 2 201 2 804 822 823 805
735 3 2 201 2 805 823 824 806
736 3 2 201 2 806 824 825 807
737 3 2 201 2 807 825 147 146
738 3 2 201 2 78 79 826 808
739 3 2 201 2 808 826 827 809
740 3 2 201 2 809 827 828 810
741 3 2 201 2 810 828 829 811
742 3 2 201 2 811 829 830 812
743 3 2 201 2 812 830 831 813
744 3 2 201 2 813 831 832 814
745 3 2 201 2 814 832 833 815
746 3 2 201 2 815 833 834 816
747 3 2 201 2 816 834 835 817
748 3 2 201 2 817 835 836 818
749 3 2 201 2 818 836 837 819
750 3 2 201 2 819 837 838 820
751 3 2 201 2 820 838 839 821
752 3 2 201 2 821 839 840 822
753 3 2 201 2 822 840 841 823
754 3 2 201 2 823 841 842 824
755 3 2 201 2 824 842 843 825
756 3 2 201 2 825 843 148 147
757 3 2 201 2 79 80 844 826
758 3 2 201 2 826 844 845 827
759 3 2 201 2 827 845 846 828
760 3 2 201 2 828 846 847 829
761 3 2 201 2 829 847 848 830
762 3 2 201 2 830 848 849 831
763 3 2 201 2 831 849 850 832
764 3 2 201 2 832 850 851 833
765 3 2 201 2 833 851 852 834
766 3 2 201 2 834 852 853 835
767 3 2 201 2 835 853 854 836
768 3 2 201 2 836 854 855 837
769 3 2 201 2 837 855 856 838
770 3 2 201 2 838 856 857 839
771 3 2 201 2 839 857 858 840
772 3 2 201 2 840 858 859 841
773 3 2 201 2 841 859 860 842
774 3 2 201 2 842 860 861 843
775 3 2 201 2 843 861 149 148
776 3 2 201 2 80 81 862 844
777 3 2 201 2 844 862 863 845
778 3 2 201 2 845 863 864 846
779 3 2 201 2 846 864 865 847
780 3 2 201 2 847 865 866 848
781 3 2 201 2 848 866 867 849
782 3 2 201 2 849 867 868 850
783 3 2 201 2 850 868 869 851
784 3 2 201 2 851 869 870 852
785 3 2 201 2 852 870 871 853
786 3 2 201 2 853 871 872 854
787 3 2 201 2 854 872 873 855
788 3 2 201 2 855 873 874 856
789 3 2 201 2 856 874 875 857
790 3 2 201 2 857 875 876 858
791 3 2 201 2 858 876 877 859
792 3 2 201 2 859 877 878 860
793 3 2 201 2 860 878 879 861
794 3 2 201 2 861 879 150 149
795 3 2 201 2 81 82 880 862
796 3 2 201 2 862 880 881 863
797 3 2 201 2 863 881 882 864
798 3 2 201 2 864 882 883 865
799 3 2 201 2 865 883 884 866
800 3 2 201 2 866 884 885 867
801 3 2 201 2 867 885 886 868
802 3 2 201 2 868 886 887 869
803 3 2 201 2 869 887 888 870
804 3 2 201 2 870 888 889 871
805 3 2 201 2 871 889 890 872
806 3 2 201 2 872 890 891 873
807 3 2 201 2 873 891 892 874
808 3 2 201 2 874 892 893 875
809 3 2 201 2 875 893 894 876
810 3 2 201 2 876 894 895 877
811 3 2 201 2 877 895 896 878
812 3 2 201 2 878 896 897 879
813 3 2 201 2 879 897 151 150
814 3 2 201 2 82 83 898 880
815 3 2 201 2 880 898 899 881
816 3 2 201 2 881 899 900 882
817 3 2 201 2 882 900 901 883
818 3 2 201 2 883 901 902 884
819 3 2 201 2 884 902 903 885
820 3 2 201 2 885 903 904 886
821 3 2 201 2 886 904 905 887
822 3 2 201 2 887 905 906 888
823 3 2 201 2 888 906 907 889
824 3 2 201 2 889 907 908 890
825 3 2 201 2 890 908 909 891
826 3 2 201 2 891 909 910 892
827 3 2 201 2 892 910 911 893
828 3 2 201 2 893 911 912 894
829 3 2 201 2 894 912 913 895
830 3 2 201 2 895 913 914 896
831 3 2 201 2 896 914 915 897
832 3 2 201 2 897 915 152 151
833 3 2 201 2 83 84 916 898
834 3 2 201 2 898 916 917 899
835 3 2 201 2 899 917 918 900
836 3 2 201 2 900 918 919 901
837 3 2 201 2 901 919 920 902
838 3 2 201 2 902 920 921 903
839 3 2 201 2 903 921 922 904
840 3 2 201 2 904 922 923 905
841 3 2 201 2 905 923 924 906
842 3 2 201 2 906 924 925 907
843 3 2 201 2 907 925 926 908
844 3 2 201 2 908 926 927 909
845 3 2 201 2 909 927 928 910
846 3 2 201 2 910 928 929 911
847 3 2 201 2 911 929 930 912
848 3 2 201 2 912 930 931 913
849 3 2 201 2 913 931 932 914
850 3 2 201 2 914 932 933 915
851 3 2 201 2 915 933 153 152
852 3 2 201 2 84 85 934 916
853 3 2 201 2 916 934 935 917
854 3 2 201 2 917 935 936 918
855 3 2 201 2 918 936 937 919
856 3 2 201 2 919 937 938 920
857 3 2 201 2 920 938 939 921
858 3 2 201 2 921 939 940 922
859 3 2 201 2 922 940 941 923
860 3 2 201 2 923 941 942 924
861 3 2 201 2 924 942 943 925
862 3 2 201 2 925 943 944 926
863 3 2 201 2 926 944 945 927
864 3 2 201 2 927 945 946 928
865 3 2 201 2 928 946 947 929
866 3 2 201 2 929 947 948 930
867 3 2 201 2 930 948 949 931
868 3 2 201 2 931 949 950 932
869 3 2 201 2 932 950 951 933
870 3 2 201 2 933 951 154 153
871 3 2 201 2 85 86 952 934
872 3 2 201 2 934 952 953 935
873 3 2 201 2 935 953 954 936
874 3 2 201 2 936 954 955 937
875 3 2 201 2 937 955 956 938
876 3 2 201 2 938 956 957 939
877 3 2 201 2 939 957 958 940
878 3 2 201 2 940 958 959 941
879 3 2 201 2 941 959 960 942
880 3 2 201 2 942 960 961 943
881 3 2 201 2 943 961 962 944
882 3 2 201 2 944 962 963 945
883 3 2 201 2 945 963 964 946
884 3 2 201 2 946 964 965 947
885 3 2 201 2 947 965 966 948
886 3 2 201 2 948 966 967 949
887 3 2 201 2 949 967 968 950
888 3 2 201 2 950 968 969 951
889 3 2 201 2 951 969 155 154
890 3 2 201 2 86 87 970 952
891 3 2 201 2 952 970 971 953
892 3 2 201 2 953 971 972 954
893 3 2 201 2 954 972 973 955
894 3 2 201 2 955 973 974 956
895 3 2 201 2 956 974 975 957
896 3 2 201 2 957 975 976 958
897 3 2 201 2 958 976 977 959
898 3 2 201 2 959 977 978 960
899 3 2 201 2 960 978 979 961
900 3 2 201 2 961 979 980 962
901 3 2 201 2 962 980 981 963
902 3 2 201 2 963 981 982 964
903 3 2 201 2 964 982 983 965
904 3 2 201 2 965 983 984 966
905 3 2 201 2 966 984 985 967
906 3 2 201 2 967 985 986 968
907 3 2 201 2 968 986 987 969
908 3 2 201 2 969 987 156 155
909 3 2 201 2 87 88 988 970
910 3 2 201 2 970 988 989 971
911 3 2 201 2 971 989 990 972
912 3 2 201 2 972 990 991 973
913 3 2 201 2 973 991 992 974
914 3 2 201 2 974 992 993 975
915 3 2 201 2 975 993 994 976
916 3 2 201 2 976 994 995 977
917 3 2 201 2 977 995 996 978
918 3 2 201 2 978 996 997 979
919 3 2 201 2 979 997 998 980
920 3 2 201 2 980 998 999 981
921 3 2 201 2 981 999 1000 982
922 3 2 201 2 982 1000 1001 983
923 3 2 201 2 983 1001 1002 984
924 3 2 201 2 984 1002 1003 985
925 3 2 201 2 985 1003 1004 986
926 3 2 201 2 986 1004 1005 987
927 3 2 201 2 987 1005 157 156
928 3 2 201 2 88 89 1006 988
929 3 2 201 2 988 1006 1007 989
930 3 2 201 2 989 1007 1008 990
931 3 2 201 2 990 1008 1009 991
932 3 2 201 2 991 1009 1010 992
933 3 2 201 2 992 1010 1011 993
934 3 2 201 2 993 1011 1012 994
935 3 2 201 2 994 1012 1013 995
936 3 2 201 2 995 1013 1014 996
937 3 2 201 2 996 1014 1015 997
938 3 2 201 2 997 1015 1016 998
939 3 2 201 2 998 1016 1017 999
940 3 2 201 2 999 1017 1018 1000
941 3 2 201 2 1000 1018 1019 1001
942 3 2 201 2 1001 1019 1020 1002
943 3 2 201 2 1002 1020 1021 1003
944 3 2 201 2 1003 1021 1022 1004
945 3 2 201 2 1004 1022 1023 1005
946 3 2 201 2 1005 1023 158 157
947 3 2 201 2 89 90 1024 1006
948 3 2 201 2 1006 1024 1025 1007
949 3 2 201 2 1007 1025 1026 1008
950 3 2 201 2 1008 1026 1027 1009
951 3 2 201 2 1009 1027 1028 1010
952 3 2 201 2 1010 1028 1029 1011
953 3 2 201 2 1011 1029 1030 1012
954 3 2 201 2 1012 1030 1031 1013
955 3 2 201 2 1013 1031 1032 1014
956 3 2 201 2 1014 1032 1033 1015
957 3 2 201 2 1015 1033 1034 1016
958 3 2 201 2 1016 1034 1035 1017
959 3 2 201 2 1017 1035 1036 1018
960 3 2 201 2 1018 1036 1037 1019
961 3 2 201 2 1019 1037 1038 1020
962 3 2 201 2 1020 1038 1039 1021
963 3 2 201 2 1021 1039 1040 1022
964 3 2 201 2 1022 1040 1041 1023
965 3 2 201 2 1023 1041 159 158
966 3 2 201 2 90 91 1042 1024
967 3 2 201 2 1024 1042 1043 1025
968 3 2 201 2 1025 1043 1044 1026
969 3 2 201 2 1026 1044 1045 1027
970 3 2 201 2 1027 1045 1046 1028
971 3 2 201 2 1028 1046 1047 1029
972 3 2 201 2 1029 1047 1048 1030
973 3 2 201 2 1030 1048 1049 1031
974 3 2 201 2 1031 1049 1050 1032
975 3 2 201 2 1032 1050 1051 1033
976 3 2 201 2 1033 1051 1052 1034
977 3 2 201 2 1034 1052 1053 1035
978 3 2 201 2 1035 1053 1054 1036
979 3 2 201 2 1036 1054 1055 1037
980 3 2 201 2 1037 1055 1056 1038
981 3 2 201 2 1038 1056 1057 1039
982 3 2 201 2 1039 1057 1058 1040
983 3 2 201 2 1040 1058 1059 1041
984 3 2 201 2 1041 1059 160 159
985 3 2 201 2 91 92 1060 1042
986 3 2 201 2 1042 1060 1061 1043
987 3 2 201 2 1043 1061 1062 1044
988 3 2 201 2 1044 1062 1063 1045
989 3 2 201 2 1045 1063 1064 1046
990 3 2 201 2 1046 1064 1065 1047
991 3 2 201 2 1047 1065 1066 1048
992 3 2 201 2 1048 1066 1067 1049
993 3 2 201 2 1049 1067 1068 1050
994 3 2 201 2 1050 1068 1069 1051
995 3 2 201 2 1051 1069 1070 1052
996 3 2 201 2 1052 1070 1071 1053
997 3 2 201 2 1053 1071 1072 1054
998 3 2 201 2 1054 1072 1073 1055
999 3 2 201 2 1055 1073 1074 1056
1000 3 2 201 2 1056 1074 1075 1057
1001 3 2 201 2 1057 1075 1076 1058
1002 3 2 201 2 1058 1076 1077 1059
1003 3 2 201 2 1059 1077 161 160
1004 3 2 201 2 92 93 1078 1060
1005 3 2 201 2 1060 1078 1079 1061
1006 3 2 201 2 1061 1079 1080 1062
1007 3 2 201 2 1062 1080 1081 1063
1008 3 2 201 2 1063 1081 1082 1064
1009 3 2 201 2 1064 1082 1083 1065
1010 3 2 201 2 1065 1083 1084 1066
1011 3 2 201 2 1066 1084 1085 1067
1012 3 2 201 2 1067 1085 1086 1068
1013 3 2 201 2 1068 1086 1087 1069
1014 3 2 201 2 1069 1087 1088 1070
1015 3 2 201 2 1070 1088 1089 1071
1016 3 2 201 2 1071 1089 1090 1072
1017 3 2 201 2 1072 1090 1091 1073
1018 3 2 201 2 1073 1091 1092 1074
1019 3 2 201 2 1074 1092 1093 1075
1020 3 2 201 2 1075 1093 1094 1076
1021 3 2 201 2 1076 1094 1095 1077
1022 3 2 201 2 1077 1095 162 161
1023 3 2 201 2 93 94 1096 1078
1024 3 2 201 2 1078 1096 1097 1079
1025 3 2 201 2 1079 1097 1098 1080
1026 3 2 201 2 1080 1098 1099 1081
1027 3 2 201 2 1081 1099 1100 1082
1028 3 2 201 2 1082 1100 1101 1083
1029 3 2 201 2 1083 1101 1102 1084
1030 3 2 201 2 1084 1102 1103 1085
1031 3 2 201 2 1085 1103 1104 1086
1032 3 2 201 2 1086 1104 1105 1087
1033 3 2 201 2 1087 1105 1106 1088
1034 3 2 201 2 1088 1106 1107 1089
1035 3 2 201 2 1089 1107 1108 1090
1036 3 2 201 2 1090 1108 1109 1091
1037 3 2 201 2 1091 1109 1110 1092
1038 3 2 201 2 1092 1110 1111 1093
1039 3 2 201 2 1093 1111 1112 1094
1040 3 2 201 2 1094 1112 1113 1095
1041 3 2 201 2 1095 1113 163 162
1042 3 2 201 2 94 95 1114 1096
1043 3 2 201 2 1096 1114 1115 1097
1044 3 2 201 2 1097 1115 1116 1098
1045 3 2 201 2 1098 1116 1117 1099
1046 3 2 201 2 1099 1117 1118 1100
1047 3 2 201 2 1100 1118 1119 1101
1048 3 2 201 2 1101 1119 1120 1102
1049 3 2 201 2 1102 1120 1121 1103
1050 3 2 201 2 1103 1121 1122 1104
1051 3 2 201 2 1104 1122 1123 1105
1052 3 2 201 2 1105 1123 1124 1106
1053 3 2 201 2 1106 1124 1125 1107
1054 3 2 201 2 1107 1125 1126 1108
1055 3 2 201 2 1108 1126 1127 1109
1056 3 2 201 2 1109 1127 1128 1110
1057 3 2 201 2 1110 1128 1129 1111
1058 3 2 201 2 1111 1129 1130 1112
1059 3 2 201 2 1112 1130 1131 1113
1060 3 2 201 2 1113 1131 164 163
1061 3 2 201 2 95 96 1132 1114
1062 3 2 201 2 1114 1132 1133 1115
1063 3 2 201 2 1115 1133 1134 1116
1064 3 2 201 2 1116 1134 1135 1117
1065 3 2 201 2 1117 1135 1136 1118
1066 3 2 201 2 1118 1136 1137 1119
1067 3 2 201 2 1119 1137 1138 1120
1068 3 2 201 2 1120 1138 1139 1121
1069 3 2 201 2 1121 1139 1140 1122
1070 3 2 201 2 1122 1140 1141 1123
1071 3 2 201 2 1123 1141 1142 1124
1072 3 2 201 2 1124 1142 1143 1125
1073 3 2 201 2 1125 1143 1144 1126
1074 3 2 201 2 1126 1144 1145 1127
1075 3 2 201 2 1127 1145 1146 1128
1076 3 2 201 2 1128 1146 1147 1129
1077 3 2 201 2 1129 1147 1148 1130
1078 3 2 201 2 1130 1148 1149 1131
1079 3 2 201 2 1131 1149 165 164
1080 3 2 201 2 96 97 1150 1132
1081 3 2 201 2 1132 1150 1151 1133
1082 3 2 201 2 1133 1151 1152 1134
1083 3 2 201 2 1134 1152 1153 1135
1084 3 2 201 2 1135 1153 1154 1136
1085 3 2 201 2 1136 1154 1155 1137
1086 3 2 201 2 1137 1155 1156 1138
1087 3 2 201 2 1138 1156 1157 1139
1088 3 2 201 2 1139 1157 1158 1140
1089 3 2 201 2 1140 1158 1159 1141
1090 3 2 201 2 1141 1159 1160 1142
1091 3 2 201 2 1142 1160 1161 1143
1092 3 2 201 2 1143 1161 1162 1144
1093 3 2 201 2 1144 1162 1163 1145
1094 3 2 201 2 1145 1163 1164 1146
1095 3 2 201 2 1146 1164 1165 1147
1096 3 2 201 2 1147 1165 1166 1148
1097 3 2 201 2 1148 1166 1167 1149
1098 3 2 201 2 1149 1167 166 165
1099 3 2 201 2 97 98 1168 1150
1100 3 2 201 2 1150 1168 1169 1151
1101 3 2 201 2 1151 1169 1170 1152
1102 3 2 201 2 1152 1170 1171 1153
1103 3 2 201 2 1153 1171 1172 1154
1104 3 2 201 2 1154 1172 1173 1155
1105 3 2 201 2 1155 1173 1174 1156
1106 3 2 201 2 1156 1174 1175 1157
1107 3 2 201 2 1157 1175 1176 1158
1108 3 2 201 2 1158 1176 1177 1159
1109 3 2 201 2 1159 1177 1178 1160
1110 3 2 201 2 1160 1178 1179 1161
1111 3 2 201 2 1161 1179 1180 1162
1112 3 2 201 2 1162 1180 1181 1163
1113 3 2 201 2 1163 1181 1182 1164
1114 3 2 201 2 1164 1182 1183 1165
1115 3 2 201 2 1165 1183 1184 1166
1116 3 2 201 2 1166 1184 1185 1167
1117 3 2 201 2 1167 1185 167 166
1118 3 2 201 2 98 99 1186 1168
1119 3 2 201 2 1168 1186 1187 1169
1120 3 2 201 2 1169 1187 1188 1170
1121 3 2 201 2 1170 1188 1189 1171
1122 3 2 201 2 1171 1189 1190 1172
1123 3 2 201 2 1172 1190 1191 1173
1124 3 2 201 2 1173 1191 1192 1174
1125 3 2 201 2 1174 1192 1193 1175
1126 3 2 201 2 1175 1193 1194 1176
1127 3 2 201 2 1176 1194 1195 1177
1128 3 2 201 2 1177 1195 1196 1178
1129 3 2 201 2 1178 1196 1197 1179
1130 3 2 201 2 1179 1197 1198 1180
1131 3 2 201 2 1180 1198 1199 1181
1132 3 2 201 2 1181 1199 1200 1182
1133 3 2 201 2 1182 1200 1201 1183
1134 3 2 201 2 1183 1201 1202 1184
1135 3 2 201 2 1184 1202 1203 1185
1136 3 2 201 2 1185 1203 168 167
1137 3 2 201 2 99 100 1204 1186
1138 3 2 201 2 1186 1204 1205 1187
1139 3 2 201 2 1187 1205 1206 1188
1140 3 2 201 2 1188 1206 1207 1189
1141 3 2 201 2 1189 1207 1208 1190
1142 3 2 201 2 1190 1208 1209 1191
1143 3 2 201 2 1191 1209 1210 1192
1144 3 2 201 2 1192 1210 1211 1193
1145 3 2 201 2 1193 1211 1212 1194
1146 3 2 201 2 1194 1212 1213 1195
1147 3 2 201 2 1195 1213 1214 1196
1148 3 2 201 2 1196 1214 1215 1197
1149 3 2 201 2 1197 1215 1216 1198
1150 3 2 201 2 1198 1216 1217 1199
1151 3 2 201 2 1199 1217 1218 1200
1152 3 2 201 2 1200 1218 1219 1201
1153 3 2 201 2 1201 1219 1220 1202
1154 3 2 201 2 1202 1220 1221 1203
1155 3 2 201 2 1203 1221 169 168
1156 3 2 201 2 100 101 1222 1204
1157 3 2 201 2 1204 1222 1223 1205
1158 3 2 201 2 1205 1223 1224 1206
1159 3 2 201 2 1206 1224 1225 1207
1160 3 2 201 2 1207 1225 1226 1208
1161 3 2 201 2 1208 1226 1227 1209
1162 3 2 201 2 1209 1227 1228 1210
1163 3 2 201 2 1210 1228 1229 1211
1164 3 2 201 2 1211 1229 1230 1212
1165 3 2 201 2 1212 1230 1231 1213
1166 3 2 201 2 1213 1231 1232 1214
1167 3 2 201 2 1214 1232 1233 1215
1168 3 2 201 2 1215 1233 1234 1216
1169 3 2 201 2 1216 1234 1235 1217
1170 3 2 201 2 1217 1235 1236 1218
1171 3 2 201 2 1218 1236 1237 1219
1172 3 2 201 2 1219 1237 1238 1220
1173 3 2 201 2 1220 1238 1239 1221
1174 3 2 201 2 1221 1239 170 169
1175 3 2 201 2 101 102 1240 1222
1176 3 2 201 2 1222 1240 1241 1223
1177 3 2 201 2 1223 1241 1242 1224
1178 3 2 201 2 1224 1242 1243 1225
1179 3 2 201 2 1225 1243 1244 1226
1180 3 2 201 2 1226 1244 1245 1227
1181 3 2 201 2 1227 1245 1246 1228
1182 3 2 201 2 1228 1246 1247 1229
1183 3 2 201 2 1229 1247 1248 1230
1184 3 2 201 2 1230 1248 1249 1231
1185 3 2 201 2 1231 1249 1250 1232
1186 3 2 201 2 1232 1250 1251 1233
1187 3 2 201 2 1233 1251 1252 1234
1188 3 2 201 2 1234 1252 1253 1235
1189 3 2 201 2 1235 1253 1254 1236
1190 3 2 201 2 1236 1254 1255 1237
1191 3 2 201 2 1237 1255 1256 1238
1192 3 2 201 2 1238 1256 1257 1239
1193 3 2 201 2 1239 1257 171 170
1194 3 2 201 2 102 103 1258 1240
1195 3 2 201 2 1240 1258 1259 1241
1196 3 2 201 2 1241 1259 1260 1242
1197 3 2 201 2 1242 1260 1261 1243
1198 3 2 201 2 1243 1261 1262 1244
1199 3 2 201 2 1244 1262 1263 1245
1200 3 2 201 2 1245 1263 1264 1246
1201 3 2 201 2 1246 1264 1265 1247
1202 3 2 201 2 1247 1265 1266 1248
1203 3 2 201 2 1248 1266 1267 1249
1204 3 2 201 2 1249 1267 1268 1250
1205 3 2 201 2 1250 1268 1269 1251
1206 3 2 201 2 1251 1269 1270 1252
1207 3 2 201 2 1252 1270 1271 1253
1208 3 2 201 2 1253 1271 1272 1254
1209 3 2 201 2 1254 1272 1273 1255
1210 3 2 201 2 1255 1273 1274 1256
1211 3 2 201 2 1256 1274 1275 1257
1212 3 2 201 2 1257 1275 172 171
1213 3 2 201 2 103 104 1276 1258
1214 3 2 201 2 1258 1276 1277 1259
1215 3 2 201 2 1259 1277 1278 1260
1216 3 2 201 2 1260 1278 1279 1261
1217 3 2 201 2 1261 1279 1280 1262
1218 3 2 201 2 1262 1280 1281 1263
1219 3 2 201 2 1263 1281 1282 1264
1220 3 2 201 2 1264 1282 1283 1265
1221 3 2 201 2 1265 1283 1284 1266
1222 3 2 201 2 1266 1284 1285 1267
1223 3 2 201 2 1267 1285 1286 1268
1224 3 2 201 2 1268 1286 1287 1269
1225 3 2 201 2 1269 1287 1288 1270
1226 3 2 201 2 1270 1288 1289 1271
1227 3 2 201 2 1271 1289 1290 1272
1228 3 2 201 2 1272 1290 1291 1273
1229 3 2 201 2 1273 1291 1292 1274
1230 3 2 201 2 1274 1292 1293 1275
1231 3 2 201 2 1275 1293 173 172
1232 3 2 201 2 104 105 1294 1276
1233 3 2 201 2 1276 1294 1295 1277
1234 3 2 201 2 1277 1295 1296 1278
1235 3 2 201 2 1278 1296 1297 1279
1236 3 2 201 2 1279 1297 1298 1280
1237 3 2 201 2 1280 1298 1299 1281
1238 3 2 201 2 1281 1299 1300 1282
1239 3 2 201 2 1282 1300 1301 1283
1240 3 2 201 2 1283 1301 1302 1284
1241 3 2 201 2 1284 1302 1303 1285
1242 3 2 201 2 1285 1303 1304 1286
1243 3 2 201 2 1286 1304 1305 1287
1244 3 2 201 2 1287 1305 1306 1288
1245 3 2 201 2 1288 1306 1307 1289
1246 3 2 201 2 1289 1307 1308 1290
1247 3 2 201 2 1290 1308 1309 1291
1248 3 2 201 2 1291 1309 1310 1292
1249 3 2 201 2 1292 1310 1311 1293
1250 3 2 201 2 1293 1311 174 173
1251 3 2 201 2 105 106 1312 1294
1252 3 2 201 2 1294 1312 1313 1295
1253 3 2 201 2 1295 1313 1314 1296
1254 3 2 201 2 1296 1314 1315 1297
1255 3 2 201 2 1297 1315 1316 1298
1256 3 2 201 2 1298 1316 1317 1299
1257 3 2 201 2 1299 1317 1318 1300
1258 3 2 201 2 1300 1318 1319 1301
1259 3 2 201 2 1301 1319 1320 1302
1260 3 2 201 2 1302 1320 1321 1303
1261 3 2 201 2 1303 1321 1322 1304
1262 3 2 201 2 1304 1322 1323 1305
1263 3 2 201 2 1305 1323 1324 1306
1264 3 2 201 2 1306 1324 1325 1307
1265 3 2 201 2 1307 1325 1326 1308
1266 3 2 201 2 1308 1326 1327 1309
1267 3 2 201 2 1309 1327 1328 1310
1268 3 2 201 2 1310 1328 1329 1311
1269 3 2 201 2 1311 1329 175 174
1270 3 2 201 2 106 107 1330 1312
1271 3 2 201 2 1312 1330 1331 1313
1272 3 2 201 2 1313 1331 1332 1314
1273 3 2 201 2 1314 1332 1333 1315
1274 3 2 201 2 1315 1333 1334 1316
1275 3 2 201 2 1316 1334 1335 1317
1276 3 2 201 2 1317 1335 1336 1318
1277 3 2 201 2 1318 1336 1337 1319
1278 3 2 201 2 1319 1337 1338 1320
1279 3 2 201 2 1320 1338 1339 1321
1280 3 2 201 2 1321 1339 1340 1322
1281 3 2 201 2 1322 1340 1341 1323
1282 3 2 201 2 1323 1341 1342 1324
1283 3 2 201 2 1324 1342 1343 1325
1284 3 2 201 2 1325 1343 1344 1326
1285 3 2 201 2 1326 1344 1345 1327
1286 3 2 201 2 1327 1345 1346 1328
1287 3 2 201 2 1328 1346 1347 1329
1288 3 2 201 2 1329 1347 176 175
1289 3 2 201 2 107 108 1348 1330
1290 3 2 201 2 1330 1348 1349 1331
1291 3 2 201 2 1331 1349 1350 1332
1292 3 2 201 2 1332 1350 1351 1333
1293 3 2 201 2 1333 1351 1352 1334
1294 3 2 201 2 1334 1352 1353 1335
1295 3 2 201 2 1335 1353 1354 1336
1296 3 2 201 2 1336 1354 1355 1337
1297 3 2 201 2 1337 1355 1356 1338
1298 3 2 201 2 1338 1356 1357 1339
1299 3 2 201 2 1339 1357 1358 1340
1300 3 2 201 2 1340 1358 1359 1341
1301 3 2 201 2 1341 1359 1360 1342
1302 3 2 201 2 1342 1360 1361 1343
1303 3 2 201 2 1343 1361 1362 1344
1304 3 2 201 2 1344 1362 1363 1345
1305 3 2 201 2 1345 1363 1364 1346
1306 3 2 201 2 1346 1364 1365 1347
1307 3 2 201 2 1347 1365 177 176
1308 3 2 201 2 108 4 58 1348
1309 3 2 201 2 1348 58 59 1349
1310 3 2 201 2 1349 59 60 1350
1311 3 2 201 2 1350 60 61 1351
1312 3 2 201 2 1351 61 62 1352
1313 3 2 201 2 1352 62 63 1353
1314 3 2 201 2 1353 63 64 1354
1315 3 2 201 2 1354 64 65 1355
1316 3 2 201 2 1355 65 66 1356
1317 3 2 201 2 1356 66 67 1357
1318 3 2 201 2 1357 67 68 1358
1319 3 2 201 2 1358 68 69 1359
1320 3 2 201 2 1359 69 70 1360
1321 3 2 201 2 1360 70 71 1361
1322 3 2 201 2 1361 71 72 1362
1323 3 2 201 2 1362 72 73 1363
1324 3 2 201 2 1363 73 74 1364
1325 3 2 201 2 1364 74 75 1365
1326 3 2 201 2 1365 75 3 177
$EndElements
